<svg width="40" height="60" viewBox="0 0 40 60" fill="none" xmlns="http://www.w3.org/2000/svg">
<path d="M12.3557 32.8019C13.5682 34.2375 14.7599 35.5261 15.8104 36.6068C15.5999 36.2272 15.3872 35.8298 15.1729 35.4175C14.115 34.3564 12.7244 33.19 11.506 31.7751C11.7892 32.1247 12.0731 32.4672 12.3557 32.8019V32.8019Z" fill="#F2B705"/>
<path d="M15.8103 36.6068C15.5999 36.2273 15.3872 35.8298 15.1729 35.4175C15.25 35.4952 15.5225 35.755 15.8953 36.0955C16.0788 36.5241 17.0886 37.6713 17.2693 38.0678C16.8286 37.6382 16.3372 37.1487 15.8103 36.6068V36.6068Z" fill="#F2B705"/>
<path d="M17.2693 38.0678C17.0885 37.6712 16.0788 36.5241 15.8953 36.0955C16.2682 36.436 16.7415 36.8572 17.2204 37.2574C17.336 37.7219 18.3089 38.7347 18.424 39.1687C18.0999 38.8669 17.7099 38.4974 17.2693 38.0678Z" fill="#F2B705"/>
<path d="M18.424 39.1688C19.0722 39.7723 19.457 40.1049 19.457 40.1049C19.4471 39.8608 19.4375 39.6128 19.4283 39.3613C19.3066 39.4506 18.6248 38.9262 17.8224 38.2246C18.0944 38.5901 18.3664 38.9518 18.424 39.1688V39.1688Z" fill="#F2B705"/>
<path d="M17.8223 38.2246C18.6247 38.9262 19.3065 39.4506 19.4282 39.3612C19.419 39.1097 19.4101 38.8546 19.4016 38.5963C19.1582 38.7751 18.1781 38.058 17.2203 37.2574C17.2782 37.4896 17.5503 37.859 17.8223 38.2246Z" fill="#F2B705"/>
<path d="M19.457 40.1049C19.457 40.1049 19.4733 40.0913 19.5035 40.0649C19.4886 39.8248 19.474 39.5812 19.4598 39.3339C19.4421 39.3498 19.4311 39.359 19.4283 39.3613C19.4375 39.6128 19.4471 39.8608 19.457 40.1049V40.1049Z" fill="#F2B705"/>
<path d="M19.4283 39.3613C19.4312 39.359 19.4422 39.3498 19.4598 39.3339C19.4456 39.0866 19.4317 38.8358 19.4181 38.5817C19.4131 38.5871 19.4076 38.5919 19.4017 38.5963C19.4102 38.8546 19.4191 39.1097 19.4283 39.3613Z" fill="#F2B705"/>
<path d="M19.5035 40.0649C19.5502 40.024 19.6313 39.9524 19.7435 39.852C19.8441 39.5514 19.9481 39.2429 20.0526 38.9311C19.8156 39.1397 19.5297 39.2634 19.4598 39.3339C19.4741 39.5812 19.4886 39.8248 19.5035 40.0649V40.0649Z" fill="#F2B705"/>
<path d="M19.4598 39.3339C19.5297 39.2634 19.8155 39.1397 20.0525 38.9311C20.1568 38.6193 20.2615 38.3042 20.3633 37.9903C20.0017 38.3072 19.5112 38.4817 19.4181 38.5817C19.4316 38.8358 19.4455 39.0866 19.4598 39.3339V39.3339Z" fill="#F2B705"/>
<path d="M19.7433 39.8519C20.1467 39.4908 20.95 38.7563 21.9857 37.734C22.1061 37.4978 22.2911 37.1717 22.4763 36.843C21.405 37.7959 20.5329 38.5059 20.0524 38.931C19.948 39.2429 19.8439 39.5513 19.7433 39.8519Z" fill="#F2B705"/>
<path d="M20.0525 38.9311C20.533 38.5059 21.405 37.7959 22.4763 36.8431C22.6616 36.5144 22.847 36.1832 22.9681 35.9366C21.8614 36.8178 20.9211 37.5012 20.3633 37.9903C20.2615 38.3042 20.1568 38.6193 20.0525 38.9311Z" fill="#F2B705"/>
<path d="M21.9857 37.734C22.2264 37.2618 22.7258 36.4296 22.9681 35.9367C24.0747 35.0555 25.3477 33.9764 26.5709 32.6957C26.2902 33.0536 25.9028 33.5445 25.6227 33.8878C24.2897 35.4011 23.0215 36.7116 21.9857 37.734V37.734Z" fill="#F2B705"/>
<path d="M25.6227 33.8878C25.7627 33.7161 25.9296 33.5076 26.0966 33.2973C26.1706 33.2163 26.2447 33.1346 26.3187 33.0523C26.157 33.2527 25.9954 33.4512 25.8551 33.6221C25.7774 33.7113 25.6999 33.7998 25.6227 33.8878V33.8878Z" fill="#F2B705"/>
<path d="M25.8552 33.622C25.933 33.5329 26.011 33.4431 26.089 33.3526C26.1595 33.2679 26.2335 33.1782 26.3094 33.086C26.2325 33.174 26.1556 33.2614 26.0789 33.3482C26.0008 33.4443 25.9253 33.5365 25.8552 33.622V33.622Z" fill="#F2B705"/>
<path d="M26.0789 33.3483C26.1556 33.2614 26.2324 33.1741 26.3093 33.0861C26.3852 32.9939 26.463 32.899 26.5407 32.8036C26.4667 32.8872 26.3927 32.9701 26.3187 33.0523C26.2379 33.1525 26.157 33.2523 26.0789 33.3483V33.3483Z" fill="#F2B705"/>
<path d="M26.0966 33.2973C26.2446 33.1353 26.3927 32.9707 26.5408 32.8036C26.6963 32.6129 26.8519 32.4204 26.9929 32.2435C26.8532 32.3969 26.7125 32.5476 26.571 32.6957C26.4306 32.8747 26.2636 33.0869 26.0966 33.2973Z" fill="#F2B705"/>
<path d="M26.089 33.3526C26.1671 33.2621 26.2454 33.1709 26.3237 33.0791C26.3943 32.9951 26.4668 32.9083 26.5402 32.8199C26.4633 32.9093 26.3862 32.998 26.3093 33.086C26.2334 33.1782 26.1594 33.2678 26.089 33.3526V33.3526Z" fill="#F2B705"/>
<path d="M26.3093 33.0861C26.3862 32.9981 26.4632 32.9093 26.5402 32.82C26.6136 32.7315 26.688 32.6414 26.7625 32.5509C26.6887 32.6358 26.6148 32.7201 26.5407 32.8036C26.463 32.899 26.3852 32.9939 26.3093 33.0861V33.0861Z" fill="#F2B705"/>
<path d="M26.3237 33.0792C26.402 32.9874 26.4804 32.8949 26.5589 32.8019C26.6296 32.7183 26.7004 32.6341 26.7712 32.5494C26.6942 32.6404 26.6172 32.7305 26.5402 32.82C26.4668 32.9084 26.3943 32.9951 26.3237 33.0792Z" fill="#F2B705"/>
<path d="M26.5402 32.8199C26.6172 32.7305 26.6942 32.6404 26.7712 32.5494C26.8421 32.4648 26.9129 32.3797 26.9837 32.2941C26.9101 32.3804 26.8363 32.4659 26.7625 32.5509C26.6881 32.6414 26.6137 32.7315 26.5402 32.8199V32.8199Z" fill="#F2B705"/>
<path d="M26.5408 32.8036C26.6964 32.6129 26.852 32.4204 26.993 32.2435C27.0629 32.1668 27.1324 32.0894 27.2017 32.0114C27.0603 32.1868 26.9114 32.3698 26.7625 32.5509C26.6888 32.6358 26.6148 32.7201 26.5408 32.8036Z" fill="#F2B705"/>
<path d="M26.7625 32.5508C26.8363 32.4659 26.9101 32.3803 26.9837 32.294C27.0545 32.2085 27.1253 32.1224 27.1962 32.0359C27.126 32.1176 27.0555 32.1985 26.9848 32.279C26.9113 32.3693 26.8369 32.4603 26.7625 32.5508V32.5508Z" fill="#F2B705"/>
<path d="M26.9848 32.279C27.0555 32.1985 27.126 32.1176 27.1962 32.036C27.267 31.9495 27.3378 31.8625 27.4086 31.7751C27.34 31.8545 27.271 31.9333 27.2017 32.0113C27.1309 32.0991 27.0583 32.1886 26.9848 32.279Z" fill="#F2B705"/>
<path d="M11.5059 31.7751C9.16843 28.8893 6.85846 25.5123 5.43152 22.0794C5.64937 22.301 6.21419 22.6029 6.72457 22.8494C8.01464 26.7186 11.3507 30.5904 13.3996 33.729C12.7674 33.1279 12.1151 32.4826 11.5059 31.7751Z" fill="#F2B705"/>
<path d="M13.3996 33.7291C14.0318 34.3302 14.6439 34.887 15.1729 35.4175C14.2927 33.7219 12.7105 31.7657 11.2042 29.6951C10.9397 29.4298 10.3772 29.0214 9.77753 28.5632C11.0289 30.4072 12.3751 32.1598 13.3996 33.7291V33.7291Z" fill="#F2B705"/>
<path d="M9.77745 28.5632C10.3772 29.0214 10.9396 29.4298 11.2041 29.6951C9.69779 27.6246 8.26738 25.4397 7.69078 23.2871C7.69078 23.2871 7.23487 23.0959 6.72449 22.8494C7.36952 24.784 8.52606 26.7192 9.77745 28.5632V28.5632Z" fill="#F2B705"/>
<path d="M15.1728 35.4175C14.2927 33.7219 12.7104 31.7657 11.2041 29.6951C11.0068 29.7343 11.3246 29.9109 11.932 30.1471C13.5067 32.3052 15.1486 34.3514 15.9089 36.1079C15.529 35.7613 15.2509 35.4961 15.1728 35.4175V35.4175Z" fill="#F2B705"/>
<path d="M15.909 36.1079C15.1486 34.3514 13.5068 32.3052 11.932 30.1471C12.5394 30.3833 13.4364 30.679 14.3975 30.9567C15.5543 33.23 16.7586 35.3961 17.2553 37.2865C16.7704 36.8825 16.2888 36.4545 15.909 36.1079V36.1079Z" fill="#F2B705"/>
<path d="M11.2041 29.6951C10.8096 29.7736 12.4752 30.4014 14.3975 30.9567C13.2408 28.6834 12.1315 26.3029 11.8249 23.9837C9.03512 23.66 6.74556 23.2871 7.69085 23.2871C8.26745 25.4398 9.69786 27.6246 11.2041 29.6951V29.6951Z" fill="#F2B705"/>
<path d="M17.2553 37.2866C18.2252 38.0947 19.2084 38.8072 19.4181 38.5817C19.3049 36.4964 19.2089 34.19 19.132 31.7835C18.4992 31.9949 16.3199 31.512 14.3975 30.9567C15.5543 33.23 16.7586 35.3961 17.2553 37.2866Z" fill="#F2B705"/>
<path d="M14.3975 30.9567C16.32 31.512 18.4992 31.9948 19.1321 31.7835C19.0936 30.5802 19.06 29.3519 19.0314 28.1137C18.1077 28.3153 15.2379 27.9296 12.7924 27.4874C13.2527 28.6566 13.8192 29.8201 14.3975 30.9567Z" fill="#F2B705"/>
<path d="M12.7924 27.4874C15.2379 27.9296 18.1077 28.3153 19.0314 28.1137C19.0028 26.8755 18.9793 25.6274 18.961 24.3845C17.905 24.5817 14.6148 24.3073 11.825 23.9837C11.9782 25.1433 12.3322 26.3182 12.7924 27.4874Z" fill="#F2B705"/>
<path d="M19.4181 38.5817C19.5112 38.4817 20.0017 38.3071 20.3633 37.9903C20.3895 35.9532 20.4261 33.6963 20.4644 31.3393C20.0143 31.5468 19.4475 31.6833 19.1321 31.7835C19.209 34.19 19.3049 36.4964 19.4181 38.5817V38.5817Z" fill="#F2B705"/>
<path d="M19.1321 31.7835C19.4476 31.6833 20.0143 31.5468 20.4644 31.3393C20.4836 30.1607 20.5033 28.9571 20.5222 27.7433C20.0111 27.8757 19.4998 28.0135 19.0314 28.1137C19.06 29.3519 19.0937 30.5802 19.1321 31.7835Z" fill="#F2B705"/>
<path d="M19.0314 28.1137C19.4998 28.0135 20.0111 27.8757 20.5222 27.7433C20.5411 26.5296 20.5594 25.3057 20.5761 24.0866C20.0372 24.1848 19.4989 24.2842 18.961 24.3845C18.9793 25.6274 19.0029 26.8755 19.0314 28.1137Z" fill="#F2B705"/>
<path d="M20.3633 37.9903C20.9211 37.5012 21.8614 36.8178 22.9681 35.9366C23.259 35.0613 23.5769 34.0898 23.9005 33.0576C22.471 33.7686 21.1826 34.317 20.4093 34.7848C20.3921 35.8983 20.3763 36.9718 20.3633 37.9903Z" fill="#F2B705"/>
<path d="M20.4093 34.7848C21.1827 34.317 22.4711 33.7686 23.9005 33.0576C24.2242 32.0255 24.5537 30.9327 24.8681 29.8147C23.2474 30.4089 21.7119 30.9183 20.4644 31.3393C20.4453 32.5178 20.4265 33.6713 20.4093 34.7848V34.7848Z" fill="#F2B705"/>
<path d="M20.4644 31.3392C21.7119 30.9183 23.2473 30.4089 24.8681 29.8147C25.1824 28.6967 25.4815 27.5535 25.7444 26.4204C23.9795 26.8983 22.2438 27.369 20.5221 27.7433C20.5032 28.9571 20.4835 30.1607 20.4644 31.3392V31.3392Z" fill="#F2B705"/>
<path d="M20.5222 27.7433C22.2439 27.3691 23.9795 26.8983 25.7444 26.4204C26.0073 25.2874 26.2339 24.1645 26.4033 23.0874C24.4562 23.3964 22.5132 23.7337 20.576 24.0866C20.5594 25.3057 20.5411 26.5296 20.5222 27.7433V27.7433Z" fill="#F2B705"/>
<path d="M22.9681 35.9366C24.0747 35.0554 25.3478 33.9764 26.571 32.6957C27.1397 31.9635 27.6988 31.1788 28.2377 30.3552C26.9004 31.4733 25.3298 32.3468 23.9005 33.0576C23.5769 34.0898 23.259 35.0613 22.9681 35.9366Z" fill="#F2B705"/>
<path d="M23.9005 33.0576C25.3298 32.3469 26.9004 31.4733 28.2377 30.3552C28.7765 29.5317 29.2952 28.6691 29.783 27.7812C28.1946 28.5415 26.4887 29.2205 24.868 29.8147C24.5537 30.9327 24.2242 32.0256 23.9005 33.0576V33.0576Z" fill="#F2B705"/>
<path d="M24.8681 29.8147C25.6785 29.5176 26.5101 29.1993 27.3377 28.8603C27.7237 27.822 28.0838 26.7584 28.416 25.7094C27.5168 25.9407 26.627 26.1815 25.7444 26.4205C25.4816 27.5535 25.1824 28.6968 24.8681 29.8147V29.8147Z" fill="#F2B705"/>
<path d="M25.7444 26.4205C26.627 26.1815 27.5168 25.9407 28.416 25.7094C28.7482 24.6605 29.0523 23.6262 29.3266 22.6467C28.3512 22.7855 27.3768 22.9329 26.4033 23.0875C26.2339 24.1646 26.0073 25.2874 25.7444 26.4205V26.4205Z" fill="#F2B705"/>
<path d="M27.3376 28.8603C28.1652 28.5212 28.9888 28.1613 29.783 27.7812C30.2708 26.8932 30.7277 25.9799 31.1433 25.0547C30.2235 25.2561 29.315 25.478 28.416 25.7094C28.0838 26.7584 27.7237 27.822 27.3376 28.8603V28.8603Z" fill="#F2B705"/>
<path d="M28.416 25.7094C29.3151 25.478 30.2236 25.2561 31.1434 25.0547C31.5589 24.1296 31.933 23.1926 32.2549 22.2575C31.2782 22.3776 30.302 22.5078 29.3266 22.6467C29.0523 23.6262 28.7482 24.6605 28.416 25.7094V25.7094Z" fill="#F2B705"/>
<path d="M26.571 32.6957C26.7125 32.5476 26.8532 32.3968 26.993 32.2434C27.5695 31.5166 28.1408 30.747 28.6947 29.9454C28.5426 30.0862 28.3891 30.2251 28.2378 30.3552C27.6989 31.1788 27.1397 31.9635 26.571 32.6957V32.6957Z" fill="#F2B705"/>
<path d="M28.2377 30.3552C28.3891 30.2251 28.5425 30.0862 28.6947 29.9454C29.2486 29.1438 29.7849 28.3102 30.2916 27.4554C30.1251 27.5727 29.9563 27.6905 29.783 27.7811C29.2952 28.669 28.7766 29.5316 28.2377 30.3552Z" fill="#F2B705"/>
<path d="M29.783 27.7811C29.9563 27.6905 30.1251 27.5728 30.2916 27.4555C31.3051 25.7458 32.2 23.9512 32.8788 22.1578C32.671 22.1893 32.4599 22.2243 32.2549 22.2575C31.611 24.1278 30.7587 26.0052 29.783 27.7811V27.7811Z" fill="#F2B705"/>
<path d="M26.9929 32.2434C27.1327 32.09 27.2713 31.934 27.4086 31.7751C27.9931 31.0536 28.5758 30.3015 29.1433 29.5255C28.9974 29.6624 28.8467 29.8048 28.6947 29.9454C28.1408 30.747 27.5695 31.5166 26.9929 32.2434Z" fill="#F2B705"/>
<path d="M28.6946 29.9454C28.8466 29.8048 28.9974 29.6624 29.1433 29.5254C29.7109 28.7494 30.2633 27.9495 30.7874 27.1324C30.6227 27.2213 30.4581 27.3382 30.2916 27.4554C29.7849 28.3102 29.2485 29.1438 28.6946 29.9454Z" fill="#F2B705"/>
<path d="M30.2916 27.4554C31.3051 25.7458 32.2 23.9512 32.8788 22.1578C32.9828 22.142 33.0859 22.1272 33.1871 22.114C32.4843 23.8545 31.5699 25.6057 30.5402 27.2833C30.4577 27.3383 30.3749 27.3968 30.2916 27.4554V27.4554Z" fill="#F2B705"/>
<path d="M30.5403 27.2833C31.57 25.6057 32.4843 23.8545 33.1871 22.1139C33.2883 22.1007 33.3875 22.0889 33.4835 22.0794C32.7699 23.7959 31.8356 25.4983 30.7875 27.1324C30.7052 27.1769 30.6228 27.2284 30.5403 27.2833V27.2833Z" fill="#F2B705"/>
<path d="M5.43157 22.0794C4.65037 20.2003 4.13394 18.3042 4.02264 16.4626C4.17826 16.4211 4.59303 16.4509 4.97967 16.4541C5.16513 18.4008 5.97649 20.5743 6.72462 22.8494C6.21423 22.6029 5.64942 22.301 5.43157 22.0794Z" fill="#F2B705"/>
<path d="M6.7245 22.8494C5.97637 20.5743 5.16501 18.4008 4.97955 16.4541C5.36619 16.4574 5.7247 16.4341 5.76783 16.2863C6.0275 18.3381 6.97569 20.6158 7.6908 23.2871C7.6908 23.2871 7.23488 23.0959 6.7245 22.8494Z" fill="#F2B705"/>
<path d="M4.02256 16.4627C4.00764 16.2155 4 15.9692 4 15.7242C4.15088 15.6768 4.5491 15.6995 4.92273 15.6996C4.93045 15.9486 4.95663 16.2079 4.97959 16.4542C4.59295 16.4509 4.17818 16.4211 4.02256 16.4627V16.4627Z" fill="#F2B705"/>
<path d="M4.97959 16.4541C4.95663 16.2079 4.93045 15.9486 4.92273 15.6996C5.29636 15.6996 5.64539 15.6771 5.69796 15.5389C5.71343 15.7919 5.73687 16.0411 5.76787 16.2863C5.72473 16.4341 5.36623 16.4574 4.97959 16.4541V16.4541Z" fill="#F2B705"/>
<path d="M4 15.7242C4.15088 15.6768 4.5491 15.6995 4.92273 15.6996C4.86782 13.8499 5.14193 11.9052 5.82477 9.99207C5.54186 10.0193 5.25951 10.0513 4.94342 10.3021C4.33316 11.9923 4 13.8187 4 15.7242Z" fill="#F2B705"/>
<path d="M4.94348 10.3021C5.55378 8.612 6.44117 7.05802 7.54964 5.69733C7.79029 5.47021 8.05096 5.25637 8.32483 5.05325C7.06898 6.52744 6.07367 8.24361 5.39661 10.0632C5.25114 10.106 5.10153 10.1767 4.94348 10.3021Z" fill="#F2B705"/>
<path d="M5.39661 10.0632C6.07367 8.24359 7.06898 6.52743 8.32483 5.05324C8.5987 4.85008 8.88578 4.65761 9.17927 4.47324C7.59922 6.19709 6.50766 8.07885 5.82483 9.99206C5.68337 10.0057 5.54208 10.0205 5.39661 10.0632Z" fill="#F2B705"/>
<path d="M4.92278 15.6996C4.86787 13.8499 5.14198 11.9052 5.82482 9.99207C5.96627 9.97843 6.10784 9.96601 6.25383 9.92804C5.54641 11.9142 5.33819 13.8598 5.43082 15.6711C5.29028 15.694 5.1096 15.6996 4.92278 15.6996Z" fill="#F2B705"/>
<path d="M5.43081 15.6711C5.33818 13.8598 5.5464 11.9142 6.25383 9.92803C6.39977 9.89006 6.55014 9.82659 6.70918 9.71078C5.87853 11.7646 5.58822 13.7451 5.698 15.5389C5.6717 15.608 5.57131 15.6481 5.43081 15.6711V15.6711Z" fill="#F2B705"/>
<path d="M5.82477 9.99209C6.5076 8.07888 7.59916 6.19712 9.17922 4.47326C9.47271 4.28889 9.77256 4.11257 10.072 3.94171C8.16784 5.91519 6.96117 7.9419 6.25378 9.92805C6.10779 9.96602 5.96622 9.97845 5.82477 9.99209Z" fill="#F2B705"/>
<path d="M6.25378 9.92804C6.96117 7.94189 8.16784 5.91519 10.072 3.9417C10.3715 3.77085 10.6705 3.60546 10.9624 3.4429C8.9108 5.52992 7.5398 7.65701 6.70914 9.7108C6.5501 9.82661 6.39973 9.89008 6.25378 9.92804V9.92804Z" fill="#F2B705"/>
<path d="M7.69085 23.2871C6.97574 20.6158 6.02755 18.3381 5.76788 16.2863C5.89032 16.215 6.56615 16.2216 7.56281 16.2693C7.78034 18.3766 7.74791 20.8556 8.35725 23.514C7.55429 23.3803 7.21823 23.2871 7.69085 23.2871V23.2871Z" fill="#F2B705"/>
<path d="M8.35731 23.514C7.74797 20.8556 7.7804 18.3766 7.56287 16.2693C8.55956 16.3171 9.87713 16.4061 11.283 16.4996C11.4078 18.729 11.4484 21.3535 11.825 23.9837C10.4301 23.8219 9.16027 23.6478 8.35731 23.514V23.514Z" fill="#F2B705"/>
<path d="M11.825 23.9837C11.4484 21.3534 11.4077 18.729 11.283 16.4995C12.6889 16.593 14.1831 16.6911 15.5331 16.757C15.5651 19.1086 15.8993 21.7774 16.0432 24.3794C14.7399 24.295 13.2199 24.1455 11.825 23.9837Z" fill="#F2B705"/>
<path d="M16.0431 24.3794C15.8992 21.7774 15.5651 19.1087 15.533 16.757C16.8831 16.823 18.0889 16.8568 18.918 16.8217C18.9078 19.2289 18.9228 21.7953 18.9609 24.3845C18.4329 24.4831 17.3463 24.4638 16.0431 24.3794V24.3794Z" fill="#F2B705"/>
<path d="M5.76792 16.2863C5.73283 16.0086 5.70744 15.7257 5.69232 15.4381C5.88821 15.3432 6.59866 15.3239 7.60781 15.3459C7.62014 15.6445 7.53352 15.9778 7.56284 16.2693C6.56619 16.2215 5.89036 16.215 5.76792 16.2863V16.2863Z" fill="#F2B705"/>
<path d="M7.5628 16.2693C7.53348 15.9778 7.6201 15.6445 7.60776 15.3459C8.61691 15.3678 9.92473 15.4311 11.3153 15.5015C11.3215 15.8244 11.2662 16.1777 11.2829 16.4995C9.87706 16.406 8.5595 16.3171 7.5628 16.2693V16.2693Z" fill="#F2B705"/>
<path d="M11.2829 16.4996C11.2662 16.1778 11.3215 15.8244 11.3153 15.5015C12.7058 15.5719 14.1792 15.6494 15.5193 15.6998C15.5194 16.0469 15.529 16.4049 15.5331 16.757C14.1831 16.6911 12.6888 16.5931 11.2829 16.4996V16.4996Z" fill="#F2B705"/>
<path d="M15.5331 16.757C15.529 16.4049 15.5194 16.0469 15.5193 15.6997C16.8595 15.7501 18.0665 15.7734 18.9245 15.7353C18.9217 16.0934 18.9196 16.4557 18.9181 16.8217C18.089 16.8568 16.8832 16.8229 15.5331 16.757H15.5331Z" fill="#F2B705"/>
<path d="M5.69222 15.4381C5.59835 13.6542 5.89968 11.6891 6.73257 9.65317C7.11968 9.4454 7.87692 9.26337 8.84322 9.10571C7.96152 11.3017 7.53111 13.4563 7.60771 15.3459C6.59855 15.3239 5.8881 15.3433 5.69222 15.4381V15.4381Z" fill="#F2B705"/>
<path d="M7.60776 15.3459C7.53117 13.4563 7.96157 11.3017 8.84328 9.10571C9.80958 8.94801 10.985 8.81468 12.2085 8.70438C11.6052 11.0304 11.2766 13.3797 11.3153 15.5015C9.92473 15.4311 8.61692 15.3678 7.60776 15.3459Z" fill="#F2B705"/>
<path d="M6.7326 9.6532C7.56549 7.61727 8.92997 5.51045 10.9624 3.44294C11.5407 3.12228 12.152 2.84816 12.7865 2.61679C11.0579 4.67216 9.72493 6.90968 8.84326 9.10575C7.87696 9.26341 7.11972 9.44543 6.7326 9.6532V9.6532Z" fill="#F2B705"/>
<path d="M8.84332 9.10571C9.72499 6.90964 11.058 4.67212 12.7866 2.61676C13.4211 2.38535 14.0789 2.19668 14.7502 2.04688C13.6899 4.07561 12.8118 6.37833 12.2086 8.70437C10.985 8.81468 9.80962 8.94801 8.84332 9.10571Z" fill="#F2B705"/>
<path d="M11.3153 15.5014C11.238 11.2579 12.6296 6.10431 14.7501 2.04685C15.4214 1.89704 16.1061 1.78617 16.7944 1.71036C16.0105 5.71451 15.518 10.9916 15.5193 15.6997C14.1791 15.6494 12.7058 15.5718 11.3153 15.5014V15.5014Z" fill="#F2B705"/>
<path d="M15.5194 15.6997C15.518 10.9916 16.0106 5.71453 16.7945 1.71038C17.4829 1.6346 18.175 1.59388 18.861 1.58441C18.6846 5.56432 18.9576 10.816 18.9245 15.7353C18.0665 15.7734 16.8595 15.7501 15.5194 15.6997V15.6997Z" fill="#F2B705"/>
<path d="M18.9609 24.3845C18.917 21.4016 18.9039 18.449 18.9244 15.7353C21.3652 15.4458 23.8502 15.2541 26.3041 15.204C26.2567 17.725 25.9291 20.6803 25.591 23.2179C23.3746 23.5786 21.1638 23.9736 18.9609 24.3845Z" fill="#F2B705"/>
<path d="M25.5911 23.218C25.9291 20.6804 26.2567 17.725 26.3041 15.2041C27.5311 15.1791 28.7502 15.1894 29.9522 15.2407C29.8863 17.6292 29.5204 20.4736 28.9197 22.705C27.809 22.8659 26.6993 23.0377 25.5911 23.218V23.218Z" fill="#F2B705"/>
<path d="M28.9197 22.7051C29.5204 20.4736 29.8863 17.6292 29.9522 15.2407C31.1541 15.292 32.3388 15.3842 33.4968 15.5229C33.4225 17.851 32.975 20.1652 32.2549 22.2575C31.1422 22.3943 30.0304 22.5442 28.9197 22.7051Z" fill="#F2B705"/>
<path d="M18.9245 15.7353C18.9576 10.8161 18.6846 5.56435 18.861 1.58444C20.8396 1.55724 22.922 1.76177 24.913 2.28369C25.9861 5.76083 26.3815 10.8385 26.3041 15.2041C23.8503 15.2541 21.3653 15.4458 18.9245 15.7353V15.7353Z" fill="#F2B705"/>
<path d="M26.3041 15.204C26.3814 10.8385 25.9861 5.7608 24.913 2.28366C25.9084 2.54462 26.8811 2.88492 27.8066 3.31527C29.7386 6.44678 30.0599 11.2558 29.9522 15.2407C28.7502 15.1894 27.5311 15.179 26.3041 15.204V15.204Z" fill="#F2B705"/>
<path d="M29.9523 15.2407C30.0599 11.2558 29.7387 6.44678 27.8066 3.31528C28.732 3.74563 29.6101 4.26605 30.4165 4.88722C32.7392 7.86159 33.6184 11.7109 33.4968 15.5228C32.3389 15.3842 31.1542 15.292 29.9523 15.2407V15.2407Z" fill="#F2B705"/>
<path d="M32.2549 22.2575C32.9638 20.1975 33.4086 17.9224 33.4931 15.6308C33.6128 15.6359 33.7332 15.641 33.8536 15.6468C33.7824 17.9039 33.3024 20.1358 32.5658 22.207C32.4615 22.2238 32.3574 22.2409 32.2549 22.2575Z" fill="#F2B705"/>
<path d="M32.5658 22.207C33.3024 20.1358 33.7824 17.9039 33.8536 15.6468C33.974 15.6525 34.0942 15.6588 34.2137 15.666C34.1716 17.8471 33.6764 20.0622 32.8789 22.1578C32.7749 22.1736 32.6702 22.1901 32.5658 22.207V22.207Z" fill="#F2B705"/>
<path d="M32.8788 22.1578C33.0867 22.1263 33.2914 22.0985 33.4835 22.0794C33.9265 21.0137 34.2844 19.9426 34.5316 18.879C34.3222 18.8758 34.0775 18.9081 33.8295 18.9439C33.6008 20.0323 33.2776 21.11 32.8788 22.1578V22.1578Z" fill="#F2B705"/>
<path d="M33.8296 18.9439C34.0776 18.908 34.3223 18.8758 34.5316 18.879C34.7788 17.8155 34.9152 16.7595 34.9152 15.7242C34.6886 15.6987 34.4528 15.6804 34.2138 15.666C34.1927 16.7565 34.0584 17.8556 33.8296 18.9439Z" fill="#F2B705"/>
<path d="M33.4931 15.6307C33.7326 15.6409 33.9747 15.6516 34.2137 15.666C34.2492 13.7515 33.9911 11.8703 33.4389 10.11C33.2656 10.0583 33.0892 10.0106 32.8872 9.9422C33.381 11.7719 33.564 13.7072 33.4931 15.6307V15.6307Z" fill="#F2B705"/>
<path d="M32.8872 9.94223C33.0891 10.0106 33.2656 10.0583 33.4389 10.1101C32.8868 8.34977 32.0407 6.71034 30.9004 5.2793C30.7422 5.14439 30.5809 5.01377 30.4164 4.88724C31.5887 6.38847 32.3934 8.11257 32.8872 9.94223V9.94223Z" fill="#F2B705"/>
<path d="M34.2138 15.666C34.4527 15.6804 34.6885 15.6987 34.9152 15.7242C34.9152 13.8187 34.5819 11.9924 33.9715 10.3023C33.7824 10.2176 33.6123 10.1618 33.439 10.11C33.9911 11.8703 34.2492 13.7515 34.2138 15.666Z" fill="#F2B705"/>
<path d="M33.439 10.11C33.6123 10.1618 33.7824 10.2176 33.9715 10.3023C33.6664 9.45721 33.2919 8.6462 32.8552 7.87632C32.6917 7.751 32.5427 7.65895 32.3903 7.5712C32.8133 8.37994 33.1629 9.22989 33.439 10.11V10.11Z" fill="#F2B705"/>
<path d="M32.3902 7.57118C32.5426 7.65894 32.6916 7.75098 32.8551 7.8763C32.4184 7.10646 31.9194 6.37774 31.3652 5.69732C31.2135 5.5535 31.0585 5.41422 30.9004 5.27927C31.4706 5.99479 31.9672 6.7624 32.3902 7.57118V7.57118Z" fill="#F2B705"/>
<path d="M7.54956 5.69732C7.70414 5.5076 7.86295 5.32161 8.02592 5.13954C8.26256 4.90769 8.51598 4.68789 8.78102 4.47818C8.63105 4.67045 8.48263 4.86518 8.32475 5.05324C8.05087 5.25636 7.79021 5.4702 7.54956 5.69732V5.69732Z" fill="#F2B705"/>
<path d="M8.32483 5.05325C8.5987 4.8501 8.88579 4.65763 9.17928 4.47325C9.26188 4.38108 9.33641 4.28361 9.40636 4.18347C9.11418 4.3691 8.82845 4.56283 8.55593 4.76728C8.48033 4.86349 8.40377 4.95922 8.32483 5.05325V5.05325Z" fill="#F2B705"/>
<path d="M8.55597 4.76726C8.82849 4.5628 9.11422 4.36908 9.4064 4.18345C9.47635 4.08327 9.54173 3.98042 9.60611 3.87744C9.32288 4.06886 9.04618 4.26845 8.78114 4.47817C8.70614 4.5743 8.63157 4.67104 8.55597 4.76726V4.76726Z" fill="#F2B705"/>
<path d="M8.026 5.13952C8.49926 4.67581 9.03965 4.26027 9.60606 3.87744C9.73482 3.67149 9.85956 3.46501 10.0087 3.27853C9.48741 3.68865 8.99266 4.13188 8.52743 4.60506C8.35618 4.77924 8.18902 4.95746 8.026 5.13952V5.13952Z" fill="#F2B705"/>
<path d="M9.17926 4.47325C9.47275 4.28888 9.77261 4.11256 10.0721 3.94171C10.1584 3.85136 10.2309 3.75223 10.2954 3.64828C9.9971 3.82031 9.69852 3.99789 9.40634 4.18348C9.33639 4.28362 9.26186 4.38109 9.17926 4.47325V4.47325Z" fill="#F2B705"/>
<path d="M9.40631 4.18347C9.69849 3.99788 9.99707 3.82031 10.2953 3.64828C10.3598 3.54433 10.4161 3.43553 10.4701 3.32584C10.179 3.50284 9.88924 3.68609 9.60602 3.87746C9.54164 3.98044 9.47626 4.08329 9.40631 4.18347Z" fill="#F2B705"/>
<path d="M10.0721 3.94168C10.3715 3.77082 10.6706 3.60543 10.9624 3.44287C11.0504 3.35338 11.1214 3.2527 11.1824 3.14584C10.8916 3.30962 10.5936 3.47618 10.2954 3.64825C10.2309 3.7522 10.1584 3.85133 10.0721 3.94168Z" fill="#F2B705"/>
<path d="M10.2954 3.64826C10.5937 3.47619 10.8916 3.30962 11.1824 3.14585C11.2434 3.03899 11.2945 2.92589 11.3424 2.81158C11.0537 2.97803 10.7613 3.14881 10.4702 3.32581C10.4162 3.43551 10.3599 3.54431 10.2954 3.64826Z" fill="#F2B705"/>
<path d="M9.60602 3.87747C9.73478 3.67152 9.85952 3.46504 10.0086 3.27856C10.2692 3.0735 10.5365 2.8767 10.81 2.6886C10.6761 2.88358 10.5779 3.10649 10.4701 3.32584C10.179 3.50285 9.88924 3.68609 9.60602 3.87747V3.87747Z" fill="#F2B705"/>
<path d="M10.4702 3.32586C10.7613 3.14885 11.0537 2.97807 11.3424 2.81163C11.3904 2.69732 11.4353 2.5818 11.484 2.47C11.1974 2.63912 10.912 2.81487 10.6304 2.99811C10.5756 3.10562 10.5241 3.21617 10.4702 3.32586V3.32586Z" fill="#F2B705"/>
<path d="M10.6304 2.99806C10.912 2.81482 11.1975 2.63907 11.484 2.46995C11.5328 2.35815 11.5854 2.25008 11.6489 2.15067C11.3633 2.32104 11.0836 2.50047 10.8101 2.68857C10.7431 2.78608 10.6851 2.89055 10.6304 2.99806V2.99806Z" fill="#F2B705"/>
<path d="M10.9624 3.4429C11.5407 3.12224 12.152 2.84812 12.7866 2.61675C12.8618 2.51968 12.9194 2.41371 12.9671 2.30289C12.3514 2.54425 11.7547 2.82496 11.1824 3.14587C11.1214 3.25273 11.0503 3.3534 10.9624 3.4429V3.4429Z" fill="#F2B705"/>
<path d="M11.1824 3.1459C11.7547 2.82499 12.3514 2.54428 12.9671 2.30292C13.0148 2.19209 13.0525 2.07645 13.0877 1.95999C12.4849 2.20622 11.9015 2.49025 11.3424 2.81164C11.2944 2.92595 11.2434 3.03904 11.1824 3.1459V3.1459Z" fill="#F2B705"/>
<path d="M12.7865 2.61676C12.9369 2.42263 13.0172 2.19288 13.0876 1.95997C13.6904 1.71371 14.3126 1.50525 14.9495 1.33508C14.8994 1.5769 14.8443 1.81944 14.7501 2.04688C14.0788 2.19669 13.421 2.38535 12.7865 2.61676Z" fill="#F2B705"/>
<path d="M11.3423 2.81161C11.9014 2.49022 12.4848 2.20619 13.0876 1.95996C13.1228 1.84347 13.1555 1.72621 13.1931 1.61218C12.6013 1.86177 12.0299 2.1481 11.4839 2.46998C11.4352 2.58178 11.3903 2.6973 11.3423 2.81161V2.81161Z" fill="#F2B705"/>
<path d="M11.4839 2.47C12.0299 2.14812 12.6013 1.86178 13.1932 1.6122C13.2308 1.49821 13.2735 1.38751 13.3288 1.28409C12.7496 1.53881 12.1888 1.82859 11.6488 2.15071C11.5854 2.25012 11.5327 2.3582 11.4839 2.47Z" fill="#F2B705"/>
<path d="M13.0876 1.95998C13.158 1.72703 13.2184 1.49093 13.3288 1.28409C13.908 1.02932 14.5054 0.809611 15.1188 0.627502C15.0447 0.852112 14.9996 1.09324 14.9496 1.33509C14.3127 1.50526 13.6905 1.71371 13.0876 1.95998Z" fill="#F2B705"/>
<path d="M14.7502 2.04686C14.8444 1.81941 14.8995 1.57687 14.9496 1.33506C15.5864 1.16485 16.2379 1.03294 16.8992 0.939758C16.866 1.19242 16.8325 1.44965 16.7945 1.71037C16.1061 1.78618 15.4214 1.89705 14.7502 2.04686Z" fill="#F2B705"/>
<path d="M16.7945 1.71038C16.8325 1.44966 16.866 1.19243 16.8992 0.939767C17.5605 0.846588 18.2315 0.792146 18.9076 0.776886C18.8894 1.03954 18.8735 1.30856 18.8609 1.58441C18.175 1.59388 17.4829 1.6346 16.7945 1.71038Z" fill="#F2B705"/>
<path d="M14.9496 1.33509C14.9996 1.09324 15.0447 0.852113 15.1188 0.627503C15.7321 0.445395 16.3611 0.300967 17.0034 0.196777C16.9656 0.439075 16.9324 0.687126 16.8992 0.939786C16.2379 1.03297 15.5864 1.16488 14.9496 1.33509V1.33509Z" fill="#F2B705"/>
<path d="M16.8992 0.939891C16.9325 0.687231 16.9657 0.43918 17.0034 0.196882C17.6457 0.0926927 18.3012 0.0287382 18.9674 0.00769043C18.9461 0.258084 18.9258 0.514391 18.9076 0.77701C18.2316 0.792269 17.5605 0.846712 16.8992 0.939891V0.939891Z" fill="#F2B705"/>
<path d="M18.8609 1.58442C19.0261 1.58215 19.1922 1.5815 19.3588 1.58252C19.3811 1.02883 19.4194 0.503428 19.457 -3.05176e-05C19.2933 -3.05176e-05 19.1298 0.00223233 18.9673 0.00757924C18.9248 0.508366 18.886 1.03271 18.8609 1.58442V1.58442Z" fill="#F2B705"/>
<path d="M19.3588 1.58252C23.1813 1.60571 27.3255 2.50634 30.4165 4.88722C30.116 4.50317 29.8844 4.16786 29.5521 3.81587C26.8435 1.43773 23.3152 -3.05176e-05 19.457 -3.05176e-05C19.4194 0.503428 19.3811 1.02883 19.3588 1.58252V1.58252Z" fill="#F2B705"/>
<path d="M30.4165 4.88721C30.7454 5.14028 31.0617 5.4097 31.3652 5.69733C31.056 5.31789 30.7298 4.95344 30.3875 4.60509C30.1184 4.33194 29.8397 4.06884 29.5521 3.81586C29.8844 4.16785 30.116 4.50316 30.4165 4.88721Z" fill="#F2B705"/>
<g opacity="0.98">
<g opacity="0.98">
<g opacity="0.98">
<g opacity="0.98">
<path opacity="0.98" d="M6.17212 15.6865C6.17212 23.1504 12.12 29.2008 19.457 29.2008C26.7944 29.2008 32.7421 23.1504 32.7421 15.6865C32.7421 8.22241 26.7944 2.17178 19.457 2.17178C12.12 2.17178 6.17212 8.22241 6.17212 15.6865Z" fill="#F28705"/>
</g>
</g>
</g>
</g>
<path d="M7.14093 15.6865C7.14093 22.6064 12.6547 28.2158 19.457 28.2158C26.2592 28.2158 31.7738 22.6064 31.7738 15.6865C31.7738 8.7669 26.2592 3.1572 19.457 3.1572C12.6547 3.1572 7.14093 8.7669 7.14093 15.6865" fill="#F28705"/>
<path d="M7.63995 15.6865C7.63995 22.3258 12.9305 27.7078 19.457 27.7078C25.9838 27.7078 31.2748 22.3258 31.2748 15.6865C31.2748 9.04706 25.9838 3.66467 19.457 3.66467C12.9305 3.66467 7.63995 9.04706 7.63995 15.6865" fill="url(#paint0_radial)"/>
<g opacity="0.0546112">
<g opacity="0.0546112">
<path opacity="0.0546112" d="M16.1959 1.60974C16.1724 1.80653 14.4457 2.38408 13.6834 2.74718C12.1571 3.47394 10.7483 4.46424 9.57516 5.65755C8.24069 7.01509 7.19656 8.65663 6.45403 10.4381C6.19685 11.056 5.70351 12.3787 5.59627 12.3922C5.41463 12.415 5.46254 10.7002 5.6309 10.0123C6.1134 8.04136 7.27226 6.18627 8.68374 4.7504C10.0949 3.31445 11.9186 2.13597 13.8562 1.64513C14.5324 1.47387 16.2114 1.48025 16.1959 1.60974Z" fill="white"/>
</g>
</g>
<g opacity="0.109238">
<g opacity="0.109238">
<path opacity="0.109238" d="M16.0482 1.63056C16.0236 1.82305 14.3322 2.3991 13.5846 2.75904C12.0876 3.47967 10.704 4.45712 9.54942 5.63154C8.23622 6.96743 7.20497 8.5793 6.46765 10.3259C6.21234 10.9317 5.72153 12.2282 5.61665 12.242C5.43892 12.2656 5.4967 10.5887 5.66563 9.91511C6.14984 7.98484 7.29461 6.16349 8.68368 4.75041C10.0724 3.33726 11.863 2.17304 13.7605 1.68046C14.4227 1.50861 16.0639 1.50381 16.0482 1.63056Z" fill="white"/>
</g>
</g>
<g opacity="0.163849">
<g opacity="0.163849">
<path opacity="0.163849" d="M15.9006 1.65145C15.8752 1.83971 14.2186 2.41419 13.4858 2.77107C12.0181 3.4854 10.6597 4.45 9.52383 5.60551C8.23173 6.92002 7.21335 8.50196 6.48133 10.2137C6.2279 10.8075 5.73969 12.0778 5.63702 12.0919C5.4632 12.1161 5.53075 10.4772 5.70033 9.81779C6.18626 7.92839 7.31692 6.14078 8.68367 4.75058C10.0501 3.36014 11.8073 2.21026 13.6648 1.71594C14.313 1.54343 15.9168 1.52744 15.9006 1.65145Z" fill="white"/>
</g>
</g>
<g opacity="0.21846">
<g opacity="0.21846">
<path opacity="0.21846" d="M15.7529 1.6723C15.7269 1.85633 14.1051 2.42924 13.387 2.78288C11.9487 3.49116 10.6155 4.44291 9.49821 5.57944C8.22722 6.87239 7.22172 8.42457 6.49507 10.1015C6.24343 10.6832 5.75784 11.9272 5.65752 11.9418C5.48745 11.9667 5.56495 10.3656 5.7351 9.72051C6.22274 7.87181 7.33931 6.11802 8.68364 4.75054C10.0276 3.38289 11.7517 2.24736 13.5691 1.7513C14.2033 1.57812 15.7697 1.5511 15.7529 1.6723Z" fill="white"/>
</g>
</g>
<g opacity="0.273071">
<g opacity="0.273071">
<path opacity="0.273071" d="M15.6053 1.69319C15.5785 1.87291 13.9916 2.44432 13.2882 2.7949C11.8793 3.49696 10.5714 4.43578 9.47255 5.55349C8.22274 6.82489 7.23012 8.34731 6.50885 9.98935C6.25901 10.559 5.77602 11.7767 5.67798 11.7917C5.51191 11.8172 5.5991 10.2541 5.7699 9.62327C6.25925 7.81536 7.36164 6.09539 8.68373 4.75062C10.0053 3.40577 11.6962 2.28458 13.4734 1.7867C14.0936 1.61294 15.6226 1.57473 15.6053 1.69319Z" fill="white"/>
</g>
</g>
<g opacity="0.327698">
<g opacity="0.327698">
<path opacity="0.327698" d="M15.4576 1.71404C15.4302 1.88953 13.878 2.45937 13.1894 2.80679C11.8099 3.50264 10.5271 4.42869 9.44694 5.52733C8.21832 6.77727 7.23849 8.26984 6.52252 9.87706C6.27455 10.4347 5.79417 11.6261 5.69834 11.6415C5.53617 11.6678 5.63323 10.1426 5.8046 9.52591C6.29566 7.75878 7.38403 6.07255 8.68363 4.75066C9.9829 3.42861 11.6406 2.32176 13.3777 1.82205C13.9839 1.64763 15.4754 1.59831 15.4576 1.71404Z" fill="white"/>
</g>
</g>
<g opacity="0.382309">
<g opacity="0.382309">
<path opacity="0.382309" d="M15.31 1.73491C15.2818 1.90618 13.7645 2.47444 13.0906 2.8188C11.7405 3.50843 10.4829 4.42155 9.42131 5.50137C8.21388 6.72975 7.24692 8.19256 6.53625 9.76489C6.29007 10.3104 5.8123 11.4756 5.71875 11.4914C5.56049 11.5183 5.66741 10.0312 5.83935 9.42874C6.33212 7.70231 7.4064 6.04991 8.68367 4.75073C9.96053 3.45148 11.585 2.35888 13.282 1.85752C13.8742 1.68244 15.3282 1.622 15.31 1.73491Z" fill="white"/>
</g>
</g>
<g opacity="0.43692">
<g opacity="0.43692">
<path opacity="0.43692" d="M15.1622 1.75582C15.1334 1.92285 13.6509 2.48954 12.9917 2.83075C11.6711 3.51416 10.4385 4.41451 9.39554 5.47536C8.20929 6.68218 7.25521 8.11532 6.54984 9.65274C6.30553 10.1862 5.83037 11.3251 5.7391 11.3413C5.58476 11.3689 5.70145 9.91959 5.87413 9.33143C6.36852 7.64587 7.4287 6.02712 8.68356 4.75083C9.9381 3.47429 11.5293 2.39612 13.1862 1.89285C13.7644 1.71719 15.181 1.64564 15.1622 1.75582Z" fill="white"/>
</g>
</g>
<g opacity="0.491531">
<g opacity="0.491531">
<path opacity="0.491531" d="M15.0145 1.77666C14.985 1.93938 13.5374 2.50458 12.893 2.84264C11.6016 3.51991 10.3943 4.40733 9.36991 5.44928C8.20485 6.63455 7.26357 8.03784 6.56349 9.54045C6.32106 10.0619 5.8485 11.1745 5.75951 11.1911C5.609 11.2194 5.73564 9.80804 5.9088 9.23406C6.40499 7.58928 7.45107 6.00444 8.68352 4.75086C9.91565 3.49703 11.4737 2.43312 13.0905 1.92819C13.6547 1.75187 15.0338 1.66922 15.0145 1.77666Z" fill="white"/>
</g>
</g>
<g opacity="0.546158">
<g opacity="0.546158">
<path opacity="0.546158" d="M14.8669 1.79751C14.8366 1.95609 13.4239 2.51963 12.794 2.85462C11.5322 3.52568 10.35 4.40025 9.34425 5.42321C8.20029 6.58701 7.27188 7.96063 6.57718 9.42833C6.33655 9.93765 5.86659 11.024 5.77989 11.041C5.63329 11.07 5.76962 9.69659 5.94352 9.13686C6.44134 7.53287 7.47341 5.98169 8.68345 4.75091C9.89324 3.51987 11.4181 2.47039 12.9947 1.96355C13.545 1.78673 14.8866 1.69289 14.8669 1.79751Z" fill="white"/>
</g>
</g>
<g opacity="0.600769">
<g opacity="0.600769">
<path opacity="0.600769" d="M14.7193 1.81834C14.6883 1.97262 13.3104 2.53466 12.6954 2.8665C11.4629 3.53143 10.3059 4.39315 9.31871 5.39712C8.19594 6.53945 7.28041 7.88323 6.59101 9.31603C6.35224 9.81334 5.88482 10.8734 5.80048 10.8908C5.65771 10.9204 5.80398 9.58495 5.97837 9.03949C6.4779 7.4762 7.49578 5.95892 8.68358 4.75094C9.87088 3.5427 11.3626 2.50747 12.8992 1.99898C13.4354 1.82141 14.7396 1.71646 14.7193 1.81834Z" fill="white"/>
</g>
</g>
<g opacity="0.65538">
<g opacity="0.65538">
<path opacity="0.65538" d="M14.5716 1.83922C14.5399 1.98926 13.1968 2.54974 12.5965 2.87851C11.3933 3.53713 10.2615 4.386 9.29303 5.37108C8.19137 6.49186 7.28871 7.80595 6.60468 9.20386C6.36763 9.68914 5.90298 10.723 5.82075 10.7408C5.68198 10.771 5.83803 9.47352 6.01307 8.94223C6.51431 7.41973 7.5181 5.93619 8.68348 4.751C9.84854 3.56556 11.307 2.54468 12.8034 2.03436C13.3256 1.85621 14.5924 1.74016 14.5716 1.83922Z" fill="white"/>
</g>
</g>
<g opacity="0.710007">
<g opacity="0.710007">
<path opacity="0.710007" d="M14.4239 1.86011C14.3915 2.00593 13.0832 2.56482 12.4977 2.89045C11.3239 3.54293 10.2173 4.37896 9.26733 5.34513C8.18686 6.44436 7.29707 7.72861 6.61835 9.0917C6.38317 9.56488 5.92104 10.5724 5.84118 10.5907C5.70623 10.6216 5.87215 9.36203 6.04776 8.845C6.55071 7.36328 7.54048 5.91348 8.68346 4.75109C9.82602 3.58836 11.2514 2.58182 12.7077 2.06976C13.2159 1.89095 14.4452 1.76378 14.4239 1.86011Z" fill="white"/>
</g>
</g>
<g opacity="0.0569305">
<g opacity="0.0569305">
<path opacity="0.0569305" d="M23.4677 27.5442C23.4878 27.4039 24.7239 26.9639 25.2716 26.6929C26.368 26.1505 27.3851 25.4226 28.2382 24.5549C29.209 23.5675 29.9778 22.3836 30.5347 21.1049C30.728 20.6617 31.1006 19.7135 31.1765 19.7021C31.3066 19.6828 31.2438 20.902 31.1124 21.3938C30.7369 22.8021 29.883 24.1397 28.8564 25.1839C27.8302 26.2284 26.515 27.0966 25.1305 27.4785C24.6473 27.6121 23.4545 27.6363 23.4677 27.5442Z" fill="white"/>
</g>
</g>
<g opacity="0.113846">
<g opacity="0.113846">
<path opacity="0.113846" d="M23.6931 27.4441C23.7133 27.3105 24.8909 26.8825 25.4133 26.6206C26.4592 26.0963 27.4311 25.3965 28.2484 24.5651C29.1785 23.6192 29.9183 22.4883 30.4574 21.2691C30.6446 20.8465 31.0061 19.9427 31.0782 19.9313C31.202 19.9119 31.1325 21.0705 31.0038 21.5387C30.6359 22.8795 29.8141 24.1573 28.8307 25.1577C27.8474 26.1581 26.5913 26.9938 25.2732 27.368C24.8129 27.4989 23.6798 27.5318 23.6931 27.4441Z" fill="white"/>
</g>
</g>
<g opacity="0.170776">
<g opacity="0.170776">
<path opacity="0.170776" d="M23.9184 27.344C23.939 27.2173 25.0579 26.8011 25.555 26.5481C26.5503 26.0421 27.4771 25.3703 28.2585 24.5753C29.1479 23.6708 29.8586 22.5928 30.38 21.4332C30.561 21.0312 30.9113 20.1718 30.9798 20.1603C31.0972 20.1408 31.0211 21.2389 30.8951 21.6835C30.5348 22.9569 29.7451 24.1748 28.8048 25.1313C27.8647 26.0879 26.6674 26.8908 25.4156 27.2574C24.9787 27.3855 23.9052 27.427 23.9184 27.344Z" fill="white"/>
</g>
</g>
<g opacity="0.227692">
<g opacity="0.227692">
<path opacity="0.227692" d="M24.1437 27.2439C24.1641 27.1239 25.2251 26.7197 25.6967 26.4758C26.6414 25.9879 27.5231 25.3441 28.2688 24.5856C29.1173 23.7226 29.7988 22.6977 30.3027 21.5974C30.4775 21.216 30.8169 20.4011 30.8816 20.3895C30.9925 20.3699 30.9099 21.4074 30.7866 21.8284C30.4337 23.0345 29.6763 24.1922 28.7791 25.1048C27.8819 26.0176 26.7437 26.788 25.5582 27.1469C25.1444 27.2723 24.1303 27.3224 24.1437 27.2439Z" fill="white"/>
</g>
</g>
<g opacity="0.284622">
<g opacity="0.284622">
<path opacity="0.284622" d="M24.369 27.1437C24.3897 27.0306 25.3921 26.6382 25.8385 26.4033C26.7326 25.9335 27.5691 25.3179 28.2789 24.5958C29.0868 23.7743 29.7391 22.8022 30.2252 21.7615C30.3941 21.4007 30.7223 20.6302 30.7833 20.6185C30.8878 20.5989 30.7986 21.5758 30.678 21.9733C30.3328 23.1119 29.6074 24.2097 28.7532 25.0785C27.8991 25.9473 26.82 26.6852 25.7008 27.0362C25.3101 27.159 24.3556 27.2178 24.369 27.1437Z" fill="white"/>
</g>
</g>
<g opacity="0.341537">
<g opacity="0.341537">
<path opacity="0.341537" d="M24.5945 27.0437C24.6151 26.9374 25.5592 26.5568 25.9803 26.331C26.8238 25.8793 27.6151 25.2918 28.2892 24.6061C29.0563 23.8261 29.6795 22.907 30.148 21.9257C30.3106 21.5855 30.6277 20.8595 30.6849 20.8478C30.7831 20.8279 30.6874 21.7443 30.5693 22.1182C30.2318 23.1893 29.5385 24.2272 28.7274 25.0522C27.9165 25.8771 26.8963 26.5823 25.8434 26.9257C25.4758 27.0457 24.5809 27.1131 24.5945 27.0437Z" fill="white"/>
</g>
</g>
<g opacity="0.398468">
<g opacity="0.398468">
<path opacity="0.398468" d="M24.8198 26.9435C24.8407 26.8441 25.7262 26.4754 26.1219 26.2586C26.915 25.825 27.6611 25.2656 28.2993 24.6163C29.0256 23.8778 29.6199 23.0116 30.0707 22.0899C30.2271 21.7703 30.5331 21.0887 30.5867 21.0768C30.6784 21.0569 30.5762 21.9127 30.4608 22.2631C30.1307 23.2668 29.4696 24.2447 28.7016 25.0258C27.9337 25.8068 26.9725 26.4794 25.986 26.8152C25.6415 26.9324 24.8061 27.0085 24.8198 26.9435Z" fill="white"/>
</g>
</g>
<g opacity="0.455383">
<g opacity="0.455383">
<path opacity="0.455383" d="M25.0452 26.8434C25.0662 26.7509 25.8933 26.3939 26.2637 26.1862C27.0061 25.7708 27.7072 25.2394 28.3096 24.6265C28.9952 23.9295 29.5603 23.1164 29.9934 22.254C30.1437 21.9551 30.4386 21.3178 30.4884 21.306C30.5737 21.286 30.4649 22.0812 30.3522 22.408C30.0298 23.3442 29.4007 24.2622 28.6758 24.9994C27.9511 25.7366 27.0488 26.3765 26.1285 26.7046C25.8072 26.8192 25.0315 26.9039 25.0452 26.8434Z" fill="white"/>
</g>
</g>
<g opacity="0.512314">
<g opacity="0.512314">
<path opacity="0.512314" d="M25.2706 26.7432C25.2918 26.6576 26.0603 26.3125 26.4055 26.1139C27.0973 25.7165 27.7532 25.2133 28.3198 24.6367C28.9646 23.9812 29.5006 23.2211 29.9161 22.4181C30.0602 22.1398 30.344 21.547 30.3901 21.5351C30.469 21.515 30.3537 22.2496 30.2436 22.5529C29.9287 23.4217 29.3319 24.2797 28.65 24.973C27.9682 25.6664 27.125 26.2736 26.2711 26.594C25.9729 26.7059 25.2569 26.7993 25.2706 26.7432Z" fill="white"/>
</g>
</g>
<g opacity="0.569229">
<g opacity="0.569229">
<path opacity="0.569229" d="M25.4959 26.6431C25.5171 26.5643 26.2274 26.2311 26.5472 26.0414C27.1885 25.6623 27.7993 25.1871 28.3299 24.647C28.934 24.0329 29.441 23.3257 29.8386 22.5824C29.9768 22.3245 30.2494 21.7763 30.2919 21.7642C30.3643 21.744 30.2423 22.4181 30.1351 22.6978C29.8277 23.499 29.263 24.2972 28.6243 24.9467C27.9856 25.5962 27.2014 26.1708 26.4137 26.4834C26.1387 26.5927 25.482 26.6946 25.4959 26.6431Z" fill="white"/>
</g>
</g>
<g opacity="0.62616">
<g opacity="0.62616">
<path opacity="0.62616" d="M25.7212 26.543C25.7427 26.471 26.3944 26.1497 26.6889 25.969C27.2796 25.608 27.8451 25.1609 28.3402 24.6573C28.9034 24.0846 29.3813 23.4304 29.7613 22.7465C29.8932 22.5093 30.1548 22.0054 30.1934 21.9933C30.2594 21.9729 30.131 22.5864 30.0264 22.8426C29.7266 23.5765 29.1939 24.3147 28.5983 24.9204C28.0027 25.5259 27.2776 26.0679 26.5562 26.3729C26.3042 26.4794 25.7073 26.5899 25.7212 26.543Z" fill="white"/>
</g>
</g>
<g opacity="0.683075">
<g opacity="0.683075">
<path opacity="0.683075" d="M25.9466 26.4429C25.9681 26.3777 26.5615 26.0682 26.8306 25.8966C27.3707 25.5536 27.8911 25.1346 28.3503 24.6674C28.8728 24.1362 29.3216 23.5351 29.6839 22.9106C29.8097 22.6941 30.0602 22.2346 30.0951 22.2224C30.1549 22.202 30.0197 22.7549 29.9177 22.9875C29.6257 23.6538 29.1251 24.3322 28.5726 24.8939C28.02 25.4556 27.3539 25.9649 26.6987 26.2623C26.47 26.366 25.9326 26.4853 25.9466 26.4429Z" fill="white"/>
</g>
</g>
<g opacity="0.740005">
<g opacity="0.740005">
<path opacity="0.740005" d="M26.172 26.3427C26.1937 26.2845 26.7286 25.9868 26.9724 25.8243C27.462 25.4994 27.9372 25.1085 28.3606 24.6777C28.8424 24.188 29.2621 23.6398 29.6066 23.0747C29.7263 22.8788 29.9657 22.4638 29.997 22.4517C30.0503 22.4309 29.9086 22.9234 29.8093 23.1324C29.5247 23.7314 29.0563 24.3497 28.5468 24.8676C28.0374 25.3854 27.4301 25.8621 26.8414 26.1517C26.6358 26.2528 26.158 26.3807 26.172 26.3427Z" fill="white"/>
</g>
</g>
<path d="M25.2812 9.93937C21.1861 9.93937 19.8133 10.9356 19.3705 11.4736C18.9277 10.9356 17.5548 9.93937 13.4597 9.93937H13.2489V10.5928C13.0599 10.5878 12.8708 10.5861 12.67 10.5861H12.1923V20.0357H12.67C17.7222 20.0357 18.7533 21.2144 18.9002 21.4331H19.8485C20.0084 21.2041 21.0596 20.0357 26.0716 20.0357H26.5492V10.5861H26.0713C25.8701 10.5861 25.6811 10.5881 25.4921 10.5931V9.93937H25.2812ZM13.776 18.4254V10.4797C18.1083 10.5365 18.9451 11.7436 19.0543 11.9401V19.6096C18.349 19.0801 16.8692 18.4662 13.776 18.4254V18.4254ZM19.687 11.9426C19.8066 11.7274 20.6669 10.5365 24.9655 10.4799V18.4254C21.8722 18.4662 20.3926 19.0798 19.687 19.6096V11.9426Z" fill="url(#paint1_linear)"/>
<path d="M24.9655 18.4254C21.8722 18.4662 20.3926 19.0798 19.6871 19.6095V11.9426C19.8065 11.7274 20.6669 10.5364 24.9655 10.48V18.4254ZM19.0543 19.6095C18.349 19.0801 16.8692 18.4662 13.776 18.4254V10.4797C18.1083 10.5364 18.9451 11.7436 19.0543 11.9401V19.6095ZM26.0713 10.5861C25.8701 10.5861 25.681 10.5881 25.4921 10.5931V9.93941H25.2812C21.1861 9.93941 19.8132 10.9356 19.3705 11.4735C18.9277 10.9356 17.5548 9.93941 13.4598 9.93941H13.2489V10.5928C13.0599 10.5878 12.8709 10.5861 12.67 10.5861H12.1923V20.0357H12.67C17.7221 20.0357 18.7533 21.2143 18.9002 21.4331H19.8485C20.0084 21.2041 21.0596 20.0357 26.0716 20.0357H26.5492V10.5861H26.0713Z" stroke="white" stroke-miterlimit="10" stroke-linecap="round" stroke-linejoin="round"/>
<path d="M12.8246 42.986L7.56861 56H5.38161L0.125609 42.986H2.06961C2.27961 42.986 2.45061 43.037 2.58261 43.139C2.71461 43.241 2.81361 43.373 2.87961 43.535L5.94861 51.473C6.05061 51.731 6.14661 52.016 6.23661 52.328C6.33261 52.634 6.42261 52.955 6.50661 53.291C6.57861 52.955 6.65661 52.634 6.74061 52.328C6.82461 52.016 6.91761 51.731 7.01961 51.473L10.0706 43.535C10.1186 43.397 10.2116 43.271 10.3496 43.157C10.4936 43.043 10.6676 42.986 10.8716 42.986H12.8246ZM16.4828 46.622C17.1668 46.622 17.7878 46.733 18.3458 46.955C18.9098 47.177 19.3898 47.492 19.7858 47.9C20.1878 48.308 20.4968 48.806 20.7128 49.394C20.9288 49.982 21.0368 50.639 21.0368 51.365C21.0368 52.097 20.9288 52.757 20.7128 53.345C20.4968 53.933 20.1878 54.434 19.7858 54.848C19.3898 55.262 18.9098 55.58 18.3458 55.802C17.7878 56.024 17.1668 56.135 16.4828 56.135C15.7928 56.135 15.1658 56.024 14.6018 55.802C14.0378 55.58 13.5548 55.262 13.1528 54.848C12.7568 54.434 12.4478 53.933 12.2258 53.345C12.0098 52.757 11.9018 52.097 11.9018 51.365C11.9018 50.639 12.0098 49.982 12.2258 49.394C12.4478 48.806 12.7568 48.308 13.1528 47.9C13.5548 47.492 14.0378 47.177 14.6018 46.955C15.1658 46.733 15.7928 46.622 16.4828 46.622ZM16.4828 54.425C17.2508 54.425 17.8178 54.167 18.1838 53.651C18.5558 53.135 18.7418 52.379 18.7418 51.383C18.7418 50.387 18.5558 49.628 18.1838 49.106C17.8178 48.584 17.2508 48.323 16.4828 48.323C15.7028 48.323 15.1238 48.587 14.7458 49.115C14.3738 49.637 14.1878 50.393 14.1878 51.383C14.1878 52.373 14.3738 53.129 14.7458 53.651C15.1238 54.167 15.7028 54.425 16.4828 54.425ZM29.3478 48.719C29.2818 48.803 29.2158 48.869 29.1498 48.917C29.0898 48.965 28.9998 48.989 28.8798 48.989C28.7658 48.989 28.6548 48.956 28.5468 48.89C28.4388 48.818 28.3098 48.74 28.1598 48.656C28.0098 48.566 27.8298 48.488 27.6198 48.422C27.4158 48.35 27.1608 48.314 26.8548 48.314C26.4648 48.314 26.1228 48.386 25.8288 48.53C25.5348 48.668 25.2888 48.869 25.0908 49.133C24.8988 49.397 24.7548 49.718 24.6588 50.096C24.5628 50.468 24.5148 50.891 24.5148 51.365C24.5148 51.857 24.5658 52.295 24.6678 52.679C24.7758 53.063 24.9288 53.387 25.1268 53.651C25.3248 53.909 25.5648 54.107 25.8468 54.245C26.1288 54.377 26.4468 54.443 26.8008 54.443C27.1548 54.443 27.4398 54.401 27.6558 54.317C27.8778 54.227 28.0638 54.131 28.2138 54.029C28.3638 53.921 28.4928 53.825 28.6008 53.741C28.7148 53.651 28.8408 53.606 28.9788 53.606C29.1588 53.606 29.2938 53.675 29.3838 53.813L30.0228 54.623C29.7768 54.911 29.5098 55.154 29.2218 55.352C28.9338 55.544 28.6338 55.7 28.3218 55.82C28.0158 55.934 27.6978 56.015 27.3678 56.063C27.0438 56.111 26.7198 56.135 26.3958 56.135C25.8258 56.135 25.2888 56.03 24.7848 55.82C24.2808 55.604 23.8398 55.292 23.4618 54.884C23.0838 54.476 22.7838 53.978 22.5618 53.39C22.3458 52.796 22.2378 52.121 22.2378 51.365C22.2378 50.687 22.3338 50.06 22.5258 49.484C22.7238 48.902 23.0118 48.401 23.3898 47.981C23.7678 47.555 24.2358 47.222 24.7938 46.982C25.3518 46.742 25.9938 46.622 26.7198 46.622C27.4098 46.622 28.0128 46.733 28.5288 46.955C29.0508 47.177 29.5188 47.495 29.9328 47.909L29.3478 48.719ZM37.2072 50.321C37.2072 50.033 37.1652 49.763 37.0812 49.511C37.0032 49.253 36.8832 49.028 36.7212 48.836C36.5592 48.644 36.3522 48.494 36.1002 48.386C35.8542 48.272 35.5662 48.215 35.2362 48.215C34.5942 48.215 34.0872 48.398 33.7152 48.764C33.3492 49.13 33.1152 49.649 33.0132 50.321H37.2072ZM32.9682 51.662C33.0042 52.136 33.0882 52.547 33.2202 52.895C33.3522 53.237 33.5262 53.522 33.7422 53.75C33.9582 53.972 34.2132 54.14 34.5072 54.254C34.8072 54.362 35.1372 54.416 35.4972 54.416C35.8572 54.416 36.1662 54.374 36.4242 54.29C36.6882 54.206 36.9162 54.113 37.1082 54.011C37.3062 53.909 37.4772 53.816 37.6212 53.732C37.7712 53.648 37.9152 53.606 38.0532 53.606C38.2392 53.606 38.3772 53.675 38.4672 53.813L39.1062 54.623C38.8602 54.911 38.5842 55.154 38.2782 55.352C37.9722 55.544 37.6512 55.7 37.3152 55.82C36.9852 55.934 36.6462 56.015 36.2982 56.063C35.9562 56.111 35.6232 56.135 35.2992 56.135C34.6572 56.135 34.0602 56.03 33.5082 55.82C32.9562 55.604 32.4762 55.289 32.0682 54.875C31.6602 54.455 31.3392 53.939 31.1052 53.327C30.8712 52.709 30.7542 51.995 30.7542 51.185C30.7542 50.555 30.8562 49.964 31.0602 49.412C31.2642 48.854 31.5552 48.371 31.9332 47.963C32.3172 47.549 32.7822 47.222 33.3282 46.982C33.8802 46.742 34.5012 46.622 35.1912 46.622C35.7732 46.622 36.3102 46.715 36.8022 46.901C37.2942 47.087 37.7172 47.36 38.0712 47.72C38.4252 48.074 38.7012 48.512 38.8992 49.034C39.1032 49.55 39.2052 50.141 39.2052 50.807C39.2052 51.143 39.1692 51.371 39.0972 51.491C39.0252 51.605 38.8872 51.662 38.6832 51.662H32.9682ZM38.3502 45.488H36.8652C36.7812 45.488 36.6942 45.473 36.6042 45.443C36.5202 45.407 36.4362 45.347 36.3522 45.263L35.4702 44.327C35.4042 44.267 35.3412 44.195 35.2812 44.111C35.2152 44.195 35.1522 44.267 35.0922 44.327L34.1922 45.263C34.1202 45.341 34.0392 45.398 33.9492 45.434C33.8592 45.47 33.7692 45.488 33.6792 45.488H32.1402L34.2012 42.986H36.2892L38.3502 45.488Z" fill="#2F082C"/>
<defs>
<radialGradient id="paint0_radial" cx="0" cy="0" r="1" gradientUnits="userSpaceOnUse" gradientTransform="translate(13.5836 8.25744) scale(25.4544 25.8942)">
<stop stop-color="white"/>
<stop offset="0.187919" stop-color="white"/>
<stop offset="0.443571" stop-color="white"/>
<stop offset="1" stop-color="#B6B6B7"/>
</radialGradient>
<linearGradient id="paint1_linear" x1="25.6768" y1="19.6683" x2="8.12971" y2="7.95191" gradientUnits="userSpaceOnUse">
<stop stop-color="#515151"/>
<stop offset="0.162071" stop-color="#515151"/>
<stop offset="0.534422" stop-color="#797979"/>
<stop offset="0.668329" stop-color="#797979"/>
<stop offset="0.811518" stop-color="#A8A8A8"/>
<stop offset="0.984293" stop-color="#AFAFAF"/>
<stop offset="1" stop-color="#AFAFAF"/>
</linearGradient>
</defs>
</svg>
