<svg width="32" height="41" viewBox="0 0 32 41" fill="none" xmlns="http://www.w3.org/2000/svg">
<path d="M8.68897 33.3444C9.90153 34.7801 11.0932 36.0687 12.1437 37.1493C11.9332 36.7698 11.7206 36.3724 11.5063 35.9601C10.4483 34.899 9.05774 33.7326 7.83929 32.3177C8.12252 32.6673 8.40638 33.0098 8.68897 33.3444Z" fill="#F2B705"/>
<path d="M12.1437 37.1494C11.9332 36.7699 11.7205 36.3724 11.5062 35.9601C11.5833 36.0378 11.8558 36.2976 12.2286 36.6381C12.4121 37.0667 13.4219 38.2139 13.6026 38.6104C13.1619 38.1808 12.6706 37.6913 12.1437 37.1494Z" fill="#F2B705"/>
<path d="M13.6026 38.6103C13.4219 38.2138 12.4121 37.0667 12.2286 36.638C12.6015 36.9785 13.0748 37.3997 13.5537 37.8C13.6694 38.2645 14.6422 39.2773 14.7573 39.7113C14.4332 39.4095 14.0433 39.04 13.6026 38.6103Z" fill="#F2B705"/>
<path d="M14.7573 39.7113C15.4055 40.3149 15.7903 40.6475 15.7903 40.6475C15.7804 40.4034 15.7708 40.1554 15.7616 39.9039C15.6399 39.9932 14.9581 39.4688 14.1557 38.7672C14.4277 39.1327 14.6997 39.4944 14.7573 39.7113Z" fill="#F2B705"/>
<path d="M14.1556 38.7671C14.958 39.4688 15.6398 39.9932 15.7615 39.9038C15.7523 39.6523 15.7434 39.3972 15.7349 39.1389C15.4915 39.3177 14.5114 38.6006 13.5536 37.8C13.6115 38.0322 13.8836 38.4016 14.1556 38.7671Z" fill="#F2B705"/>
<path d="M15.7903 40.6475C15.7903 40.6475 15.8066 40.6339 15.8368 40.6074C15.8219 40.3674 15.8074 40.1237 15.7931 39.8765C15.7754 39.8924 15.7645 39.9016 15.7616 39.9039C15.7708 40.1554 15.7805 40.4033 15.7903 40.6475Z" fill="#F2B705"/>
<path d="M15.7616 39.9038C15.7645 39.9016 15.7755 39.8923 15.7931 39.8765C15.7789 39.6292 15.765 39.3784 15.7514 39.1242C15.7464 39.1297 15.7409 39.1345 15.735 39.1389C15.7435 39.3972 15.7524 39.6523 15.7616 39.9038Z" fill="#F2B705"/>
<path d="M15.8368 40.6074C15.8835 40.5666 15.9646 40.495 16.0768 40.3945C16.1774 40.0939 16.2815 39.7855 16.3859 39.4737C16.1489 39.6823 15.863 39.806 15.7932 39.8765C15.8074 40.1237 15.822 40.3674 15.8368 40.6074Z" fill="#F2B705"/>
<path d="M15.7931 39.8765C15.863 39.806 16.1488 39.6823 16.3858 39.4737C16.4901 39.1618 16.5948 38.8468 16.6967 38.5329C16.335 38.8498 15.8445 39.0243 15.7514 39.1243C15.7649 39.3784 15.7789 39.6292 15.7931 39.8765Z" fill="#F2B705"/>
<path d="M16.0767 40.3945C16.48 40.0334 17.2833 39.2989 18.3191 38.2765C18.4394 38.0404 18.6244 37.7143 18.8096 37.3856C17.7383 38.3385 16.8663 39.0485 16.3857 39.4736C16.2813 39.7855 16.1772 40.0939 16.0767 40.3945Z" fill="#F2B705"/>
<path d="M16.3858 39.4737C16.8663 39.0485 17.7383 38.3385 18.8096 37.3857C18.9949 37.057 19.1803 36.7257 19.3015 36.4792C18.1947 37.3604 17.2544 38.0438 16.6966 38.5329C16.5948 38.8468 16.4901 39.1618 16.3858 39.4737Z" fill="#F2B705"/>
<path d="M18.319 38.2766C18.5597 37.8044 19.0591 36.9721 19.3014 36.4792C20.408 35.598 21.681 34.519 22.9043 33.2383C22.6235 33.5962 22.2361 34.0871 21.956 34.4303C20.623 35.9437 19.3548 37.2542 18.319 38.2766Z" fill="#F2B705"/>
<path d="M21.956 34.4303C22.0961 34.2587 22.2629 34.0502 22.4299 33.8399C22.5039 33.7589 22.578 33.6772 22.652 33.5949C22.4903 33.7953 22.3287 33.9938 22.1884 34.1646C22.1107 34.2539 22.0332 34.3424 21.956 34.4303Z" fill="#F2B705"/>
<path d="M22.1885 34.1646C22.2663 34.0755 22.3443 33.9857 22.4223 33.8952C22.4928 33.8104 22.5668 33.7208 22.6427 33.6286C22.5658 33.7166 22.4889 33.804 22.4122 33.8908C22.3341 33.9868 22.2586 34.0791 22.1885 34.1646Z" fill="#F2B705"/>
<path d="M22.4122 33.8908C22.4889 33.804 22.5658 33.7166 22.6426 33.6286C22.7186 33.5364 22.7963 33.4415 22.8741 33.3462C22.8 33.4297 22.726 33.5126 22.652 33.5949C22.5712 33.6951 22.4903 33.7948 22.4122 33.8908Z" fill="#F2B705"/>
<path d="M22.4299 33.8398C22.5779 33.6778 22.726 33.5133 22.8741 33.3462C23.0296 33.1554 23.1852 32.9629 23.3262 32.786C23.1865 32.9395 23.0458 33.0902 22.9043 33.2383C22.7639 33.4173 22.5969 33.6294 22.4299 33.8398Z" fill="#F2B705"/>
<path d="M22.4223 33.8952C22.5004 33.8047 22.5787 33.7135 22.657 33.6217C22.7276 33.5377 22.8001 33.4509 22.8735 33.3625C22.7966 33.4519 22.7195 33.5406 22.6427 33.6286C22.5667 33.7208 22.4927 33.8104 22.4223 33.8952Z" fill="#F2B705"/>
<path d="M22.6426 33.6286C22.7195 33.5406 22.7965 33.4519 22.8735 33.3625C22.947 33.2741 23.0214 33.184 23.0958 33.0934C23.022 33.1784 22.9481 33.2626 22.8741 33.3462C22.7963 33.4416 22.7186 33.5364 22.6426 33.6286Z" fill="#F2B705"/>
<path d="M22.657 33.6217C22.7353 33.5299 22.8138 33.4375 22.8922 33.3445C22.9629 33.2608 23.0337 33.1767 23.1045 33.092C23.0275 33.183 22.9505 33.2731 22.8735 33.3625C22.8001 33.4509 22.7276 33.5377 22.657 33.6217Z" fill="#F2B705"/>
<path d="M22.8735 33.3625C22.9505 33.2731 23.0275 33.183 23.1046 33.092C23.1754 33.0074 23.2462 32.9223 23.317 32.8366C23.2434 32.9229 23.1697 33.0085 23.0958 33.0934C23.0214 33.1839 22.947 33.274 22.8735 33.3625Z" fill="#F2B705"/>
<path d="M22.8741 33.3462C23.0297 33.1554 23.1853 32.9629 23.3263 32.786C23.3962 32.7094 23.4657 32.632 23.5351 32.5539C23.3936 32.7294 23.2447 32.9123 23.0959 33.0934C23.0221 33.1784 22.9482 33.2626 22.8741 33.3462Z" fill="#F2B705"/>
<path d="M23.0958 33.0934C23.1696 33.0085 23.2434 32.9229 23.317 32.8366C23.3878 32.751 23.4586 32.665 23.5295 32.5785C23.4593 32.6601 23.3889 32.7411 23.3181 32.8216C23.2447 32.9119 23.1703 33.0029 23.0958 33.0934Z" fill="#F2B705"/>
<path d="M23.3181 32.8215C23.3889 32.7411 23.4593 32.6601 23.5295 32.5785C23.6003 32.4921 23.6711 32.4051 23.742 32.3177C23.6733 32.3971 23.6043 32.4759 23.535 32.5539C23.4642 32.6417 23.3916 32.7312 23.3181 32.8215Z" fill="#F2B705"/>
<path d="M7.83924 32.3177C5.50174 29.4319 3.19178 26.0549 1.76483 22.622C1.98268 22.8436 2.5475 23.1455 3.05788 23.392C4.34795 27.2612 7.68398 31.133 9.73292 34.2716C9.10074 33.6705 8.44846 33.0252 7.83924 32.3177Z" fill="#F2B705"/>
<path d="M9.73292 34.2716C10.3651 34.8727 10.9772 35.4296 11.5062 35.9601C10.626 34.2645 9.0438 32.3082 7.53747 30.2377C7.27298 29.9724 6.71055 29.564 6.11084 29.1058C7.36223 30.9497 8.70845 32.7023 9.73292 34.2716Z" fill="#F2B705"/>
<path d="M6.11076 29.1057C6.71048 29.5639 7.27291 29.9723 7.53739 30.2376C6.0311 28.1671 4.60069 25.9823 4.0241 23.8296C4.0241 23.8296 3.56819 23.6385 3.0578 23.392C3.70283 25.3266 4.85937 27.2618 6.11076 29.1057Z" fill="#F2B705"/>
<path d="M11.5062 35.9601C10.626 34.2645 9.04376 32.3082 7.53743 30.2377C7.34015 30.2769 7.65791 30.4535 8.26527 30.6897C9.84003 32.8478 11.4819 34.8939 12.2422 36.6505C11.8624 36.3039 11.5842 36.0387 11.5062 35.9601Z" fill="#F2B705"/>
<path d="M12.2423 36.6505C11.4819 34.8939 9.84008 32.8478 8.26532 30.6897C8.87271 30.9258 9.7697 31.2216 10.7309 31.4993C11.8876 33.7726 13.092 35.9387 13.5887 37.8291C13.1037 37.4251 12.6222 36.9971 12.2423 36.6505Z" fill="#F2B705"/>
<path d="M7.53746 30.2376C7.1429 30.3162 8.80847 30.944 10.7308 31.4992C9.57406 29.2259 8.46484 26.8455 8.15826 24.5263C5.36843 24.2026 3.07888 23.8296 4.02417 23.8296C4.60076 25.9823 6.03117 28.1671 7.53746 30.2376Z" fill="#F2B705"/>
<path d="M13.5886 37.8291C14.5585 38.6373 15.5417 39.3498 15.7514 39.1242C15.6382 37.039 15.5422 34.7326 15.4654 32.3261C14.8325 32.5374 12.6532 32.0546 10.7308 31.4993C11.8876 33.7726 13.0919 35.9387 13.5886 37.8291Z" fill="#F2B705"/>
<path d="M10.7309 31.4992C12.6533 32.0546 14.8326 32.5374 15.4654 32.326C15.4269 31.1228 15.3933 29.8945 15.3647 28.6563C14.441 28.8578 11.5712 28.4722 9.12573 28.03C9.58598 29.1992 10.1525 30.3626 10.7309 31.4992Z" fill="#F2B705"/>
<path d="M9.12572 28.03C11.5712 28.4722 14.441 28.8578 15.3647 28.6563C15.3361 27.4181 15.3126 26.17 15.2943 24.9271C14.2383 25.1243 10.9481 24.8499 8.15826 24.5263C8.31153 25.6859 8.66551 26.8608 9.12572 28.03Z" fill="#F2B705"/>
<path d="M15.7514 39.1242C15.8445 39.0242 16.335 38.8497 16.6967 38.5328C16.7228 36.4958 16.7594 34.2389 16.7977 31.8818C16.3476 32.0894 15.7808 32.2259 15.4654 32.326C15.5423 34.7326 15.6382 37.039 15.7514 39.1242Z" fill="#F2B705"/>
<path d="M15.4654 32.3261C15.7809 32.2259 16.3476 32.0894 16.7977 31.8819C16.8169 30.7033 16.8366 29.4997 16.8555 28.2859C16.3445 28.4183 15.8331 28.5561 15.3647 28.6563C15.3934 29.8945 15.427 31.1228 15.4654 32.3261Z" fill="#F2B705"/>
<path d="M15.3647 28.6563C15.8331 28.556 16.3444 28.4183 16.8555 28.2859C16.8744 27.0721 16.8927 25.8483 16.9094 24.6292C16.3705 24.7274 15.8322 24.8268 15.2943 24.9271C15.3126 26.17 15.3362 27.4181 15.3647 28.6563Z" fill="#F2B705"/>
<path d="M16.6966 38.5329C17.2544 38.0437 18.1947 37.3604 19.3014 36.4792C19.5923 35.6038 19.9102 34.6324 20.2338 33.6002C18.8043 34.3111 17.5159 34.8595 16.7426 35.3274C16.7254 36.4409 16.7096 37.5144 16.6966 38.5329Z" fill="#F2B705"/>
<path d="M16.7426 35.3274C17.516 34.8595 18.8044 34.3112 20.2339 33.6002C20.5575 32.5681 20.8871 31.4753 21.2014 30.3573C19.5807 30.9515 18.0453 31.4609 16.7977 31.8819C16.7786 33.0604 16.7598 34.2138 16.7426 35.3274Z" fill="#F2B705"/>
<path d="M16.7977 31.8818C18.0452 31.4609 19.5807 30.9515 21.2014 30.3573C21.5157 29.2393 21.8149 28.0961 22.0777 26.963C20.3128 27.4409 18.5772 27.9116 16.8554 28.2859C16.8365 29.4996 16.8168 30.7033 16.7977 31.8818Z" fill="#F2B705"/>
<path d="M16.8555 28.2859C18.5772 27.9116 20.3128 27.4409 22.0777 26.963C22.3406 25.8299 22.5672 24.7071 22.7366 23.63C20.7895 23.939 18.8466 24.2763 16.9093 24.6291C16.8927 25.8482 16.8744 27.0721 16.8555 28.2859Z" fill="#F2B705"/>
<path d="M19.3014 36.4792C20.408 35.598 21.6811 34.519 22.9043 33.2383C23.473 32.5061 24.0321 31.7214 24.571 30.8978C23.2337 32.0158 21.6632 32.8894 20.2338 33.6002C19.9102 34.6324 19.5923 35.6038 19.3014 36.4792Z" fill="#F2B705"/>
<path d="M20.2338 33.6002C21.6632 32.8894 23.2337 32.0159 24.571 30.8978C25.1098 30.0742 25.6285 29.2117 26.1163 28.3237C24.528 29.0841 22.822 29.7631 21.2014 30.3573C20.887 31.4753 20.5575 32.5681 20.2338 33.6002Z" fill="#F2B705"/>
<path d="M21.2014 30.3573C22.0118 30.0602 22.8434 29.7419 23.671 29.4029C24.0571 28.3645 24.4172 27.301 24.7493 26.252C23.8502 26.4833 22.9603 26.7241 22.0778 26.9631C21.8149 28.0961 21.5158 29.2393 21.2014 30.3573Z" fill="#F2B705"/>
<path d="M22.0778 26.963C22.9603 26.7241 23.8502 26.4833 24.7493 26.252C25.0815 25.2031 25.3857 24.1688 25.6599 23.1892C24.6846 23.3281 23.7101 23.4755 22.7366 23.63C22.5673 24.7071 22.3406 25.83 22.0778 26.963Z" fill="#F2B705"/>
<path d="M23.671 29.4029C24.4985 29.0637 25.3221 28.7039 26.1163 28.3237C26.6041 27.4358 27.0611 26.5225 27.4766 25.5973C26.5568 25.7987 25.6484 26.0206 24.7493 26.252C24.4171 27.301 24.057 28.3645 23.671 29.4029Z" fill="#F2B705"/>
<path d="M24.7493 26.252C25.6484 26.0206 26.5569 25.7987 27.4767 25.5973C27.8922 24.6722 28.2663 23.7352 28.5883 22.8001C27.6115 22.9201 26.6353 23.0504 25.6599 23.1892C25.3856 24.1688 25.0815 25.2031 24.7493 26.252Z" fill="#F2B705"/>
<path d="M22.9044 33.2382C23.0459 33.0902 23.1866 32.9394 23.3263 32.786C23.9029 32.0592 24.4742 31.2896 25.028 30.488C24.8759 30.6287 24.7224 30.7677 24.5711 30.8978C24.0322 31.7214 23.473 32.5061 22.9044 33.2382Z" fill="#F2B705"/>
<path d="M24.571 30.8977C24.7224 30.7676 24.8758 30.6287 25.028 30.488C25.5819 29.6864 26.1182 28.8528 26.6249 27.998C26.4584 28.1153 26.2896 28.233 26.1163 28.3237C25.6285 29.2116 25.1099 30.0742 24.571 30.8977Z" fill="#F2B705"/>
<path d="M26.1163 28.3237C26.2897 28.233 26.4584 28.1153 26.6249 27.998C27.6384 26.2884 28.5333 24.4938 29.2121 22.7004C29.0043 22.7318 28.7932 22.7668 28.5882 22.8001C27.9443 24.6704 27.092 26.5478 26.1163 28.3237Z" fill="#F2B705"/>
<path d="M23.3262 32.786C23.466 32.6326 23.6046 32.4765 23.742 32.3177C24.3264 31.5962 24.9091 30.8441 25.4766 30.068C25.3307 30.205 25.18 30.3474 25.028 30.488C24.4741 31.2896 23.9028 32.0592 23.3262 32.786Z" fill="#F2B705"/>
<path d="M25.028 30.488C25.18 30.3474 25.3307 30.205 25.4766 30.068C26.0442 29.292 26.5966 28.4921 27.1208 27.675C26.956 27.7639 26.7914 27.8808 26.6249 27.998C26.1182 28.8528 25.5818 29.6864 25.028 30.488Z" fill="#F2B705"/>
<path d="M26.6249 27.998C27.6384 26.2883 28.5333 24.4938 29.2122 22.7004C29.3161 22.6846 29.4192 22.6698 29.5204 22.6565C28.8176 24.3971 27.9032 26.1483 26.8735 27.8259C26.791 27.8809 26.7083 27.9394 26.6249 27.998Z" fill="#F2B705"/>
<path d="M26.8736 27.8259C27.9033 26.1483 28.8176 24.3971 29.5204 22.6565C29.6216 22.6433 29.7208 22.6315 29.8169 22.622C29.1032 24.3385 28.1689 26.0409 27.1208 27.675C27.0385 27.7195 26.9561 27.7709 26.8736 27.8259Z" fill="#F2B705"/>
<path d="M1.76488 22.622C0.983683 20.7429 0.46725 18.8468 0.355957 17.0052C0.511575 16.9636 0.926346 16.9934 1.31298 16.9967C1.49845 18.9434 2.3098 21.1169 3.05793 23.392C2.54755 23.1455 1.98273 22.8436 1.76488 22.622Z" fill="#F2B705"/>
<path d="M3.05781 23.392C2.30968 21.1169 1.49833 18.9434 1.31287 16.9967C1.6995 17 2.05801 16.9766 2.10114 16.8289C2.36081 18.8807 3.30901 21.1584 4.02411 23.8296C4.02411 23.8296 3.5682 23.6385 3.05781 23.392Z" fill="#F2B705"/>
<path d="M0.355874 17.0052C0.340953 16.758 0.333313 16.5118 0.333313 16.2668C0.484196 16.2194 0.882415 16.2421 1.25604 16.2422C1.26376 16.4912 1.28994 16.7505 1.3129 16.9967C0.926262 16.9935 0.511492 16.9637 0.355874 17.0052Z" fill="#F2B705"/>
<path d="M1.3129 16.9967C1.28994 16.7504 1.26376 16.4911 1.25604 16.2421C1.62967 16.2422 1.97871 16.2196 2.03127 16.0815C2.04675 16.3345 2.07018 16.5837 2.10118 16.8289C2.05805 16.9766 1.69954 17 1.3129 16.9967Z" fill="#F2B705"/>
<path d="M0.333313 16.2668C0.484196 16.2194 0.882415 16.2421 1.25604 16.2421C1.20113 14.3925 1.47524 12.4478 2.15808 10.5347C1.87517 10.5619 1.59282 10.5939 1.27673 10.8447C0.666474 12.5349 0.333313 14.3613 0.333313 16.2668Z" fill="#F2B705"/>
<path d="M1.27679 10.8447C1.88709 9.15459 2.77449 7.60061 3.88295 6.23992C4.1236 6.0128 4.38427 5.79896 4.65814 5.59584C3.40229 7.07004 2.40699 8.7862 1.72992 10.6058C1.58445 10.6486 1.43484 10.7193 1.27679 10.8447Z" fill="#F2B705"/>
<path d="M1.72992 10.6058C2.40698 8.78618 3.40229 7.07002 4.65814 5.59582C4.93201 5.39267 5.2191 5.2002 5.51259 5.01582C3.93253 6.73968 2.84097 8.62144 2.15814 10.5346C2.01669 10.5482 1.87539 10.5631 1.72992 10.6058Z" fill="#F2B705"/>
<path d="M1.25609 16.2421C1.20118 14.3925 1.4753 12.4478 2.15813 10.5347C2.29958 10.521 2.44116 10.5086 2.58715 10.4706C1.87972 12.4568 1.6715 14.4024 1.76413 16.2137C1.62359 16.2366 1.44291 16.2422 1.25609 16.2421Z" fill="#F2B705"/>
<path d="M1.76413 16.2136C1.67149 14.4023 1.87971 12.4568 2.58714 10.4706C2.73309 10.4326 2.88345 10.3692 3.04249 10.2534C2.21184 12.3072 1.92153 14.2876 2.03131 16.0815C2.00501 16.1506 1.90462 16.1907 1.76413 16.2136Z" fill="#F2B705"/>
<path d="M2.15808 10.5347C2.84092 8.62144 3.93247 6.73969 5.51253 5.01583C5.80602 4.83145 6.10588 4.65514 6.40534 4.48428C4.50115 6.45776 3.29448 8.48447 2.5871 10.4706C2.44111 10.5086 2.29953 10.521 2.15808 10.5347Z" fill="#F2B705"/>
<path d="M2.5871 10.4706C3.29448 8.48449 4.50115 6.45778 6.40534 4.4843C6.7048 4.31344 7.00386 4.14805 7.29568 3.9855C5.24411 6.07252 3.87311 8.19961 3.04245 10.2534C2.88341 10.3692 2.73305 10.4327 2.5871 10.4706Z" fill="#F2B705"/>
<path d="M4.02416 23.8297C3.30906 21.1584 2.36087 18.8807 2.1012 16.8289C2.22363 16.7576 2.89946 16.7641 3.89612 16.8119C4.11365 18.9192 4.08122 21.3981 4.69057 24.0566C3.88761 23.9228 3.55154 23.8297 4.02416 23.8297Z" fill="#F2B705"/>
<path d="M4.69063 24.0566C4.08128 21.3981 4.11371 18.9192 3.89618 16.8119C4.89288 16.8597 6.21044 16.9487 7.6163 17.0422C7.74108 19.2716 7.7817 21.8961 8.15831 24.5263C6.7634 24.3645 5.49359 24.1903 4.69063 24.0566Z" fill="#F2B705"/>
<path d="M8.15829 24.5263C7.78168 21.896 7.74105 19.2716 7.61627 17.0421C9.02217 17.1356 10.5164 17.2337 11.8664 17.2996C11.8985 19.6512 12.2326 22.32 12.3765 24.922C11.0732 24.8376 9.5532 24.6881 8.15829 24.5263Z" fill="#F2B705"/>
<path d="M12.3764 24.922C12.2325 22.32 11.8984 19.6513 11.8663 17.2996C13.2164 17.3655 14.4222 17.3993 15.2513 17.3643C15.2412 19.7714 15.2561 22.3379 15.2942 24.9271C14.7662 25.0257 13.6796 25.0064 12.3764 24.922Z" fill="#F2B705"/>
<path d="M2.10124 16.8289C2.06614 16.5512 2.04075 16.2683 2.02563 15.9807C2.22152 15.8858 2.93197 15.8665 3.94112 15.8884C3.95346 16.1871 3.86683 16.5204 3.89616 16.8119C2.8995 16.7641 2.22367 16.7576 2.10124 16.8289Z" fill="#F2B705"/>
<path d="M3.89611 16.8119C3.86679 16.5204 3.95341 16.1871 3.94108 15.8884C4.95023 15.9104 6.25804 15.9737 7.64858 16.044C7.65479 16.367 7.59952 16.7203 7.61623 17.0421C6.21038 16.9486 4.89281 16.8597 3.89611 16.8119Z" fill="#F2B705"/>
<path d="M7.61626 17.0422C7.59955 16.7203 7.65482 16.367 7.64861 16.0441C9.03915 16.1145 10.5125 16.192 11.8527 16.2423C11.8527 16.5895 11.8623 16.9475 11.8664 17.2996C10.5164 17.2337 9.02216 17.1357 7.61626 17.0422Z" fill="#F2B705"/>
<path d="M11.8664 17.2996C11.8623 16.9474 11.8527 16.5894 11.8527 16.2423C13.1928 16.2927 14.3998 16.3159 15.2578 16.2778C15.2551 16.636 15.2529 16.9983 15.2514 17.3643C14.4223 17.3993 13.2165 17.3655 11.8664 17.2996H11.8664Z" fill="#F2B705"/>
<path d="M2.02553 15.9807C1.93167 14.1968 2.233 12.2317 3.06588 10.1958C3.453 9.98799 4.21024 9.80596 5.17654 9.6483C4.29483 11.8443 3.86442 13.9989 3.94102 15.8885C2.93187 15.8665 2.22142 15.8858 2.02553 15.9807Z" fill="#F2B705"/>
<path d="M3.94108 15.8885C3.86448 13.9989 4.29489 11.8443 5.17659 9.6483C6.14289 9.4906 7.31829 9.35726 8.54183 9.24696C7.93853 11.573 7.60995 13.9223 7.64858 16.0441C6.25804 15.9737 4.95023 15.9104 3.94108 15.8885Z" fill="#F2B705"/>
<path d="M3.06592 10.1958C3.8988 8.15983 5.26328 6.05302 7.29567 3.98551C7.87398 3.66485 8.48531 3.39073 9.11984 3.15936C7.39124 5.21473 6.05824 7.45225 5.17658 9.64831C4.21028 9.80597 3.45303 9.988 3.06592 10.1958Z" fill="#F2B705"/>
<path d="M5.17664 9.6483C6.0583 7.45223 7.3913 5.21471 9.11989 3.15935C9.75442 2.92794 10.4122 2.73927 11.0835 2.58947C10.0232 4.6182 9.14516 6.92093 8.54187 9.24697C7.31833 9.35727 6.14293 9.4906 5.17664 9.6483Z" fill="#F2B705"/>
<path d="M7.64857 16.044C7.5713 11.8005 8.96287 6.6469 11.0834 2.58943C11.7547 2.43963 12.4394 2.32876 13.1278 2.25294C12.3438 6.2571 11.8513 11.5342 11.8526 16.2423C10.5124 16.1919 9.03911 16.1144 7.64857 16.044Z" fill="#F2B705"/>
<path d="M11.8527 16.2423C11.8514 11.5342 12.3439 6.25711 13.1278 2.25296C13.8162 2.17718 14.5083 2.13646 15.1943 2.12699C15.0179 6.1069 15.291 11.3586 15.2578 16.2778C14.3998 16.3159 13.1928 16.2927 11.8527 16.2423Z" fill="#F2B705"/>
<path d="M15.2942 24.9271C15.2503 21.9442 15.2372 18.9915 15.2577 16.2778C17.6985 15.9884 20.1835 15.7967 22.6374 15.7466C22.59 18.2676 22.2624 21.2229 21.9244 23.7605C19.7079 24.1212 17.4971 24.5162 15.2942 24.9271Z" fill="#F2B705"/>
<path d="M21.9244 23.7605C22.2624 21.2229 22.5901 18.2676 22.6374 15.7466C23.8644 15.7216 25.0835 15.732 26.2855 15.7833C26.2196 18.1717 25.8537 21.0162 25.253 23.2476C24.1423 23.4085 23.0326 23.5803 21.9244 23.7605Z" fill="#F2B705"/>
<path d="M25.2531 23.2476C25.8537 21.0162 26.2196 18.1717 26.2855 15.7833C27.4874 15.8346 28.6721 15.9268 29.8301 16.0654C29.7558 18.3936 29.3083 20.7077 28.5882 22.8001C27.4756 22.9368 26.3637 23.0868 25.2531 23.2476Z" fill="#F2B705"/>
<path d="M15.2578 16.2779C15.291 11.3586 15.0179 6.10693 15.1943 2.12702C17.1729 2.09981 19.2553 2.30435 21.2463 2.82626C22.3194 6.3034 22.7148 11.3811 22.6374 15.7466C20.1836 15.7967 17.6986 15.9884 15.2578 16.2779Z" fill="#F2B705"/>
<path d="M22.6374 15.7466C22.7148 11.3811 22.3194 6.30339 21.2463 2.82625C22.2417 3.08721 23.2144 3.4275 24.1399 3.85786C26.0719 6.98936 26.3932 11.7984 26.2855 15.7833C25.0835 15.732 23.8644 15.7216 22.6374 15.7466Z" fill="#F2B705"/>
<path d="M26.2856 15.7832C26.3933 11.7984 26.072 6.98934 24.14 3.85784C25.0653 4.2882 25.9434 4.80861 26.7499 5.42978C29.0725 8.40415 29.9517 12.2535 29.8302 16.0654C28.6722 15.9267 27.4875 15.8345 26.2856 15.7832Z" fill="#F2B705"/>
<path d="M28.5883 22.8001C29.2972 20.7401 29.7419 18.465 29.8264 16.1734C29.9461 16.1785 30.0665 16.1836 30.1869 16.1894C30.1157 18.4465 29.6357 20.6784 28.8991 22.7496C28.7948 22.7664 28.6908 22.7835 28.5883 22.8001Z" fill="#F2B705"/>
<path d="M28.8991 22.7496C29.6357 20.6784 30.1157 18.4465 30.1869 16.1894C30.3073 16.1951 30.4275 16.2014 30.547 16.2086C30.5049 18.3897 30.0097 20.6047 29.2122 22.7004C29.1082 22.7161 29.0035 22.7327 28.8991 22.7496Z" fill="#F2B705"/>
<path d="M29.2122 22.7004C29.42 22.6689 29.6247 22.641 29.8168 22.622C30.2598 21.5563 30.6177 20.4852 30.8649 19.4216C30.6555 19.4184 30.4108 19.4506 30.1628 19.4865C29.9341 20.5749 29.6109 21.6525 29.2122 22.7004Z" fill="#F2B705"/>
<path d="M30.1629 19.4865C30.4109 19.4506 30.6556 19.4184 30.865 19.4216C31.1121 18.3581 31.2485 17.3021 31.2485 16.2667C31.0219 16.2412 30.7861 16.223 30.5471 16.2085C30.526 17.2991 30.3917 18.3982 30.1629 19.4865Z" fill="#F2B705"/>
<path d="M29.8264 16.1733C30.0659 16.1835 30.3081 16.1941 30.547 16.2086C30.5825 14.2941 30.3244 12.4129 29.7722 10.6526C29.5989 10.6009 29.4225 10.5532 29.2205 10.4848C29.7143 12.3145 29.8973 14.2498 29.8264 16.1733Z" fill="#F2B705"/>
<path d="M29.2205 10.4848C29.4224 10.5532 29.5989 10.6009 29.7722 10.6526C29.2201 8.89234 28.3741 7.25292 27.2337 5.82187C27.0756 5.68696 26.9142 5.55634 26.7498 5.42981C27.922 6.93104 28.7267 8.65514 29.2205 10.4848Z" fill="#F2B705"/>
<path d="M30.5471 16.2086C30.786 16.223 31.0218 16.2413 31.2485 16.2668C31.2485 14.3613 30.9152 12.535 30.3048 10.8449C30.1157 10.7602 29.9456 10.7044 29.7723 10.6526C30.3244 12.4129 30.5826 14.2941 30.5471 16.2086Z" fill="#F2B705"/>
<path d="M29.7723 10.6526C29.9456 10.7044 30.1157 10.7602 30.3048 10.8449C29.9997 9.9998 29.6252 9.18879 29.1885 8.41891C29.025 8.29359 28.876 8.20154 28.7236 8.11379C29.1466 8.92253 29.4962 9.77248 29.7723 10.6526Z" fill="#F2B705"/>
<path d="M28.7235 8.11377C28.8759 8.20153 29.025 8.29357 29.1884 8.41889C28.7517 7.64905 28.2527 6.92033 27.6985 6.23991C27.5468 6.09609 27.3918 5.95681 27.2337 5.82186C27.8039 6.53738 28.3005 7.30499 28.7235 8.11377Z" fill="#F2B705"/>
<path d="M3.88287 6.2399C4.03746 6.05018 4.19626 5.86419 4.35924 5.68212C4.59587 5.45026 4.84929 5.23047 5.11433 5.02076C4.96436 5.21303 4.81595 5.40776 4.65806 5.59582C4.38419 5.79894 4.12352 6.01278 3.88287 6.2399Z" fill="#F2B705"/>
<path d="M4.65814 5.59584C4.93202 5.39269 5.2191 5.20022 5.51259 5.01584C5.59519 4.92367 5.66972 4.8262 5.73967 4.72606C5.44749 4.91169 5.16176 5.10542 4.88924 5.30987C4.81364 5.40608 4.73709 5.50181 4.65814 5.59584Z" fill="#F2B705"/>
<path d="M4.88928 5.30985C5.1618 5.1054 5.44754 4.91168 5.73971 4.72605C5.80966 4.62586 5.87504 4.52301 5.93942 4.42004C5.65619 4.61145 5.37949 4.81105 5.11445 5.02076C5.03945 5.1169 4.96488 5.21364 4.88928 5.30985Z" fill="#F2B705"/>
<path d="M4.35931 5.68212C4.83258 5.21841 5.37296 4.80287 5.93937 4.42003C6.06813 4.21408 6.19287 4.0076 6.34197 3.82113C5.82072 4.23124 5.32597 4.67447 4.86075 5.14765C4.68949 5.32183 4.52233 5.50005 4.35931 5.68212Z" fill="#F2B705"/>
<path d="M5.51257 5.01582C5.80606 4.83145 6.10592 4.65513 6.40538 4.48427C6.49168 4.39393 6.56422 4.2948 6.62868 4.19085C6.33042 4.36288 6.03183 4.54046 5.73966 4.72605C5.66971 4.82619 5.59518 4.92366 5.51257 5.01582Z" fill="#F2B705"/>
<path d="M5.73962 4.72604C6.0318 4.54045 6.33038 4.36288 6.62865 4.19085C6.69311 4.0869 6.74945 3.9781 6.80341 3.8684C6.5123 4.04541 6.22255 4.22865 5.93933 4.42003C5.87495 4.52301 5.80957 4.62586 5.73962 4.72604Z" fill="#F2B705"/>
<path d="M6.4054 4.48426C6.70485 4.31341 7.00392 4.14802 7.29574 3.98546C7.38367 3.89596 7.4547 3.79529 7.51569 3.68843C7.22491 3.8522 6.92696 4.01877 6.6287 4.19084C6.56424 4.29479 6.4917 4.39392 6.4054 4.48426Z" fill="#F2B705"/>
<path d="M6.62872 4.19083C6.92699 4.01876 7.22494 3.85219 7.51572 3.68842C7.57676 3.58156 7.62777 3.46846 7.67576 3.35416C7.38704 3.5206 7.09458 3.69138 6.80348 3.86839C6.74953 3.97808 6.69318 4.08688 6.62872 4.19083Z" fill="#F2B705"/>
<path d="M5.93933 4.42003C6.06809 4.21408 6.19283 4.00761 6.34192 3.82113C6.60255 3.61607 6.86978 3.41926 7.14329 3.23116C7.00944 3.42614 6.91124 3.64906 6.80341 3.8684C6.5123 4.04541 6.22256 4.22865 5.93933 4.42003Z" fill="#F2B705"/>
<path d="M6.80347 3.86845C7.09457 3.69144 7.38703 3.52066 7.67574 3.35422C7.72369 3.23991 7.76857 3.12439 7.81731 3.01259C7.53075 3.1817 7.2453 3.35746 6.96366 3.5407C6.90891 3.64821 6.85738 3.75875 6.80347 3.86845Z" fill="#F2B705"/>
<path d="M6.96368 3.54064C7.24532 3.35739 7.53077 3.18164 7.81734 3.01253C7.86612 2.90073 7.91876 2.79265 7.98222 2.69324C7.69661 2.86361 7.41689 3.04305 7.14338 3.23115C7.07645 3.32866 7.01843 3.43313 6.96368 3.54064Z" fill="#F2B705"/>
<path d="M7.29572 3.98549C7.87402 3.66483 8.48535 3.39071 9.11988 3.15934C9.19508 3.06227 9.25274 2.95631 9.30041 2.84548C8.6847 3.08685 8.08801 3.36756 7.51567 3.68846C7.45468 3.79532 7.38365 3.89599 7.29572 3.98549Z" fill="#F2B705"/>
<path d="M7.51569 3.68849C8.08802 3.36758 8.68471 3.08687 9.30042 2.8455C9.34813 2.73468 9.38581 2.61903 9.42098 2.50258C8.81816 2.7488 8.23481 3.03283 7.67572 3.35422C7.62773 3.46853 7.57672 3.58163 7.51569 3.68849Z" fill="#F2B705"/>
<path d="M9.11981 3.15934C9.27022 2.96521 9.35051 2.73546 9.4209 2.50256C10.0237 2.25629 10.646 2.04783 11.2828 1.87767C11.2327 2.11948 11.1776 2.36202 11.0834 2.58946C10.4121 2.73927 9.75434 2.92793 9.11981 3.15934Z" fill="#F2B705"/>
<path d="M7.67566 3.3542C8.23475 3.03281 8.81811 2.74878 9.42092 2.50256C9.4561 2.38606 9.48877 2.2688 9.52645 2.15477C8.93457 2.40436 8.36319 2.69069 7.81723 3.01257C7.76849 3.12437 7.72361 3.23989 7.67566 3.3542Z" fill="#F2B705"/>
<path d="M7.81726 3.01258C8.36322 2.6907 8.9346 2.40436 9.52647 2.15478C9.56416 2.04079 9.60685 1.93009 9.66208 1.82667C9.0829 2.08139 8.5221 2.37117 7.98215 2.69329C7.91868 2.7927 7.86604 2.90078 7.81726 3.01258Z" fill="#F2B705"/>
<path d="M9.42096 2.50257C9.49131 2.26963 9.55167 2.03352 9.66209 1.82668C10.2413 1.57192 10.8388 1.35221 11.4521 1.1701C11.378 1.39471 11.3329 1.63583 11.2829 1.87768C10.646 2.04785 10.0238 2.25631 9.42096 2.50257Z" fill="#F2B705"/>
<path d="M11.0835 2.58944C11.1777 2.362 11.2328 2.11946 11.2829 1.87765C11.9198 1.70744 12.5712 1.57553 13.2325 1.48235C13.1993 1.73501 13.1659 1.99224 13.1278 2.25295C12.4395 2.32877 11.7548 2.43964 11.0835 2.58944Z" fill="#F2B705"/>
<path d="M13.1278 2.25296C13.1658 1.99224 13.1993 1.73501 13.2325 1.48235C13.8938 1.38917 14.5649 1.33473 15.2409 1.31947C15.2227 1.58212 15.2068 1.85114 15.1943 2.12699C14.5083 2.13646 13.8162 2.17718 13.1278 2.25296Z" fill="#F2B705"/>
<path d="M11.2829 1.87766C11.333 1.6358 11.378 1.39468 11.4521 1.17007C12.0654 0.987963 12.6944 0.843535 13.3367 0.739346C13.2989 0.981643 13.2657 1.22969 13.2325 1.48235C12.5712 1.57553 11.9197 1.70745 11.2829 1.87766Z" fill="#F2B705"/>
<path d="M13.2325 1.48247C13.2658 1.22981 13.299 0.981756 13.3368 0.739458C13.979 0.635269 14.6345 0.571314 15.3007 0.550266C15.2795 0.80066 15.2591 1.05697 15.2409 1.31959C14.5649 1.33485 13.8938 1.38929 13.2325 1.48247Z" fill="#F2B705"/>
<path d="M15.1942 2.12699C15.3595 2.12473 15.5255 2.12407 15.6921 2.12509C15.7144 1.5714 15.7527 1.046 15.7903 0.542542C15.6267 0.542542 15.4631 0.544804 15.3006 0.550151C15.2581 1.05094 15.2193 1.57529 15.1942 2.12699V2.12699Z" fill="#F2B705"/>
<path d="M15.6921 2.12509C19.5146 2.14829 23.6588 3.04891 26.7498 5.4298C26.4493 5.04575 26.2177 4.71043 25.8854 4.35844C23.1768 1.98031 19.6485 0.542542 15.7903 0.542542C15.7527 1.046 15.7144 1.5714 15.6921 2.12509Z" fill="#F2B705"/>
<path d="M26.7498 5.42979C27.0788 5.68285 27.395 5.95227 27.6985 6.2399C27.3893 5.86047 27.0632 5.49601 26.7208 5.14766C26.4517 4.87452 26.173 4.61141 25.8854 4.35843C26.2177 4.71042 26.4493 5.04574 26.7498 5.42979Z" fill="#F2B705"/>
<g opacity="0.98">
<g opacity="0.98">
<g opacity="0.98">
<g opacity="0.98">
<path opacity="0.98" d="M2.50543 16.2291C2.50543 23.693 8.45336 29.7433 15.7904 29.7433C23.1277 29.7433 29.0754 23.693 29.0754 16.2291C29.0754 8.76498 23.1277 2.71435 15.7904 2.71435C8.45336 2.71435 2.50543 8.76498 2.50543 16.2291Z" fill="#F28705"/>
</g>
</g>
</g>
</g>
<path d="M3.47424 16.2291C3.47424 23.149 8.98799 28.7583 15.7903 28.7583C22.5925 28.7583 28.1071 23.149 28.1071 16.2291C28.1071 9.30945 22.5925 3.69976 15.7903 3.69976C8.98799 3.69976 3.47424 9.30945 3.47424 16.2291Z" fill="#F28705"/>
<path d="M3.97327 16.2291C3.97327 22.8683 9.26382 28.2503 15.7903 28.2503C22.3171 28.2503 27.6081 22.8683 27.6081 16.2291C27.6081 9.58961 22.3171 4.20723 15.7903 4.20723C9.26382 4.20723 3.97327 9.58961 3.97327 16.2291Z" fill="url(#paint0_radial)"/>
<g opacity="0.0546112">
<g opacity="0.0546112">
<path opacity="0.0546112" d="M12.5293 2.15229C12.5057 2.34909 10.779 2.92664 10.0167 3.28973C8.49039 4.0165 7.0816 5.00679 5.90847 6.20011C4.574 7.55764 3.52987 9.19918 2.78734 10.9807C2.53016 11.5986 2.03682 12.9213 1.92958 12.9347C1.74794 12.9576 1.79585 11.2428 1.96421 10.5549C2.44671 8.58392 3.60558 6.72883 5.01706 5.29296C6.42821 3.857 8.25187 2.67853 10.1895 2.18769C10.8657 2.01642 12.5447 2.02281 12.5293 2.15229Z" fill="white"/>
</g>
</g>
<g opacity="0.109238">
<g opacity="0.109238">
<path opacity="0.109238" d="M12.3815 2.17311C12.3569 2.3656 10.6655 2.94166 9.91794 3.3016C8.42089 4.02223 7.03728 4.99968 5.88274 6.17409C4.56953 7.50999 3.53828 9.12185 2.80096 10.8684C2.54566 11.4742 2.05484 12.7708 1.94997 12.7845C1.77224 12.8082 1.83001 11.1313 1.99894 10.4577C2.48315 8.52739 3.62792 6.70605 5.01699 5.29297C6.40574 3.87981 8.19631 2.7156 10.0938 2.22302C10.756 2.05117 12.3973 2.04636 12.3815 2.17311Z" fill="white"/>
</g>
</g>
<g opacity="0.163849">
<g opacity="0.163849">
<path opacity="0.163849" d="M12.2339 2.19401C12.2085 2.38227 10.5519 2.95675 9.81908 3.31362C8.35145 4.02795 6.99302 4.99255 5.85714 6.14807C4.56504 7.46258 3.54666 9.04451 2.81464 10.7563C2.56121 11.3501 2.07301 12.6203 1.97033 12.6345C1.79651 12.6587 1.86407 11.0197 2.03365 10.3604C2.51957 8.47094 3.65024 6.68334 5.01698 5.29314C6.3834 3.9027 8.14064 2.75282 9.99811 2.2585C10.6463 2.08599 12.2501 2.06999 12.2339 2.19401Z" fill="white"/>
</g>
</g>
<g opacity="0.21846">
<g opacity="0.21846">
<path opacity="0.21846" d="M12.0862 2.21486C12.0602 2.39889 10.4384 2.9718 9.72029 3.32544C8.282 4.03372 6.94883 4.98547 5.83152 6.122C4.56053 7.41496 3.55503 8.96714 2.82839 10.6441C2.57675 11.2258 2.09115 12.4697 1.99084 12.4843C1.82077 12.5093 1.89826 10.9082 2.06841 10.2631C2.55605 8.41437 3.67262 6.66059 5.01695 5.2931C6.36096 3.92546 8.08504 2.78992 9.90242 2.29386C10.5366 2.12069 12.103 2.09366 12.0862 2.21486Z" fill="white"/>
</g>
</g>
<g opacity="0.273071">
<g opacity="0.273071">
<path opacity="0.273071" d="M11.9386 2.23575C11.9118 2.41547 10.3249 2.98689 9.62153 3.33746C8.21266 4.03953 6.90467 4.97834 5.80586 6.09605C4.55605 7.36746 3.56343 8.88988 2.84217 10.5319C2.59232 11.1016 2.10933 12.3193 2.0113 12.3343C1.84522 12.3598 1.93242 10.7967 2.10322 10.1658C2.59256 8.35792 3.69495 6.63796 5.01704 5.29319C6.33864 3.94834 8.02947 2.82715 9.80668 2.32926C10.4269 2.15551 11.9559 2.11729 11.9386 2.23575Z" fill="white"/>
</g>
</g>
<g opacity="0.327698">
<g opacity="0.327698">
<path opacity="0.327698" d="M11.7909 2.2566C11.7635 2.43209 10.2113 3.00193 9.52274 3.34936C8.14321 4.0452 6.8604 4.97125 5.78025 6.0699C4.55163 7.31983 3.5718 8.8124 2.85584 10.4196C2.60786 10.9773 2.12748 12.1687 2.03165 12.1841C1.86949 12.2104 1.96654 10.6851 2.13791 10.0685C2.62897 8.30134 3.71734 6.61512 5.01694 5.29323C6.31621 3.97117 7.97387 2.86432 9.71099 2.36462C10.3172 2.1902 11.8087 2.14087 11.7909 2.2566Z" fill="white"/>
</g>
</g>
<g opacity="0.382309">
<g opacity="0.382309">
<path opacity="0.382309" d="M11.6433 2.27747C11.6151 2.44873 10.0979 3.017 9.42394 3.36136C8.07382 4.05098 6.81619 4.9641 5.75462 6.04393C4.54719 7.27231 3.58023 8.73512 2.86956 10.3074C2.62338 10.853 2.14561 12.0181 2.05206 12.034C1.89381 12.0609 2.00072 10.5737 2.17266 9.97129C2.66543 8.24486 3.73971 6.59246 5.01698 5.29329C6.29384 3.99403 7.91834 2.90144 9.61528 2.40007C10.2075 2.22499 11.6616 2.16456 11.6433 2.27747Z" fill="white"/>
</g>
</g>
<g opacity="0.43692">
<g opacity="0.43692">
<path opacity="0.43692" d="M11.4955 2.29839C11.4667 2.46543 9.98424 3.03212 9.32499 3.37332C8.00437 4.05673 6.77184 4.95709 5.72885 6.01793C4.54261 7.22475 3.58853 8.65789 2.88315 10.1953C2.63885 10.7288 2.16368 11.8677 2.07241 11.8839C1.91807 11.9115 2.03476 10.4622 2.20744 9.874C2.70184 8.18844 3.76202 6.5697 5.01688 5.2934C6.27141 4.01686 7.86266 2.93869 9.5195 2.43542C10.0978 2.25976 11.5143 2.18822 11.4955 2.29839Z" fill="white"/>
</g>
</g>
<g opacity="0.491531">
<g opacity="0.491531">
<path opacity="0.491531" d="M11.3478 2.31923C11.3183 2.48196 9.87068 3.04715 9.22626 3.38521C7.9349 4.06249 6.72763 4.94991 5.70322 5.99185C4.53817 7.17712 3.59688 8.58042 2.8968 10.083C2.65437 10.6044 2.18181 11.7171 2.09283 11.7337C1.94231 11.7619 2.06895 10.3506 2.24212 9.77663C2.73831 8.13186 3.78439 6.54702 5.01684 5.29344C6.24896 4.03961 7.80704 2.9757 9.4238 2.47077C9.98803 2.29444 11.3672 2.21179 11.3478 2.31923Z" fill="white"/>
</g>
</g>
<g opacity="0.546158">
<g opacity="0.546158">
<path opacity="0.546158" d="M11.2002 2.34006C11.1699 2.49864 9.75717 3.06218 9.12734 3.39717C7.86547 4.06823 6.6833 4.9428 5.67756 5.96576C4.53361 7.12956 3.6052 8.50317 2.9105 9.97088C2.66986 10.4802 2.19991 11.5666 2.1132 11.5836C1.9666 11.6125 2.10294 10.2391 2.27683 9.67941C2.77465 8.07542 3.80672 6.52424 5.01676 5.29345C6.22655 4.06242 7.75139 3.01294 9.32805 2.5061C9.87827 2.32928 11.2199 2.23544 11.2002 2.34006Z" fill="white"/>
</g>
</g>
<g opacity="0.600769">
<g opacity="0.600769">
<path opacity="0.600769" d="M11.0527 2.36091C11.0216 2.51519 9.64371 3.07723 9.0287 3.40907C7.79617 4.074 6.63918 4.93572 5.65202 5.9397C4.52926 7.08203 3.61372 8.4258 2.92432 9.85861C2.68555 10.3559 2.21813 11.416 2.13379 11.4334C1.99102 11.463 2.13729 10.1275 2.31168 9.58206C2.81121 8.01877 3.8291 6.50149 5.01689 5.29351C6.20419 4.08527 7.69594 3.05004 9.23251 2.54155C9.76871 2.36398 11.073 2.25903 11.0527 2.36091Z" fill="white"/>
</g>
</g>
<g opacity="0.65538">
<g opacity="0.65538">
<path opacity="0.65538" d="M10.9049 2.38177C10.8732 2.53182 9.5301 3.09229 8.92985 3.42106C7.72665 4.07969 6.59484 4.92856 5.62634 5.91364C4.52468 7.03441 3.62202 8.34851 2.938 9.74641C2.70094 10.2317 2.23629 11.2655 2.15407 11.2833C2.01529 11.3136 2.17134 10.0161 2.34638 9.48479C2.84763 7.96229 3.85142 6.47875 5.0168 5.29356C6.18185 4.10812 7.64027 3.08724 9.13675 2.57692C9.65893 2.39877 10.9257 2.28271 10.9049 2.38177Z" fill="white"/>
</g>
</g>
<g opacity="0.710007">
<g opacity="0.710007">
<path opacity="0.710007" d="M10.7572 2.40268C10.7248 2.5485 9.41656 3.1074 8.83097 3.43302C7.6572 4.08551 6.55057 4.92153 5.60064 5.8877C4.52017 6.98693 3.63039 8.27118 2.95166 9.63427C2.71648 10.1075 2.25435 11.115 2.17449 11.1332C2.03955 11.1642 2.20546 9.9046 2.38107 9.38757C2.88402 7.90585 3.8738 6.45605 5.01677 5.29366C6.15934 4.13093 7.58467 3.12439 9.04097 2.61233C9.54922 2.43352 10.7785 2.30635 10.7572 2.40268Z" fill="white"/>
</g>
</g>
<g opacity="0.0569305">
<g opacity="0.0569305">
<path opacity="0.0569305" d="M19.801 28.0868C19.8211 27.9464 21.0572 27.5065 21.6049 27.2355C22.7013 26.6931 23.7184 25.9652 24.5715 25.0975C25.5424 24.1101 26.3111 22.9261 26.868 21.6474C27.0613 21.2043 27.4339 20.2561 27.5098 20.2446C27.6399 20.2254 27.5771 21.4446 27.4457 21.9363C27.0702 23.3447 26.2163 24.6823 25.1898 25.7265C24.1635 26.7709 22.8483 27.6392 21.4638 28.0211C20.9806 28.1547 19.7878 28.1789 19.801 28.0868Z" fill="white"/>
</g>
</g>
<g opacity="0.113846">
<g opacity="0.113846">
<path opacity="0.113846" d="M20.0264 27.9866C20.0466 27.8531 21.2242 27.4251 21.7466 27.1631C22.7925 26.6389 23.7644 25.9391 24.5817 25.1077C25.5118 24.1618 26.2516 23.0308 26.7907 21.8117C26.9779 21.3891 27.3394 20.4853 27.4115 20.4739C27.5353 20.4545 27.4659 21.613 27.3371 22.0813C26.9692 23.4221 26.1474 24.6999 25.164 25.7002C24.1808 26.7007 22.9246 27.5363 21.6065 27.9106C21.1463 28.0414 20.0131 28.0744 20.0264 27.9866Z" fill="white"/>
</g>
</g>
<g opacity="0.170776">
<g opacity="0.170776">
<path opacity="0.170776" d="M20.2517 27.8865C20.2723 27.7599 21.3913 27.3436 21.8883 27.0907C22.8836 26.5846 23.8104 25.9128 24.5918 25.1179C25.4812 24.2134 26.1919 23.1354 26.7133 21.9758C26.8943 21.5738 27.2447 20.7144 27.3131 20.7029C27.4305 20.6834 27.3544 21.7815 27.2284 22.226C26.8681 23.4995 26.0785 24.7174 25.1382 25.6738C24.198 26.6305 23.0008 27.4334 21.7489 27.8C21.312 27.9281 20.2385 27.9696 20.2517 27.8865Z" fill="white"/>
</g>
</g>
<g opacity="0.227692">
<g opacity="0.227692">
<path opacity="0.227692" d="M20.477 27.7864C20.4975 27.6665 21.5584 27.2623 22.03 27.0184C22.9747 26.5304 23.8564 25.8867 24.6021 25.1281C25.4506 24.2652 26.1321 23.2402 26.636 22.14C26.8109 21.7585 27.1502 20.9437 27.2149 20.932C27.3258 20.9125 27.2432 21.9499 27.1199 22.371C26.767 23.5771 26.0096 24.7348 25.1124 25.6474C24.2153 26.5602 23.077 27.3306 21.8915 27.6894C21.4777 27.8149 20.4636 27.865 20.477 27.7864Z" fill="white"/>
</g>
</g>
<g opacity="0.284622">
<g opacity="0.284622">
<path opacity="0.284622" d="M20.7024 27.6863C20.723 27.5732 21.7254 27.1807 22.1718 26.9459C23.066 26.476 23.9025 25.8605 24.6122 25.1384C25.4201 24.3169 26.0724 23.3448 26.5585 22.304C26.7275 21.9433 27.0556 21.1728 27.1166 21.1611C27.2211 21.1415 27.1319 22.1183 27.0113 22.5158C26.6661 23.6544 25.9407 24.7522 25.0865 25.6211C24.2324 26.4899 23.1533 27.2277 22.0341 27.5788C21.6434 27.7016 20.6889 27.7604 20.7024 27.6863Z" fill="white"/>
</g>
</g>
<g opacity="0.341537">
<g opacity="0.341537">
<path opacity="0.341537" d="M20.9278 27.5862C20.9485 27.48 21.8925 27.0994 22.3136 26.8736C23.1571 26.4219 23.9484 25.8344 24.6225 25.1486C25.3896 24.3687 26.0128 23.4496 26.4813 22.4683C26.6439 22.1281 26.961 21.4021 27.0182 21.3904C27.1164 21.3705 27.0207 22.2868 26.9027 22.6608C26.5651 23.7319 25.8718 24.7698 25.0608 25.5948C24.2498 26.4197 23.2296 27.1248 22.1767 27.4683C21.8091 27.5883 20.9142 27.6557 20.9278 27.5862Z" fill="white"/>
</g>
</g>
<g opacity="0.398468">
<g opacity="0.398468">
<path opacity="0.398468" d="M21.1531 27.4861C21.174 27.3867 22.0595 27.018 22.4552 26.8012C23.2483 26.3676 23.9944 25.8082 24.6326 25.1589C25.359 24.4204 25.9532 23.5542 26.404 22.6324C26.5604 22.3129 26.8664 21.6313 26.92 21.6194C27.0117 21.5995 26.9095 22.4553 26.7942 22.8057C26.464 23.8093 25.8029 24.7873 25.035 25.5684C24.267 26.3494 23.3058 27.022 22.3193 27.3578C21.9748 27.475 21.1394 27.5511 21.1531 27.4861Z" fill="white"/>
</g>
</g>
<g opacity="0.455383">
<g opacity="0.455383">
<path opacity="0.455383" d="M21.3785 27.386C21.3996 27.2935 22.2266 26.9365 22.5971 26.7288C23.3394 26.3134 24.0406 25.782 24.6429 25.1691C25.3285 24.4721 25.8936 23.659 26.3267 22.7966C26.477 22.4977 26.7719 21.8604 26.8217 21.8486C26.907 21.8286 26.7982 22.6237 26.6855 22.9506C26.3631 23.8868 25.734 24.8048 25.0091 25.542C24.2844 26.2792 23.3821 26.9191 22.4619 27.2472C22.1405 27.3618 21.3648 27.4465 21.3785 27.386Z" fill="white"/>
</g>
</g>
<g opacity="0.512314">
<g opacity="0.512314">
<path opacity="0.512314" d="M21.6039 27.2858C21.6252 27.2002 22.3936 26.8551 22.7388 26.6564C23.4306 26.259 24.0865 25.7558 24.6531 25.1793C25.2979 24.5237 25.8339 23.7636 26.2494 22.9607C26.3935 22.6824 26.6774 22.0896 26.7234 22.0777C26.8023 22.0575 26.687 22.7922 26.5769 23.0955C26.262 23.9643 25.6652 24.8222 24.9833 25.5156C24.3015 26.209 23.4584 26.8162 22.6044 27.1366C22.3063 27.2485 21.5902 27.3418 21.6039 27.2858Z" fill="white"/>
</g>
</g>
<g opacity="0.569229">
<g opacity="0.569229">
<path opacity="0.569229" d="M21.8292 27.1857C21.8504 27.1069 22.5607 26.7737 22.8805 26.584C23.5218 26.2049 24.1326 25.7297 24.6632 25.1896C25.2673 24.5755 25.7744 23.8683 26.1719 23.1249C26.3101 22.8671 26.5827 22.3188 26.6252 22.3068C26.6976 22.2866 26.5756 22.9606 26.4684 23.2404C26.161 24.0416 25.5963 24.8398 24.9576 25.4893C24.3189 26.1388 23.5347 26.7134 22.747 27.026C22.472 27.1353 21.8153 27.2372 21.8292 27.1857Z" fill="white"/>
</g>
</g>
<g opacity="0.62616">
<g opacity="0.62616">
<path opacity="0.62616" d="M22.0545 27.0856C22.076 27.0136 22.7277 26.6922 23.0222 26.5116C23.6129 26.1506 24.1784 25.7034 24.6735 25.1998C25.2367 24.6272 25.7146 23.9729 26.0946 23.289C26.2265 23.0519 26.4881 22.5479 26.5267 22.5359C26.5927 22.5154 26.4643 23.129 26.3597 23.3852C26.06 24.1191 25.5273 24.8573 24.9316 25.4629C24.336 26.0684 23.6109 26.6105 22.8895 26.9155C22.6376 27.0219 22.0406 27.1325 22.0545 27.0856Z" fill="white"/>
</g>
</g>
<g opacity="0.683075">
<g opacity="0.683075">
<path opacity="0.683075" d="M22.2799 26.9854C22.3015 26.9203 22.8948 26.6107 23.1639 26.4392C23.7041 26.0962 24.2245 25.6772 24.6837 25.21C25.2062 24.6788 25.6549 24.0776 26.0172 23.4532C26.143 23.2366 26.3935 22.7771 26.4284 22.765C26.4882 22.7446 26.353 23.2975 26.251 23.5301C25.959 24.1964 25.4585 24.8748 24.9059 25.4365C24.3533 25.9982 23.6872 26.5075 23.032 26.8049C22.8034 26.9086 22.2659 27.0279 22.2799 26.9854Z" fill="white"/>
</g>
</g>
<g opacity="0.740005">
<g opacity="0.740005">
<path opacity="0.740005" d="M22.5053 26.8853C22.527 26.827 23.0619 26.5293 23.3057 26.3669C23.7953 26.042 24.2705 25.651 24.6939 25.2202C25.1757 24.7305 25.5954 24.1823 25.9399 23.6173C26.0596 23.4214 26.2991 23.0063 26.3303 22.9942C26.3836 22.9735 26.2419 23.4659 26.1426 23.675C25.858 24.2739 25.3896 24.8923 24.8802 25.4101C24.3707 25.9279 23.7634 26.4047 23.1747 26.6943C22.9691 26.7954 22.4913 26.9233 22.5053 26.8853Z" fill="white"/>
</g>
</g>
<path d="M21.6145 10.4819C17.5194 10.4819 16.1466 11.4782 15.7038 12.0161C15.261 11.4782 13.8882 10.4819 9.79298 10.4819H9.58217V11.1353C9.39319 11.1304 9.20414 11.1286 9.00335 11.1286H8.52557V20.5783H9.00335C14.0555 20.5783 15.0866 21.7569 15.2336 21.9757H16.1818C16.3417 21.7467 17.3929 20.5783 22.4049 20.5783H22.8825V11.1286H22.4046C22.2034 11.1286 22.0144 11.1307 21.8254 11.1357V10.4819H21.6145ZM10.1093 18.968V11.0223C14.4416 11.079 15.2785 12.2862 15.3877 12.4827V20.1521C14.6823 19.6226 13.2025 19.0088 10.1093 18.968ZM16.0203 12.4852C16.1399 12.27 17.0002 11.079 21.2988 11.0225V18.968C18.2056 19.0088 16.7259 19.6223 16.0203 20.1521V12.4852Z" fill="url(#paint1_linear)"/>
<path d="M21.2988 18.968C18.2056 19.0088 16.726 19.6224 16.0204 20.1521V12.4851C16.1398 12.27 17.0002 11.079 21.2988 11.0226V18.968ZM15.3876 20.1521C14.6823 19.6226 13.2025 19.0088 10.1093 18.968V11.0222C14.4416 11.079 15.2785 12.2862 15.3876 12.4827V20.1521ZM22.4046 11.1287C22.2034 11.1287 22.0143 11.1307 21.8254 11.1357V10.482H21.6145C17.5194 10.482 16.1466 11.4782 15.7038 12.0161C15.261 11.4782 13.8882 10.482 9.79306 10.482H9.58217V11.1354C9.39319 11.1304 9.20422 11.1287 9.00335 11.1287H8.52557V20.5783H9.00335C14.0555 20.5783 15.0866 21.7569 15.2336 21.9757H16.1818C16.3417 21.7466 17.3929 20.5783 22.4049 20.5783H22.8825V11.1287H22.4046Z" stroke="white" stroke-miterlimit="10" stroke-linecap="round" stroke-linejoin="round"/>
<defs>
<radialGradient id="paint0_radial" cx="0" cy="0" r="1" gradientUnits="userSpaceOnUse" gradientTransform="translate(9.91693 8.8) scale(25.4544 25.8942)">
<stop stop-color="white"/>
<stop offset="0.187919" stop-color="white"/>
<stop offset="0.443571" stop-color="white"/>
<stop offset="1" stop-color="#B6B6B7"/>
</radialGradient>
<linearGradient id="paint1_linear" x1="22.0101" y1="20.2108" x2="4.46302" y2="8.49448" gradientUnits="userSpaceOnUse">
<stop stop-color="#515151"/>
<stop offset="0.162071" stop-color="#515151"/>
<stop offset="0.534422" stop-color="#797979"/>
<stop offset="0.668329" stop-color="#797979"/>
<stop offset="0.811518" stop-color="#A8A8A8"/>
<stop offset="0.984293" stop-color="#AFAFAF"/>
<stop offset="1" stop-color="#AFAFAF"/>
</linearGradient>
</defs>
</svg>
