<svg width="27" height="35" viewBox="0 0 27 35" fill="none" xmlns="http://www.w3.org/2000/svg">
<g clip-path="url(#clip0)">
<path d="M7.29737 28.6266C8.35637 29.8795 9.39716 31.004 10.3146 31.9471C10.1308 31.6159 9.94505 31.2691 9.75788 30.9093C8.83392 29.9833 7.61944 28.9653 6.5553 27.7305C6.80266 28.0356 7.05057 28.3345 7.29737 28.6266Z" fill="#8C2E86"/>
<path d="M10.3146 31.9471C10.1308 31.6159 9.94504 31.2691 9.75787 30.9093C9.82522 30.977 10.0632 31.2037 10.3888 31.5009C10.549 31.875 11.4309 32.8761 11.5888 33.2222C11.2039 32.8473 10.7748 32.4201 10.3146 31.9471Z" fill="#8C2E86"/>
<path d="M11.5887 33.2222C11.4309 32.8761 10.549 31.875 10.3888 31.5009C10.7145 31.7981 11.1278 32.1657 11.5461 32.5149C11.6471 32.9203 12.4967 33.8042 12.5973 34.183C12.3142 33.9196 11.9736 33.5971 11.5887 33.2222Z" fill="#8C2E86"/>
<path d="M12.5973 34.183C13.1634 34.7097 13.4994 35 13.4994 35C13.4908 34.7869 13.4824 34.5705 13.4744 34.351C13.3681 34.429 12.7726 33.9713 12.0718 33.359C12.3094 33.678 12.547 33.9937 12.5973 34.183Z" fill="#8C2E86"/>
<path d="M12.0718 33.359C12.7726 33.9713 13.3681 34.429 13.4743 34.351C13.4663 34.1315 13.4585 33.9089 13.4511 33.6834C13.2385 33.8395 12.3826 33.2137 11.5461 32.5149C11.5966 32.7176 11.8342 33.04 12.0718 33.359Z" fill="#8C2E86"/>
<path d="M13.4995 35C13.4995 35 13.5137 34.9881 13.54 34.965C13.527 34.7555 13.5143 34.5429 13.5019 34.3271C13.4865 34.341 13.4769 34.349 13.4744 34.351C13.4824 34.5705 13.4908 34.7869 13.4995 35Z" fill="#8C2E86"/>
<path d="M13.4744 34.351C13.4769 34.349 13.4865 34.341 13.5019 34.3271C13.4895 34.1113 13.4773 33.8924 13.4655 33.6706C13.4611 33.6754 13.4563 33.6796 13.4512 33.6834C13.4585 33.9089 13.4663 34.1315 13.4744 34.351Z" fill="#8C2E86"/>
<path d="M13.54 34.965C13.5808 34.9293 13.6517 34.8669 13.7496 34.7792C13.8374 34.5169 13.9284 34.2477 14.0195 33.9756C13.8126 34.1576 13.5629 34.2656 13.5019 34.3271C13.5143 34.5429 13.5271 34.7555 13.54 34.965Z" fill="#8C2E86"/>
<path d="M13.5019 34.3271C13.5629 34.2656 13.8125 34.1576 14.0195 33.9756C14.1106 33.7034 14.202 33.4284 14.291 33.1545C13.9752 33.4311 13.5468 33.5834 13.4655 33.6706C13.4773 33.8924 13.4894 34.1113 13.5019 34.3271Z" fill="#8C2E86"/>
<path d="M13.7496 34.7792C14.1018 34.4641 14.8034 33.8231 15.708 32.9309C15.8131 32.7248 15.9747 32.4402 16.1364 32.1534C15.2008 32.9849 14.4392 33.6045 14.0195 33.9756C13.9283 34.2477 13.8374 34.5169 13.7496 34.7792Z" fill="#8C2E86"/>
<path d="M14.0195 33.9756C14.4392 33.6045 15.2008 32.9849 16.1364 32.1534C16.2982 31.8665 16.4602 31.5774 16.5659 31.3623C15.5994 32.1313 14.7781 32.7277 14.291 33.1545C14.202 33.4285 14.1106 33.7034 14.0195 33.9756Z" fill="#8C2E86"/>
<path d="M15.708 32.9309C15.9182 32.5188 16.3544 31.7925 16.5659 31.3623C17.5324 30.5933 18.6443 29.6516 19.7126 28.5339C19.4674 28.8462 19.129 29.2746 18.8844 29.5742C17.7202 30.8949 16.6126 32.0386 15.708 32.9309Z" fill="#8C2E86"/>
<path d="M18.8844 29.5742C19.0067 29.4244 19.1525 29.2424 19.2983 29.0589C19.3629 28.9882 19.4276 28.917 19.4923 28.8451C19.351 29.02 19.2099 29.1932 19.0874 29.3423C19.0195 29.4202 18.9518 29.4975 18.8844 29.5742Z" fill="#8C2E86"/>
<path d="M19.0874 29.3423C19.1553 29.2645 19.2234 29.1862 19.2916 29.1072C19.3531 29.0332 19.4177 28.955 19.484 28.8746C19.4169 28.9514 19.3498 29.0276 19.2828 29.1034C19.2145 29.1872 19.1486 29.2677 19.0874 29.3423Z" fill="#8C2E86"/>
<path d="M19.2828 29.1034C19.3498 29.0276 19.4169 28.9514 19.4841 28.8746C19.5504 28.7941 19.6183 28.7113 19.6862 28.6281C19.6215 28.701 19.5569 28.7733 19.4923 28.8451C19.4216 28.9326 19.351 29.0196 19.2828 29.1034Z" fill="#8C2E86"/>
<path d="M19.2983 29.0589C19.4276 28.9175 19.5569 28.7739 19.6862 28.6281C19.822 28.4616 19.9579 28.2936 20.0811 28.1392C19.959 28.2731 19.8362 28.4047 19.7126 28.5339C19.59 28.6901 19.4441 28.8753 19.2983 29.0589Z" fill="#8C2E86"/>
<path d="M19.2916 29.1072C19.3598 29.0282 19.4282 28.9487 19.4966 28.8685C19.5582 28.7952 19.6215 28.7195 19.6857 28.6423C19.6185 28.7203 19.5512 28.7978 19.4841 28.8746C19.4178 28.955 19.3531 29.0332 19.2916 29.1072Z" fill="#8C2E86"/>
<path d="M19.4841 28.8746C19.5512 28.7978 19.6185 28.7203 19.6857 28.6423C19.7498 28.5651 19.8148 28.4865 19.8798 28.4075C19.8154 28.4816 19.7508 28.5551 19.6862 28.6281C19.6183 28.7113 19.5504 28.7941 19.4841 28.8746Z" fill="#8C2E86"/>
<path d="M19.4965 28.8685C19.5649 28.7884 19.6334 28.7077 19.702 28.6266C19.7637 28.5536 19.8255 28.4801 19.8874 28.4062C19.8201 28.4856 19.7528 28.5643 19.6856 28.6423C19.6215 28.7195 19.5582 28.7952 19.4965 28.8685Z" fill="#8C2E86"/>
<path d="M19.6857 28.6423C19.7529 28.5642 19.8202 28.4856 19.8874 28.4062C19.9493 28.3324 20.0112 28.2581 20.073 28.1834C20.0087 28.2587 19.9443 28.3334 19.8798 28.4075C19.8148 28.4865 19.7498 28.5651 19.6857 28.6423Z" fill="#8C2E86"/>
<path d="M19.6862 28.6281C19.822 28.4616 19.9579 28.2936 20.0811 28.1392C20.1421 28.0723 20.2028 28.0048 20.2634 27.9367C20.1399 28.0898 20.0098 28.2494 19.8798 28.4075C19.8154 28.4816 19.7508 28.5551 19.6862 28.6281Z" fill="#8C2E86"/>
<path d="M19.8798 28.4075C19.9443 28.3334 20.0087 28.2587 20.073 28.1834C20.1348 28.1087 20.1967 28.0336 20.2585 27.9582C20.1972 28.0294 20.1357 28.1 20.0739 28.1702C20.0098 28.2491 19.9448 28.3285 19.8798 28.4075Z" fill="#8C2E86"/>
<path d="M20.074 28.1702C20.1358 28.1 20.1973 28.0294 20.2586 27.9581C20.3204 27.8827 20.3823 27.8068 20.4441 27.7305C20.3842 27.7998 20.3239 27.8686 20.2634 27.9367C20.2016 28.0133 20.1382 28.0914 20.074 28.1702Z" fill="#8C2E86"/>
<path d="M6.55534 27.7305C4.51386 25.212 2.49642 22.2649 1.25018 19.2689C1.44045 19.4624 1.93373 19.7258 2.37949 19.941C3.50618 23.3176 6.41974 26.6966 8.20921 29.4357C7.65708 28.9111 7.08741 28.3479 6.55534 27.7305Z" fill="#8C2E86"/>
<path d="M8.20916 29.4357C8.76128 29.9603 9.29589 30.4463 9.75787 30.9093C8.98914 29.4295 7.60731 27.7222 6.29174 25.9152C6.06075 25.6837 5.56954 25.3273 5.04578 24.9274C6.1387 26.5367 7.31443 28.0662 8.20916 29.4357Z" fill="#8C2E86"/>
<path d="M5.0458 24.9274C5.56956 25.3273 6.06077 25.6837 6.29176 25.9152C4.97622 24.1083 3.72696 22.2016 3.22338 20.3229C3.22338 20.3229 2.82521 20.1561 2.37946 19.941C2.9428 21.6293 3.95288 23.3182 5.0458 24.9274Z" fill="#8C2E86"/>
<path d="M9.75783 30.9093C8.98911 29.4295 7.60727 27.7222 6.2917 25.9152C6.1194 25.9495 6.39692 26.1036 6.92736 26.3097C8.3027 28.1931 9.73663 29.9788 10.4007 31.5118C10.0689 31.2093 9.82601 30.9779 9.75783 30.9093Z" fill="#8C2E86"/>
<path d="M10.4007 31.5118C9.73664 29.9788 8.30271 28.1931 6.92737 26.3097C7.45784 26.5158 8.24123 26.7739 9.08068 27.0162C10.091 29.0002 11.1428 30.8906 11.5766 32.5404C11.1531 32.1878 10.7325 31.8142 10.4007 31.5118Z" fill="#8C2E86"/>
<path d="M6.29173 25.9152C5.94714 25.9838 7.40178 26.5317 9.08071 27.0162C8.07043 25.0323 7.10167 22.9548 6.83392 20.9308C4.39739 20.6484 2.39778 20.3229 3.22336 20.3229C3.72693 22.2016 4.9762 24.1083 6.29173 25.9152Z" fill="#8C2E86"/>
<path d="M11.5766 32.5404C12.4236 33.2457 13.2823 33.8675 13.4654 33.6706C13.3666 31.8508 13.2828 29.838 13.2156 27.7378C12.663 27.9223 10.7596 27.5009 9.08069 27.0162C10.091 29.0002 11.1428 30.8906 11.5766 32.5404Z" fill="#8C2E86"/>
<path d="M9.08069 27.0162C10.7596 27.5009 12.663 27.9223 13.2156 27.7378C13.1821 26.6877 13.1527 25.6157 13.1277 24.5351C12.321 24.7111 9.81463 24.3745 7.67883 23.9886C8.0808 25.0089 8.57555 26.0243 9.08069 27.0162Z" fill="#8C2E86"/>
<path d="M7.67886 23.9886C9.81465 24.3745 12.321 24.7111 13.1277 24.5351C13.1028 23.4545 13.0822 22.3653 13.0662 21.2806C12.144 21.4527 9.27045 21.2133 6.83392 20.9308C6.96778 21.9428 7.27693 22.9682 7.67886 23.9886Z" fill="#8C2E86"/>
<path d="M13.4655 33.6706C13.5468 33.5834 13.9752 33.4311 14.291 33.1545C14.3139 31.3768 14.3459 29.4072 14.3793 27.3501C13.9862 27.5313 13.4912 27.6504 13.2157 27.7378C13.2828 29.838 13.3667 31.8508 13.4655 33.6706Z" fill="#8C2E86"/>
<path d="M13.2157 27.7378C13.4912 27.6504 13.9862 27.5313 14.3793 27.3501C14.396 26.3216 14.4132 25.2712 14.4297 24.2119C13.9834 24.3274 13.5368 24.4477 13.1277 24.5351C13.1527 25.6157 13.1821 26.6877 13.2157 27.7378Z" fill="#8C2E86"/>
<path d="M13.1277 24.5351C13.5368 24.4477 13.9834 24.3274 14.4297 24.2119C14.4463 23.1527 14.4622 22.0846 14.4768 21.0206C14.0062 21.1063 13.536 21.1931 13.0662 21.2806C13.0822 22.3653 13.1028 23.4545 13.1277 24.5351Z" fill="#8C2E86"/>
<path d="M14.291 33.1545C14.7782 32.7277 15.5994 32.1313 16.566 31.3623C16.8201 30.5983 17.0976 29.7505 17.3803 28.8498C16.1318 29.4702 15.0066 29.9488 14.3312 30.3571C14.3162 31.3289 14.3024 32.2657 14.291 33.1545Z" fill="#8C2E86"/>
<path d="M14.3312 30.3571C15.0066 29.9488 16.1318 29.4702 17.3803 28.8497C17.663 27.949 17.9508 26.9953 18.2253 26.0196C16.8098 26.5382 15.4689 26.9827 14.3793 27.3501C14.3626 28.3787 14.3462 29.3853 14.3312 30.3571Z" fill="#8C2E86"/>
<path d="M14.3793 27.3501C15.4689 26.9827 16.8098 26.5382 18.2253 26.0196C18.4998 25.044 18.7611 24.0462 18.9907 23.0574C17.4492 23.4745 15.9334 23.8853 14.4297 24.2119C14.4132 25.2712 14.396 26.3216 14.3793 27.3501Z" fill="#8C2E86"/>
<path d="M14.4297 24.2119C15.9334 23.8853 17.4492 23.4745 18.9906 23.0574C19.2202 22.0686 19.4181 21.0887 19.566 20.1487C17.8655 20.4183 16.1686 20.7127 14.4767 21.0206C14.4622 22.0846 14.4462 23.1527 14.4297 24.2119Z" fill="#8C2E86"/>
<path d="M16.5659 31.3623C17.5324 30.5933 18.6442 29.6516 19.7126 28.5339C20.2092 27.8949 20.6975 27.2101 21.1682 26.4913C20.0002 27.4671 18.6286 28.2294 17.3803 28.8498C17.0976 29.7505 16.82 30.5983 16.5659 31.3623Z" fill="#8C2E86"/>
<path d="M17.3803 28.8498C18.6286 28.2295 20.0003 27.4671 21.1682 26.4913C21.6388 25.7726 22.0918 25.0198 22.5178 24.2449C21.1306 24.9085 19.6407 25.5011 18.2253 26.0196C17.9508 26.9953 17.663 27.949 17.3803 28.8498Z" fill="#8C2E86"/>
<path d="M18.2253 26.0196C18.933 25.7604 19.6593 25.4826 20.3821 25.1867C20.7193 24.2805 21.0338 23.3523 21.3239 22.4369C20.5386 22.6387 19.7614 22.8489 18.9906 23.0574C18.7611 24.0462 18.4998 25.044 18.2253 26.0196Z" fill="#8C2E86"/>
<path d="M18.9907 23.0574C19.7614 22.8489 20.5386 22.6388 21.3239 22.4369C21.614 21.5215 21.8796 20.6189 22.1191 19.764C21.2673 19.8852 20.4163 20.0138 19.5661 20.1487C19.4182 21.0887 19.2202 22.0686 18.9907 23.0574Z" fill="#8C2E86"/>
<path d="M20.3821 25.1867C21.1048 24.8907 21.8241 24.5767 22.5177 24.2449C22.9438 23.47 23.3429 22.6729 23.7058 21.8655C22.9025 22.0413 22.1091 22.2349 21.3238 22.4369C21.0337 23.3523 20.7192 24.2805 20.3821 25.1867Z" fill="#8C2E86"/>
<path d="M21.3239 22.4369C22.1091 22.2349 22.9026 22.0413 23.7059 21.8655C24.0688 21.0582 24.3955 20.2405 24.6767 19.4244C23.8236 19.5291 22.971 19.6428 22.1192 19.764C21.8797 20.6189 21.614 21.5215 21.3239 22.4369Z" fill="#8C2E86"/>
<path d="M19.7126 28.5339C19.8362 28.4047 19.959 28.2731 20.0811 28.1392C20.5846 27.5049 21.0836 26.8333 21.5673 26.1337C21.4344 26.2565 21.3004 26.3778 21.1682 26.4913C20.6976 27.2101 20.2092 27.8949 19.7126 28.5339Z" fill="#8C2E86"/>
<path d="M21.1682 26.4913C21.3004 26.3778 21.4344 26.2565 21.5673 26.1337C22.051 25.4342 22.5195 24.7067 22.962 23.9607C22.8165 24.0631 22.6692 24.1658 22.5178 24.2449C22.0918 25.0198 21.6388 25.7726 21.1682 26.4913Z" fill="#8C2E86"/>
<path d="M22.5178 24.2449C22.6691 24.1658 22.8165 24.0631 22.962 23.9607C23.8471 22.4686 24.6287 20.9025 25.2215 19.3374C25.04 19.3648 24.8557 19.3954 24.6766 19.4244C24.1142 21.0566 23.3699 22.6951 22.5178 24.2449Z" fill="#8C2E86"/>
<path d="M20.0811 28.1392C20.2032 28.0053 20.3242 27.8691 20.4442 27.7305C20.9546 27.1009 21.4635 26.4445 21.9592 25.7672C21.8317 25.8868 21.7001 26.011 21.5673 26.1337C21.0836 26.8333 20.5847 27.5049 20.0811 28.1392Z" fill="#8C2E86"/>
<path d="M21.5673 26.1337C21.7 26.011 21.8316 25.8868 21.9591 25.7672C22.4548 25.09 22.9373 24.3919 23.395 23.6788C23.2512 23.7564 23.1074 23.8584 22.962 23.9607C22.5194 24.7067 22.051 25.4342 21.5673 26.1337Z" fill="#8C2E86"/>
<path d="M22.962 23.9607C23.8471 22.4686 24.6287 20.9025 25.2215 19.3374C25.3123 19.3236 25.4024 19.3107 25.4907 19.2991C24.877 20.8181 24.0784 22.3464 23.1791 23.8105C23.107 23.8585 23.0347 23.9095 22.962 23.9607Z" fill="#8C2E86"/>
<path d="M23.1791 23.8105C24.0784 22.3464 24.877 20.8181 25.4908 19.2991C25.5791 19.2875 25.6658 19.2773 25.7497 19.2689C25.1264 20.7669 24.3104 22.2527 23.3951 23.6788C23.3231 23.7176 23.2512 23.7625 23.1791 23.8105Z" fill="#8C2E86"/>
<path d="M1.24948 19.2689C0.567214 17.6291 0.116181 15.9743 0.0189819 14.3672C0.154893 14.3309 0.517137 14.3569 0.854812 14.3597C1.01679 16.0586 1.72539 17.9554 2.37878 19.941C1.93303 19.7258 1.43974 19.4624 1.24948 19.2689Z" fill="#8C2E86"/>
<path d="M2.37944 19.941C1.72605 17.9554 1.01744 16.0586 0.855469 14.3597C1.19314 14.3626 1.50625 14.3422 1.54392 14.2133C1.77071 16.0039 2.59882 17.9917 3.22337 20.3229C3.22337 20.3229 2.82519 20.1561 2.37944 19.941Z" fill="#8C2E86"/>
<path d="M0.0196427 14.3672C0.00661153 14.1514 -6.10352e-05 13.9365 -6.10352e-05 13.7227C0.131714 13.6813 0.479503 13.7011 0.805815 13.7012C0.812555 13.9185 0.835422 14.1448 0.855473 14.3597C0.517798 14.3569 0.155554 14.3309 0.0196427 14.3672Z" fill="#8C2E86"/>
<path d="M0.855444 14.3597C0.835393 14.1448 0.812528 13.9185 0.805786 13.7012C1.1321 13.7013 1.43693 13.6816 1.48284 13.561C1.49636 13.7818 1.51683 13.9993 1.5439 14.2133C1.50623 14.3422 1.19312 14.3626 0.855444 14.3597Z" fill="#8C2E86"/>
<path d="M-6.10352e-05 13.7227C0.131714 13.6813 0.479503 13.7011 0.805815 13.7012C0.757859 12.087 0.997258 10.3899 1.59362 8.72022C1.34654 8.744 1.09995 8.77194 0.823885 8.99081C0.290909 10.4659 -6.10352e-05 12.0598 -6.10352e-05 13.7227Z" fill="#8C2E86"/>
<path d="M0.823853 8.99081C1.35686 7.51581 2.13188 6.15964 3.09997 4.97215C3.31015 4.77394 3.5378 4.58732 3.77699 4.41006C2.68018 5.6966 1.81092 7.19432 1.2196 8.78232C1.09255 8.81966 0.961883 8.88137 0.823853 8.99081Z" fill="#8C2E86"/>
<path d="M1.21967 8.78232C1.81099 7.19431 2.68025 5.6966 3.77706 4.41006C4.01625 4.23276 4.26698 4.06479 4.5233 3.90388C3.14334 5.40831 2.19002 7.05054 1.59366 8.72022C1.47012 8.73209 1.34672 8.74502 1.21967 8.78232Z" fill="#8C2E86"/>
<path d="M0.805828 13.7012C0.757872 12.087 0.997271 10.3899 1.59363 8.72022C1.71717 8.70831 1.84082 8.69747 1.96832 8.66433C1.35048 10.3977 1.16863 12.0956 1.24953 13.6763C1.12679 13.6963 0.968984 13.7012 0.805828 13.7012Z" fill="#8C2E86"/>
<path d="M1.24948 13.6763C1.16858 12.0956 1.35043 10.3977 1.96827 8.66433C2.09573 8.6312 2.22706 8.57581 2.36596 8.47474C1.6405 10.2671 1.38695 11.9955 1.48283 13.561C1.45986 13.6213 1.37218 13.6563 1.24948 13.6763Z" fill="#8C2E86"/>
<path d="M1.59363 8.72023C2.18999 7.05055 3.14331 5.40832 4.52327 3.90389C4.7796 3.74299 5.04148 3.58911 5.30302 3.44C3.63997 5.16228 2.58612 6.93101 1.96831 8.66434C1.84081 8.69748 1.71717 8.70832 1.59363 8.72023Z" fill="#8C2E86"/>
<path d="M1.96832 8.66434C2.58613 6.93101 3.63998 5.16228 5.30303 3.44C5.56456 3.2909 5.82575 3.14656 6.08062 3.00469C4.28886 4.82606 3.09147 6.68239 2.36601 8.47475C2.22711 8.57582 2.09579 8.63121 1.96832 8.66434Z" fill="#8C2E86"/>
<path d="M3.22339 20.3229C2.59885 17.9917 1.77073 16.0039 1.54395 14.2133C1.65087 14.151 2.24112 14.1568 3.11156 14.1984C3.30155 16.0375 3.27322 18.2009 3.8054 20.5209C3.10413 20.4042 2.81062 20.3229 3.22339 20.3229Z" fill="#8C2E86"/>
<path d="M3.80535 20.5209C3.27317 18.2009 3.30149 16.0375 3.11151 14.1984C3.98199 14.2401 5.1327 14.3178 6.36052 14.3994C6.4695 16.345 6.50498 18.6354 6.83389 20.9308C5.61563 20.7896 4.50662 20.6377 3.80535 20.5209Z" fill="#8C2E86"/>
<path d="M6.83397 20.9309C6.50505 18.6354 6.46957 16.3451 6.3606 14.3994C7.58845 14.481 8.89346 14.5665 10.0725 14.624C10.1005 16.6764 10.3923 19.0054 10.518 21.2762C9.37976 21.2026 8.05224 21.0721 6.83397 20.9309Z" fill="#8C2E86"/>
<path d="M10.5179 21.2762C10.3922 19.0054 10.1004 16.6764 10.0724 14.624C11.2515 14.6816 12.3046 14.7111 13.0288 14.6805C13.0199 16.7812 13.0329 19.021 13.0662 21.2806C12.6051 21.3667 11.6561 21.3498 10.5179 21.2762Z" fill="#8C2E86"/>
<path d="M1.54393 14.2133C1.51328 13.9709 1.49111 13.724 1.47791 13.473C1.64898 13.3902 2.26946 13.3734 3.15081 13.3925C3.16159 13.6532 3.08594 13.9441 3.11155 14.1984C2.2411 14.1568 1.65086 14.151 1.54393 14.2133Z" fill="#8C2E86"/>
<path d="M3.11153 14.1984C3.08592 13.9441 3.16157 13.6532 3.1508 13.3925C4.03215 13.4117 5.17435 13.4669 6.38879 13.5283C6.39421 13.8102 6.34594 14.1185 6.36054 14.3994C5.13271 14.3178 3.982 14.2401 3.11153 14.1984Z" fill="#8C2E86"/>
<path d="M6.36055 14.3994C6.34595 14.1185 6.39422 13.8102 6.3888 13.5283C7.60325 13.5898 8.89001 13.6574 10.0605 13.7014C10.0605 14.0043 10.0689 14.3167 10.0725 14.6241C8.89341 14.5665 7.58841 14.481 6.36055 14.3994Z" fill="#8C2E86"/>
<path d="M10.0725 14.624C10.0689 14.3167 10.0606 14.0043 10.0605 13.7014C11.2309 13.7453 12.2851 13.7656 13.0344 13.7324C13.032 14.0449 13.0302 14.3611 13.0288 14.6805C12.3047 14.7111 11.2516 14.6816 10.0725 14.624H10.0725Z" fill="#8C2E86"/>
<path d="M1.47791 13.473C1.39593 11.9162 1.6591 10.2012 2.38651 8.42444C2.7246 8.24311 3.38595 8.08426 4.22988 7.94667C3.45983 9.86316 3.08393 11.7435 3.15082 13.3925C2.26947 13.3733 1.64899 13.3902 1.47791 13.473Z" fill="#8C2E86"/>
<path d="M3.15085 13.3925C3.08395 11.7435 3.45986 9.86317 4.2299 7.94668C5.07383 7.80905 6.10037 7.69269 7.16897 7.59643C6.64207 9.62639 6.3551 11.6766 6.38884 13.5283C5.1744 13.4669 4.0322 13.4117 3.15085 13.3925Z" fill="#8C2E86"/>
<path d="M2.38647 8.42444C3.11388 6.64766 4.30556 4.80902 6.08057 3.00469C6.58565 2.72484 7.11956 2.48562 7.67373 2.2837C6.16405 4.07744 4.99985 6.03014 4.22984 7.94667C3.38591 8.08426 2.72457 8.24312 2.38647 8.42444Z" fill="#8C2E86"/>
<path d="M4.22986 7.94668C4.99987 6.03015 6.16406 4.07745 7.67375 2.28371C8.22792 2.08175 8.80243 1.9171 9.38867 1.78636C8.46267 3.55686 7.69582 5.56647 7.16892 7.59643C6.10033 7.69269 5.07379 7.80905 4.22986 7.94668Z" fill="#8C2E86"/>
<path d="M6.38884 13.5283C6.32136 9.82491 7.5367 5.32735 9.38872 1.78636C9.97497 1.65563 10.573 1.55887 11.1742 1.49271C10.4895 4.98717 10.0593 9.59255 10.0605 13.7014C8.89005 13.6574 7.60329 13.5898 6.38884 13.5283Z" fill="#8C2E86"/>
<path d="M10.0604 13.7013C10.0593 9.59254 10.4894 4.98717 11.1741 1.4927C11.7753 1.42657 12.3797 1.39103 12.9789 1.38277C12.8248 4.85607 13.0633 9.4393 13.0343 13.7324C12.285 13.7656 11.2309 13.7453 10.0604 13.7013Z" fill="#8C2E86"/>
<path d="M13.0662 21.2806C13.0279 18.6775 13.0164 16.1006 13.0343 13.7324C15.166 13.4798 17.3364 13.3124 19.4795 13.2688C19.4381 15.4688 19.152 18.048 18.8567 20.2626C16.921 20.5773 14.9901 20.922 13.0662 21.2806Z" fill="#8C2E86"/>
<path d="M18.8567 20.2626C19.1519 18.048 19.4381 15.4688 19.4794 13.2688C20.551 13.2469 21.6158 13.256 22.6655 13.3007C22.608 15.3852 22.2884 17.8675 21.7638 19.8149C20.7937 19.9553 19.8246 20.1052 18.8567 20.2626Z" fill="#8C2E86"/>
<path d="M21.7639 19.8149C22.2885 17.8675 22.608 15.3852 22.6656 13.3007C23.7153 13.3455 24.7499 13.426 25.7613 13.5469C25.6964 15.5787 25.3055 17.5983 24.6767 19.4244C23.7049 19.5437 22.7339 19.6745 21.7639 19.8149Z" fill="#8C2E86"/>
<path d="M13.0343 13.7324C13.0633 9.4393 12.8249 4.85608 12.9789 1.38277C14.7069 1.35903 16.5256 1.53753 18.2645 1.99301C19.2017 5.02754 19.547 9.45887 19.4795 13.2688C17.3364 13.3124 15.166 13.4797 13.0343 13.7324Z" fill="#8C2E86"/>
<path d="M19.4795 13.2688C19.547 9.45887 19.2018 5.02754 18.2645 1.99301C19.1339 2.22075 19.9834 2.51773 20.7917 2.89331C22.4791 5.6262 22.7596 9.82307 22.6656 13.3007C21.6158 13.256 20.5511 13.2469 19.4795 13.2688Z" fill="#8C2E86"/>
<path d="M22.6656 13.3007C22.7596 9.82307 22.4791 5.6262 20.7917 2.89331C21.5999 3.26888 22.3667 3.72306 23.0711 4.26516C25.0996 6.86092 25.8674 10.2203 25.7613 13.5469C24.75 13.426 23.7153 13.3455 22.6656 13.3007Z" fill="#8C2E86"/>
<path d="M24.6767 19.4244C25.2958 17.6266 25.6843 15.6411 25.758 13.6412C25.8626 13.6456 25.9678 13.6501 26.0729 13.6551C26.0107 15.6249 25.5915 17.5728 24.9482 19.3803C24.8571 19.395 24.7662 19.4099 24.6767 19.4244Z" fill="#8C2E86"/>
<path d="M24.9482 19.3803C25.5915 17.5728 26.0107 15.6249 26.0729 13.6551C26.178 13.6602 26.283 13.6656 26.3874 13.6719C26.3506 15.5754 25.9182 17.5085 25.2216 19.3374C25.1308 19.3511 25.0394 19.3656 24.9482 19.3803Z" fill="#8C2E86"/>
<path d="M25.2216 19.3374C25.4032 19.3099 25.5819 19.2856 25.7497 19.2689C26.1366 18.3389 26.4492 17.4041 26.665 16.476C26.4822 16.4732 26.2685 16.5013 26.0519 16.5326C25.8521 17.4824 25.5699 18.4229 25.2216 19.3374Z" fill="#8C2E86"/>
<path d="M26.0518 16.5326C26.2684 16.5013 26.4821 16.4732 26.665 16.476C26.8808 15.5478 27 14.6262 27 13.7227C26.802 13.7004 26.5961 13.6845 26.3874 13.6719C26.369 14.6237 26.2516 15.5828 26.0518 16.5326Z" fill="#8C2E86"/>
<path d="M25.758 13.6412C25.9672 13.6501 26.1787 13.6593 26.3874 13.6719C26.4184 12.0011 26.1929 10.3594 25.7107 8.82315C25.5594 8.77801 25.4053 8.7364 25.2289 8.6767C25.6601 10.2735 25.8199 11.9624 25.758 13.6412Z" fill="#8C2E86"/>
<path d="M25.2288 8.6767C25.4052 8.7364 25.5593 8.77801 25.7107 8.82316C25.2285 7.28694 24.4896 5.8562 23.4936 4.60732C23.3555 4.48958 23.2146 4.37559 23.071 4.26516C24.0948 5.5753 24.7975 7.07994 25.2288 8.6767Z" fill="#8C2E86"/>
<path d="M26.3874 13.6719C26.5961 13.6845 26.8021 13.7004 27 13.7227C27 12.0598 26.7089 10.4659 26.1759 8.99095C26.0107 8.91705 25.8621 8.8683 25.7108 8.82316C26.193 10.3594 26.4184 12.0011 26.3874 13.6719Z" fill="#8C2E86"/>
<path d="M25.7108 8.82315C25.8621 8.8683 26.0107 8.91705 26.1759 8.99095C25.9094 8.25343 25.5823 7.54566 25.2009 6.87377C25.0581 6.76441 24.928 6.68408 24.7949 6.60749C25.1643 7.31329 25.4697 8.05505 25.7108 8.82315Z" fill="#8C2E86"/>
<path d="M24.7949 6.6075C24.9279 6.68408 25.0581 6.76441 25.2009 6.87378C24.8195 6.20193 24.3837 5.56597 23.8997 4.97215C23.7671 4.84664 23.6318 4.72509 23.4937 4.60732C23.9917 5.23176 24.4254 5.90166 24.7949 6.6075Z" fill="#8C2E86"/>
<path d="M3.09998 4.97215C3.23498 4.80658 3.37367 4.64427 3.51601 4.48537C3.72268 4.28303 3.94401 4.09122 4.17548 3.9082C4.04451 4.07599 3.91489 4.24594 3.77699 4.41006C3.5378 4.58732 3.31015 4.77394 3.09998 4.97215Z" fill="#8C2E86"/>
<path d="M3.77704 4.41006C4.01623 4.23276 4.26696 4.06479 4.52328 3.90389C4.59542 3.82345 4.66051 3.73839 4.7216 3.651C4.46643 3.813 4.21688 3.98206 3.97887 4.16049C3.91284 4.24446 3.84598 4.328 3.77704 4.41006Z" fill="#8C2E86"/>
<path d="M3.97888 4.16049C4.21689 3.98206 4.46644 3.813 4.72162 3.651C4.78271 3.56357 4.8398 3.47381 4.89603 3.38394C4.64867 3.55099 4.40701 3.72518 4.17554 3.9082C4.11003 3.9921 4.04491 4.07652 3.97888 4.16049Z" fill="#8C2E86"/>
<path d="M3.51605 4.48537C3.92938 4.08069 4.40133 3.71804 4.89602 3.38394C5.00847 3.2042 5.11741 3.02401 5.24762 2.86127C4.79239 3.21918 4.36029 3.60599 3.95399 4.01894C3.80442 4.17094 3.65843 4.32648 3.51605 4.48537Z" fill="#8C2E86"/>
<path d="M4.52325 3.90389C4.77958 3.74298 5.04146 3.58911 5.303 3.44C5.37837 3.36115 5.44172 3.27464 5.49802 3.18393C5.23753 3.33406 4.97676 3.48903 4.72158 3.651C4.66049 3.73839 4.5954 3.82345 4.52325 3.90389Z" fill="#8C2E86"/>
<path d="M4.72156 3.65099C4.97673 3.48903 5.2375 3.33406 5.498 3.18392C5.55429 3.09321 5.6035 2.99826 5.65062 2.90252C5.39639 3.057 5.14333 3.21692 4.89597 3.38394C4.83975 3.4738 4.78265 3.56356 4.72156 3.65099Z" fill="#8C2E86"/>
<path d="M5.30304 3.44C5.56458 3.29089 5.82576 3.14656 6.08063 3.00469C6.15743 2.92659 6.21946 2.83873 6.27273 2.74547C6.01877 2.8884 5.75855 3.03376 5.49806 3.18393C5.44176 3.27464 5.37841 3.36116 5.30304 3.44Z" fill="#8C2E86"/>
<path d="M5.49805 3.18394C5.75854 3.03377 6.01876 2.8884 6.27272 2.74548C6.32603 2.65222 6.37058 2.55352 6.41249 2.45376C6.16033 2.59902 5.90491 2.74806 5.65067 2.90254C5.60355 2.99827 5.55434 3.09322 5.49805 3.18394Z" fill="#8C2E86"/>
<path d="M4.896 3.38394C5.00845 3.20421 5.11739 3.02401 5.24761 2.86127C5.47522 2.68231 5.70861 2.51056 5.94749 2.34641C5.83059 2.51657 5.74482 2.71111 5.65065 2.90253C5.39641 3.05701 5.14335 3.21692 4.896 3.38394Z" fill="#8C2E86"/>
<path d="M5.6507 2.90253C5.90493 2.74805 6.16035 2.59901 6.41251 2.45375C6.45438 2.354 6.49358 2.25318 6.53615 2.15561C6.28587 2.3032 6.03657 2.45658 5.79061 2.6165C5.74279 2.71032 5.69778 2.8068 5.6507 2.90253Z" fill="#8C2E86"/>
<path d="M5.79059 2.61649C6.03656 2.45658 6.28586 2.3032 6.53613 2.15561C6.57874 2.05804 6.62471 1.96372 6.68014 1.87696C6.4307 2.02565 6.1864 2.18224 5.94752 2.3464C5.88907 2.4315 5.83841 2.52267 5.79059 2.61649Z" fill="#8C2E86"/>
<path d="M6.08057 3.00469C6.58564 2.72484 7.11955 2.48562 7.67372 2.2837C7.7394 2.19899 7.78976 2.10651 7.83139 2.00979C7.29365 2.22043 6.77253 2.46541 6.27267 2.74547C6.2194 2.83872 6.15737 2.92658 6.08057 3.00469Z" fill="#8C2E86"/>
<path d="M6.27271 2.74547C6.77256 2.46541 7.29369 2.22043 7.83142 2.00979C7.87309 1.91307 7.906 1.81214 7.93672 1.71051C7.41024 1.9254 6.90076 2.17327 6.41247 2.45375C6.37056 2.55351 6.32601 2.65221 6.27271 2.74547Z" fill="#8C2E86"/>
<path d="M7.67377 2.28369C7.80513 2.11428 7.87525 1.91377 7.93673 1.71051C8.4632 1.49559 9.00664 1.31367 9.56286 1.16516C9.51911 1.37619 9.47098 1.58786 9.38869 1.78635C8.80244 1.91709 8.22794 2.08174 7.67377 2.28369Z" fill="#8C2E86"/>
<path d="M6.41248 2.45375C6.90076 2.17327 7.41025 1.92539 7.93672 1.71051C7.96744 1.60885 7.99597 1.50651 8.02888 1.407C7.51196 1.62481 7.01294 1.8747 6.53612 2.15561C6.49355 2.25318 6.45435 2.35399 6.41248 2.45375Z" fill="#8C2E86"/>
<path d="M6.53613 2.15562C7.01295 1.87471 7.51197 1.62482 8.0289 1.40701C8.0618 1.30753 8.09909 1.21092 8.14733 1.12066C7.64149 1.34296 7.15171 1.59586 6.68014 1.87697C6.62471 1.96373 6.57874 2.05805 6.53613 2.15562Z" fill="#8C2E86"/>
<path d="M7.93671 1.71053C7.99815 1.50723 8.05086 1.30118 8.1473 1.12067C8.65313 0.898333 9.17495 0.706588 9.71061 0.547661C9.6459 0.74368 9.60656 0.95411 9.56284 1.16518C9.00662 1.31369 8.46318 1.49561 7.93671 1.71053Z" fill="#8C2E86"/>
<path d="M9.38867 1.78635C9.47096 1.58785 9.51909 1.37619 9.56284 1.16516C10.119 1.01661 10.688 0.90149 11.2655 0.820171C11.2365 1.04067 11.2073 1.26516 11.1741 1.49269C10.5729 1.55885 9.97492 1.65561 9.38867 1.78635Z" fill="#8C2E86"/>
<path d="M11.1741 1.4927C11.2073 1.26517 11.2365 1.04068 11.2655 0.820176C11.843 0.738858 12.4291 0.691346 13.0196 0.678028C13.0037 0.907253 12.9898 1.14202 12.9788 1.38276C12.3797 1.39103 11.7753 1.42657 11.1741 1.4927Z" fill="#8C2E86"/>
<path d="M9.56287 1.16516C9.60658 0.954089 9.64592 0.743659 9.71063 0.54764C10.2462 0.388712 10.7956 0.262668 11.3566 0.171741C11.3236 0.383197 11.2946 0.599674 11.2656 0.820173C10.688 0.901492 10.1191 1.01661 9.56287 1.16516Z" fill="#8C2E86"/>
<path d="M11.2656 0.820369C11.2946 0.59987 11.3236 0.383393 11.3566 0.171938C11.9175 0.0810106 12.49 0.0251969 13.0718 0.00682831C13.0533 0.225349 13.0355 0.449031 13.0196 0.678221C12.4292 0.691538 11.8431 0.739051 11.2656 0.820369Z" fill="#8C2E86"/>
<path d="M12.9789 1.38277C13.1232 1.38079 13.2682 1.38022 13.4137 1.38111C13.4332 0.8979 13.4666 0.439377 13.4995 3.8147e-06C13.3566 3.8147e-06 13.2137 0.00197863 13.0718 0.00664493C13.0347 0.443687 13.0008 0.901291 12.9789 1.38277V1.38277Z" fill="#8C2E86"/>
<path d="M13.4137 1.38111C16.7522 1.40135 20.3715 2.18733 23.0711 4.26516C22.8086 3.92999 22.6064 3.63736 22.3161 3.33017C19.9506 1.25475 16.8691 0 13.4995 0C13.4667 0.439374 13.4332 0.897896 13.4137 1.38111Z" fill="#8C2E86"/>
<path d="M23.0711 4.26516C23.3584 4.48601 23.6346 4.72114 23.8997 4.97216C23.6296 4.64102 23.3448 4.32295 23.0458 4.01894C22.8107 3.78057 22.5673 3.55096 22.3162 3.33018C22.6064 3.63736 22.8087 3.93 23.0711 4.26516Z" fill="#8C2E86"/>
<g opacity="0.98">
<g opacity="0.98">
<g opacity="0.98">
<g opacity="0.98">
<path opacity="0.98" d="M1.89697 13.6898C1.89697 20.2036 7.09166 25.4838 13.4995 25.4838C19.9077 25.4838 25.1022 20.2036 25.1022 13.6898C25.1022 7.17575 19.9077 1.8953 13.4995 1.8953C7.09166 1.8953 1.89697 7.17575 1.89697 13.6898Z" fill="#591E3A"/>
</g>
</g>
</g>
</g>
<path d="M2.7431 13.6898C2.7431 19.7288 7.5586 24.6242 13.4995 24.6242C19.4403 24.6242 24.2565 19.7288 24.2565 13.6898C24.2565 7.65092 19.4403 2.75528 13.4995 2.75528C7.5586 2.75528 2.7431 7.65092 2.7431 13.6898Z" fill="#591E3A"/>
<path d="M3.17896 13.6898C3.17896 19.4839 7.79952 24.1808 13.4995 24.1808C19.1998 24.1808 23.8207 19.4839 23.8207 13.6898C23.8207 7.89545 19.1998 3.19819 13.4995 3.19819C7.79952 3.19819 3.17896 7.89545 3.17896 13.6898Z" fill="url(#paint0_radial)"/>
<g opacity="0.0546112">
<g opacity="0.0546112">
<path opacity="0.0546112" d="M10.6505 1.40482C10.63 1.57657 9.12196 2.0806 8.45616 2.39747C7.12315 3.03173 5.89277 3.89597 4.86821 4.93739C3.70273 6.12212 2.79083 7.55471 2.14233 9.10942C1.91772 9.64868 1.48685 10.803 1.39319 10.8148C1.23456 10.8347 1.2764 9.33818 1.42344 8.73785C1.84484 7.01776 2.85694 5.39881 4.08968 4.14571C5.32213 2.89253 6.91484 1.86407 8.60711 1.43571C9.19768 1.28624 10.6641 1.29181 10.6505 1.40482Z" fill="white"/>
</g>
</g>
<g opacity="0.109238">
<g opacity="0.109238">
<path opacity="0.109238" d="M10.5225 1.42302C10.501 1.59101 9.02376 2.09374 8.37085 2.40787C7.06339 3.03677 5.855 3.8898 4.84666 4.91472C3.69976 6.08057 2.7991 7.48726 2.15516 9.01151C1.93218 9.54021 1.50353 10.6717 1.41193 10.6837C1.25671 10.7043 1.30717 9.24092 1.4547 8.65304C1.87759 6.96847 2.87739 5.37896 4.09055 4.14575C5.30343 2.91248 6.86724 1.89645 8.52444 1.46658C9.10276 1.3166 10.5362 1.31241 10.5225 1.42302Z" fill="white"/>
</g>
</g>
<g opacity="0.163849">
<g opacity="0.163849">
<path opacity="0.163849" d="M10.3935 1.44122C10.3713 1.60552 8.92451 2.10688 8.28448 2.41832C7.00271 3.04173 5.81631 3.88354 4.82427 4.89197C3.6958 6.03915 2.80639 7.41973 2.16707 8.91359C1.94574 9.43181 1.51936 10.5404 1.42968 10.5527C1.27788 10.5739 1.33688 9.14351 1.48498 8.56807C1.90937 6.91917 2.89685 5.35911 4.09051 4.14587C5.28389 2.93241 6.8186 1.92891 8.44084 1.49751C9.00693 1.34696 10.4076 1.33299 10.3935 1.44122Z" fill="white"/>
</g>
</g>
<g opacity="0.21846">
<g opacity="0.21846">
<path opacity="0.21846" d="M10.2645 1.45944C10.2418 1.62005 8.82534 2.12003 8.1982 2.42866C6.94205 3.04678 5.77771 3.87738 4.8019 4.86924C3.69186 5.99762 2.8137 7.35222 2.17907 8.8157C1.9593 9.32335 1.5352 10.409 1.44759 10.4217C1.29906 10.4435 1.36674 9.0462 1.51534 8.4832C1.94123 6.86982 2.91639 5.33927 4.09048 4.14586C5.26429 2.9523 6.77003 1.9613 8.35726 1.52839C8.9111 1.37726 10.2791 1.35367 10.2645 1.45944Z" fill="white"/>
</g>
</g>
<g opacity="0.273071">
<g opacity="0.273071">
<path opacity="0.273071" d="M10.1356 1.47763C10.1121 1.63448 8.72618 2.13316 8.11191 2.43911C6.88145 3.05181 5.73911 3.87112 4.77945 4.84656C3.68792 5.95612 2.821 7.28475 2.19108 8.71778C1.97287 9.21494 1.55105 10.2776 1.46543 10.2907C1.32038 10.313 1.39654 8.94885 1.54571 8.3983C1.97308 6.82051 2.93587 5.31948 4.09053 4.14589C5.24476 2.97223 6.72146 1.99375 8.27361 1.55924C8.81528 1.4076 10.1506 1.37425 10.1356 1.47763Z" fill="white"/>
</g>
</g>
<g opacity="0.327698">
<g opacity="0.327698">
<path opacity="0.327698" d="M10.0066 1.49586C9.98263 1.64901 8.62706 2.14632 8.02567 2.44952C6.82084 3.05679 5.70048 3.86496 4.75712 4.82376C3.6841 5.91459 2.82835 7.21718 2.20305 8.61982C1.98648 9.10648 1.56693 10.1462 1.48324 10.1597C1.34161 10.1826 1.42637 8.85154 1.57604 8.31336C2.00491 6.77116 2.95546 5.29958 4.09048 4.14595C5.22521 2.99218 6.67295 2.02622 8.19008 1.59012C8.71951 1.43791 10.0221 1.39486 10.0066 1.49586Z" fill="white"/>
</g>
</g>
<g opacity="0.382309">
<g opacity="0.382309">
<path opacity="0.382309" d="M9.87763 1.51406C9.85301 1.66352 8.5279 2.15945 7.93932 2.45998C6.76018 3.06182 5.66181 3.85871 4.73468 4.80109C3.68016 5.8731 2.83566 7.14972 2.21498 8.5219C1.99998 8.99801 1.58271 10.0148 1.50101 10.0286C1.3628 10.0522 1.45617 8.75427 1.60634 8.22854C2.0367 6.72186 2.97494 5.2798 4.09045 4.146C5.20561 3.01212 6.62439 2.0586 8.10643 1.62106C8.62369 1.46826 9.89357 1.41552 9.87763 1.51406Z" fill="white"/>
</g>
</g>
<g opacity="0.43692">
<g opacity="0.43692">
<path opacity="0.43692" d="M9.7486 1.53229C9.7234 1.67807 8.42868 2.17263 7.85292 2.4704C6.69954 3.06682 5.62309 3.85257 4.71219 4.77837C3.67617 5.83158 2.84292 7.0823 2.22687 8.42402C2.0135 8.88957 1.59851 9.88352 1.5188 9.89763C1.384 9.92172 1.48592 8.6569 1.63673 8.14361C2.06852 6.6726 2.99444 5.25991 4.09038 4.14607C5.18604 3.03202 6.57577 2.09109 8.0228 1.65188C8.52782 1.49858 9.76497 1.43615 9.7486 1.53229Z" fill="white"/>
</g>
</g>
<g opacity="0.491531">
<g opacity="0.491531">
<path opacity="0.491531" d="M9.61966 1.55051C9.59382 1.69252 8.32956 2.18577 7.76675 2.4808C6.63892 3.07186 5.58454 3.84633 4.68986 4.75564C3.67235 5.79004 2.85026 7.01471 2.23884 8.32604C2.02711 8.7811 1.6144 9.75212 1.53668 9.76659C1.40523 9.79126 1.51583 8.55958 1.66706 8.05866C2.10042 6.62324 3.01402 5.24014 4.0904 4.14613C5.16649 3.0519 6.52725 2.12341 7.93927 1.68275C8.43205 1.52888 9.63652 1.45675 9.61966 1.55051Z" fill="white"/>
</g>
</g>
<g opacity="0.546158">
<g opacity="0.546158">
<path opacity="0.546158" d="M9.49071 1.56866C9.46424 1.70706 8.23043 2.19887 7.68036 2.49122C6.5783 3.07685 5.54584 3.8401 4.66746 4.73285C3.66837 5.74851 2.85754 6.94728 2.25081 8.22816C2.04065 8.67265 1.63021 9.62074 1.55449 9.63557C1.42645 9.66082 1.54552 8.46227 1.6974 7.97379C2.13217 6.57397 3.03354 5.22024 4.09034 4.14612C5.14693 3.07179 6.47866 2.15589 7.85565 1.71357C8.33619 1.55926 9.50793 1.47736 9.49071 1.56866Z" fill="white"/>
</g>
</g>
<g opacity="0.600769">
<g opacity="0.600769">
<path opacity="0.600769" d="M9.36175 1.58689C9.33463 1.72152 8.13122 2.21202 7.5941 2.50162C6.51766 3.08191 5.50719 3.83394 4.64503 4.71012C3.66446 5.70705 2.86486 6.87977 2.26276 8.13019C2.05424 8.56419 1.64601 9.48935 1.57235 9.50454C1.44766 9.53037 1.57541 8.36488 1.72771 7.88885C2.16398 6.52455 3.05296 5.20041 4.09034 4.14619C5.12728 3.09175 6.43012 2.1883 7.7721 1.74453C8.24039 1.58956 9.37947 1.49797 9.36175 1.58689Z" fill="white"/>
</g>
</g>
<g opacity="0.65538">
<g opacity="0.65538">
<path opacity="0.65538" d="M9.23277 1.60509C9.20508 1.73604 8.03206 2.22517 7.50782 2.51209C6.457 3.08688 5.46852 3.8277 4.62267 4.68738C3.66052 5.6655 2.87217 6.81232 2.27477 8.03229C2.06774 8.4558 1.66193 9.35802 1.59012 9.37358C1.46892 9.39998 1.60521 8.26763 1.75808 7.80396C2.19585 6.47526 3.07252 5.18056 4.09032 4.14624C5.10783 3.11169 6.38156 2.22076 7.68852 1.7754C8.14458 1.61992 9.25092 1.51864 9.23277 1.60509Z" fill="white"/>
</g>
</g>
<g opacity="0.710007">
<g opacity="0.710007">
<path opacity="0.710007" d="M9.10383 1.62332C9.0755 1.75058 7.93294 2.23833 7.42151 2.52251C6.39638 3.09194 5.42989 3.82155 4.60027 4.66474C3.65663 5.62404 2.87952 6.74482 2.28675 7.93441C2.08135 8.34736 1.67775 9.22665 1.608 9.24256C1.49014 9.26955 1.63504 8.17033 1.78842 7.7191C2.22768 6.426 3.09211 5.16074 4.09033 4.14631C5.08821 3.13159 6.33304 2.25317 7.60492 1.80629C8.0488 1.65024 9.1224 1.53926 9.10383 1.62332Z" fill="white"/>
</g>
</g>
<g opacity="0.0569305">
<g opacity="0.0569305">
<path opacity="0.0569305" d="M17.0023 24.0381C17.0199 23.9156 18.0994 23.5317 18.5777 23.2952C19.5353 22.8218 20.4236 22.1866 21.1686 21.4293C22.0166 20.5676 22.688 19.5344 23.1744 18.4184C23.3432 18.0317 23.6686 17.2042 23.7349 17.1942C23.8485 17.1774 23.7936 18.2414 23.6789 18.6706C23.3509 19.8996 22.6051 21.067 21.7086 21.9783C20.8123 22.8898 19.6637 23.6475 18.4545 23.9808C18.0325 24.0974 16.9908 24.1185 17.0023 24.0381Z" fill="white"/>
</g>
</g>
<g opacity="0.113846">
<g opacity="0.113846">
<path opacity="0.113846" d="M17.1991 23.9507C17.2168 23.8342 18.2453 23.4606 18.7015 23.232C19.6149 22.7745 20.4638 22.1638 21.1775 21.4382C21.9899 20.6128 22.6359 19.6257 23.1068 18.5618C23.2703 18.1929 23.586 17.4042 23.649 17.3942C23.7571 17.3773 23.6965 18.3884 23.584 18.797C23.2627 19.9672 22.545 21.0824 21.6861 21.9553C20.8274 22.8285 19.7303 23.5577 18.5791 23.8844C18.1772 23.9985 17.1875 24.0273 17.1991 23.9507Z" fill="white"/>
</g>
</g>
<g opacity="0.170776">
<g opacity="0.170776">
<path opacity="0.170776" d="M17.3959 23.8634C17.4139 23.7528 18.3912 23.3896 18.8252 23.1689C19.6945 22.7272 20.504 22.1409 21.1864 21.4472C21.9632 20.6578 22.5838 19.717 23.0392 18.705C23.1973 18.3542 23.5033 17.6042 23.5631 17.5941C23.6656 17.5771 23.5992 18.5354 23.4891 18.9234C23.1744 20.0348 22.4848 21.0976 21.6635 21.9323C20.8425 22.7672 19.7968 23.4679 18.7035 23.7879C18.3219 23.8996 17.3844 23.9359 17.3959 23.8634Z" fill="white"/>
</g>
</g>
<g opacity="0.227692">
<g opacity="0.227692">
<path opacity="0.227692" d="M17.5927 23.776C17.6106 23.6713 18.5371 23.3185 18.9491 23.1057C19.7741 22.6799 20.5441 22.118 21.1954 21.4561C21.9365 20.703 22.5317 19.8085 22.9717 18.8483C23.1244 18.5154 23.4208 17.8043 23.4773 17.7941C23.5742 17.777 23.5021 18.6824 23.3944 19.0499C23.0862 20.1024 22.4246 21.1128 21.6411 21.9093C20.8575 22.7059 19.8634 23.3782 18.8281 23.6913C18.4667 23.8008 17.581 23.8446 17.5927 23.776Z" fill="white"/>
</g>
</g>
<g opacity="0.284622">
<g opacity="0.284622">
<path opacity="0.284622" d="M17.7896 23.6886C17.8076 23.5899 18.683 23.2474 19.0729 23.0425C19.8538 22.6324 20.5844 22.0953 21.2043 21.465C21.9099 20.7481 22.4796 19.8998 22.9041 18.9915C23.0516 18.6766 23.3382 18.0042 23.3915 17.994C23.4828 17.9769 23.4049 18.8294 23.2995 19.1763C22.998 20.17 22.3645 21.1281 21.6185 21.8863C20.8726 22.6445 19.9301 23.2885 18.9527 23.5948C18.6114 23.702 17.7778 23.7533 17.7896 23.6886Z" fill="white"/>
</g>
</g>
<g opacity="0.341537">
<g opacity="0.341537">
<path opacity="0.341537" d="M17.9863 23.6013C18.0044 23.5085 18.8289 23.1764 19.1967 22.9793C19.9333 22.5851 20.6245 22.0724 21.2132 21.4739C21.8831 20.7932 22.4274 19.9912 22.8366 19.1348C22.9786 18.8379 23.2555 18.2043 23.3055 18.1941C23.3913 18.1767 23.3077 18.9764 23.2046 19.3028C22.9098 20.2376 22.3043 21.1433 21.5959 21.8633C20.8877 22.5832 19.9967 23.1986 19.0771 23.4983C18.756 23.6031 17.9745 23.6619 17.9863 23.6013Z" fill="white"/>
</g>
</g>
<g opacity="0.398468">
<g opacity="0.398468">
<path opacity="0.398468" d="M18.1831 23.5139C18.2013 23.4271 18.9748 23.1053 19.3204 22.9162C20.013 22.5377 20.6646 22.0495 21.222 21.4829C21.8563 20.8384 22.3753 20.0824 22.769 19.278C22.9057 18.9991 23.1729 18.4043 23.2197 18.394C23.2998 18.3766 23.2105 19.1234 23.1098 19.4292C22.8215 20.3051 22.2441 21.1586 21.5734 21.8402C20.9027 22.5219 20.0632 23.1088 19.2016 23.4019C18.9007 23.5042 18.1712 23.5706 18.1831 23.5139Z" fill="white"/>
</g>
</g>
<g opacity="0.455383">
<g opacity="0.455383">
<path opacity="0.455383" d="M18.38 23.4265C18.3983 23.3457 19.1206 23.0342 19.4442 22.8529C20.0925 22.4904 20.7049 22.0267 21.231 21.4918C21.8297 20.8835 22.3233 20.1739 22.7015 19.4213C22.8328 19.1604 23.0903 18.6043 23.1338 18.5939C23.2083 18.5765 23.1133 19.2704 23.0149 19.5557C22.7333 20.3727 22.1839 21.1739 21.5508 21.8172C20.9178 22.4606 20.1298 23.019 19.3261 23.3054C19.0455 23.4054 18.368 23.4793 18.38 23.4265Z" fill="white"/>
</g>
</g>
<g opacity="0.512314">
<g opacity="0.512314">
<path opacity="0.512314" d="M18.5768 23.3391C18.5954 23.2644 19.2665 22.9632 19.568 22.7898C20.1722 22.443 20.745 22.0039 21.2399 21.5007C21.803 20.9286 22.2712 20.2653 22.634 19.5645C22.7599 19.3217 23.0078 18.8043 23.048 18.7939C23.1169 18.7763 23.0162 19.4174 22.92 19.6822C22.645 20.4403 22.1238 21.1891 21.5283 21.7942C20.9328 22.3993 20.1964 22.9293 19.4507 23.2089C19.1902 23.3065 18.5649 23.388 18.5768 23.3391Z" fill="white"/>
</g>
</g>
<g opacity="0.569229">
<g opacity="0.569229">
<path opacity="0.569229" d="M18.7736 23.2517C18.7921 23.1829 19.4125 22.8921 19.6918 22.7266C20.2519 22.3957 20.7853 21.981 21.2488 21.5097C21.7763 20.9738 22.2192 20.3566 22.5664 19.7079C22.687 19.4829 22.9252 19.0044 22.9622 18.9939C23.0255 18.9762 22.919 19.5645 22.8253 19.8086C22.5569 20.5078 22.0637 21.2044 21.5058 21.7712C20.948 22.338 20.2631 22.8395 19.5752 23.1124C19.335 23.2077 18.7615 23.2966 18.7736 23.2517Z" fill="white"/>
</g>
</g>
<g opacity="0.62616">
<g opacity="0.62616">
<path opacity="0.62616" d="M18.9704 23.1644C18.9892 23.1015 19.5584 22.8211 19.8156 22.6634C20.3315 22.3484 20.8254 21.9582 21.2578 21.5187C21.7497 21.0189 22.167 20.4479 22.4989 19.8511C22.6141 19.6441 22.8426 19.2043 22.8763 19.1938C22.9339 19.176 22.8218 19.7114 22.7304 19.935C22.4686 20.5755 22.0034 21.2197 21.4832 21.7483C20.963 22.2767 20.3298 22.7498 19.6997 23.0159C19.4796 23.1088 18.9583 23.2053 18.9704 23.1644Z" fill="white"/>
</g>
</g>
<g opacity="0.683075">
<g opacity="0.683075">
<path opacity="0.683075" d="M19.1673 23.077C19.1861 23.0201 19.7043 22.75 19.9394 22.6003C20.4111 22.3009 20.8656 21.9353 21.2667 21.5275C21.723 21.064 22.1149 20.5393 22.4314 19.9943C22.5412 19.8054 22.76 19.4043 22.7905 19.3938C22.8427 19.3759 22.7246 19.8585 22.6355 20.0615C22.3805 20.643 21.9433 21.235 21.4607 21.7252C20.9781 22.2154 20.3964 22.6599 19.8242 22.9194C19.6245 23.0099 19.1551 23.114 19.1673 23.077Z" fill="white"/>
</g>
</g>
<g opacity="0.740005">
<g opacity="0.740005">
<path opacity="0.740005" d="M19.3641 22.9896C19.383 22.9387 19.8502 22.6789 20.0631 22.5371C20.4907 22.2536 20.9058 21.9124 21.2755 21.5365C21.6963 21.1091 22.0629 20.6307 22.3638 20.1376C22.4683 19.9666 22.6774 19.6044 22.7047 19.5938C22.7512 19.5757 22.6275 20.0055 22.5408 20.1879C22.2922 20.7106 21.8832 21.2503 21.4382 21.7022C20.9932 22.1541 20.4629 22.5701 19.9488 22.8229C19.7691 22.9111 19.3519 23.0227 19.3641 22.9896Z" fill="white"/>
</g>
</g>
<path d="M18.5861 8.67418C15.0096 8.67418 13.8106 9.54363 13.4239 10.0131C13.0372 9.54363 11.8382 8.67418 8.26163 8.67418H8.07751V9.24441C7.91247 9.24007 7.74736 9.23855 7.57199 9.23855H7.15472V17.4854H7.57199C11.9844 17.4854 12.8849 18.514 13.0132 18.7049H13.8414C13.9811 18.505 14.8991 17.4854 19.2764 17.4854H19.6935V9.23855H19.2762C19.1004 9.23855 18.9353 9.24036 18.7703 9.2447V8.67418H18.5861ZM8.53791 16.0801V9.14573C12.3216 9.19529 13.0524 10.2488 13.1478 10.4202V17.1135C12.5318 16.6514 11.2394 16.1157 8.53791 16.0801ZM13.7004 10.4224C13.8048 10.2346 14.5561 9.19529 18.3104 9.14595V16.0801C15.6089 16.1157 14.3166 16.6511 13.7004 17.1135V10.4224Z" fill="url(#paint1_linear)"/>
<path d="M18.3104 16.08C15.6089 16.1156 14.3166 16.6511 13.7004 17.1134V10.4224C13.8047 10.2346 14.5561 9.19526 18.3104 9.14599V16.08ZM13.1478 17.1134C12.5318 16.6514 11.2394 16.1156 8.53791 16.08V9.1457C12.3216 9.19526 13.0524 10.2488 13.1478 10.4203V17.1134ZM19.2762 9.23859C19.1004 9.23859 18.9353 9.24033 18.7703 9.24474V8.67422H18.5861C15.0096 8.67422 13.8106 9.5436 13.4239 10.0131C13.0372 9.5436 11.8382 8.67422 8.2617 8.67422H8.07751V9.24445C7.91247 9.24011 7.74743 9.23859 7.57199 9.23859H7.15472V17.4854H7.57199C11.9843 17.4854 12.8849 18.514 13.0132 18.7049H13.8414C13.9811 18.505 14.8991 17.4854 19.2764 17.4854H19.6935V9.23859H19.2762Z" stroke="white" stroke-miterlimit="10" stroke-linecap="round" stroke-linejoin="round"/>
</g>
<defs>
<radialGradient id="paint0_radial" cx="0" cy="0" r="1" gradientUnits="userSpaceOnUse" gradientTransform="translate(8.36992 7.20635) scale(22.2308 22.5981)">
<stop stop-color="white"/>
<stop offset="0.187919" stop-color="white"/>
<stop offset="0.443571" stop-color="white"/>
<stop offset="1" stop-color="#B6B6B7"/>
</radialGradient>
<linearGradient id="paint1_linear" x1="18.9316" y1="17.1647" x2="3.6137" y2="6.92916" gradientUnits="userSpaceOnUse">
<stop stop-color="#515151"/>
<stop offset="0.162071" stop-color="#515151"/>
<stop offset="0.534422" stop-color="#797979"/>
<stop offset="0.668329" stop-color="#797979"/>
<stop offset="0.811518" stop-color="#A8A8A8"/>
<stop offset="0.984293" stop-color="#AFAFAF"/>
<stop offset="1" stop-color="#AFAFAF"/>
</linearGradient>
<clipPath id="clip0">
<rect width="27" height="35" fill="white"/>
</clipPath>
</defs>
</svg>
