<svg width="40" height="63" viewBox="0 0 40 63" fill="none" xmlns="http://www.w3.org/2000/svg">
<path d="M13.3557 54.8019C14.5682 56.2375 15.7599 57.5261 16.8104 58.6068C16.5999 58.2272 16.3872 57.8298 16.1729 57.4175C15.115 56.3564 13.7244 55.19 12.506 53.7751C12.7892 54.1247 13.0731 54.4672 13.3557 54.8019V54.8019Z" fill="#F2B705"/>
<path d="M16.8103 58.6068C16.5998 58.2273 16.3872 57.8298 16.1729 57.4175C16.25 57.4952 16.5224 57.755 16.8953 58.0955C17.0787 58.5241 18.0885 59.6713 18.2692 60.0678C17.8285 59.6382 17.3372 59.1487 16.8103 58.6068V58.6068Z" fill="#F2B705"/>
<path d="M18.2692 60.0678C18.0885 59.6712 17.0787 58.5241 16.8953 58.0955C17.2682 58.436 17.7415 58.8572 18.2203 59.2574C18.336 59.7219 19.3088 60.7347 19.424 61.1687C19.0999 60.8669 18.7099 60.4974 18.2692 60.0678Z" fill="#F2B705"/>
<path d="M19.424 61.1688C20.0722 61.7723 20.457 62.1049 20.457 62.1049C20.4471 61.8608 20.4375 61.6128 20.4283 61.3613C20.3066 61.4506 19.6248 60.9262 18.8224 60.2246C19.0944 60.5901 19.3664 60.9518 19.424 61.1688V61.1688Z" fill="#F2B705"/>
<path d="M18.8223 60.2246C19.6247 60.9262 20.3065 61.4506 20.4282 61.3612C20.419 61.1097 20.4101 60.8546 20.4016 60.5963C20.1582 60.7751 19.1781 60.058 18.2203 59.2574C18.2782 59.4896 18.5503 59.859 18.8223 60.2246Z" fill="#F2B705"/>
<path d="M20.457 62.1049C20.457 62.1049 20.4733 62.0913 20.5034 62.0649C20.4885 61.8248 20.474 61.5812 20.4597 61.3339C20.4421 61.3498 20.4311 61.359 20.4282 61.3613C20.4375 61.6128 20.4471 61.8608 20.457 62.1049V62.1049Z" fill="#F2B705"/>
<path d="M20.4283 61.3613C20.4312 61.359 20.4422 61.3498 20.4598 61.3339C20.4456 61.0866 20.4317 60.8358 20.4181 60.5817C20.4131 60.5871 20.4076 60.5919 20.4017 60.5963C20.4102 60.8546 20.4191 61.1097 20.4283 61.3613Z" fill="#F2B705"/>
<path d="M20.5035 62.0649C20.5502 62.024 20.6313 61.9524 20.7435 61.852C20.8441 61.5514 20.9481 61.2429 21.0526 60.9311C20.8156 61.1397 20.5297 61.2634 20.4598 61.3339C20.4741 61.5812 20.4886 61.8248 20.5035 62.0649V62.0649Z" fill="#F2B705"/>
<path d="M20.4598 61.3339C20.5297 61.2634 20.8155 61.1397 21.0525 60.9311C21.1568 60.6193 21.2615 60.3042 21.3633 59.9903C21.0017 60.3072 20.5112 60.4817 20.4181 60.5817C20.4316 60.8358 20.4455 61.0866 20.4598 61.3339V61.3339Z" fill="#F2B705"/>
<path d="M20.7434 61.8519C21.1467 61.4908 21.9501 60.7563 22.9858 59.734C23.1061 59.4978 23.2912 59.1717 23.4763 58.843C22.405 59.7959 21.533 60.5059 21.0525 60.931C20.9481 61.2429 20.844 61.5513 20.7434 61.8519Z" fill="#F2B705"/>
<path d="M21.0525 60.9311C21.533 60.5059 22.405 59.7959 23.4763 58.8431C23.6616 58.5144 23.847 58.1832 23.9681 57.9366C22.8614 58.8178 21.9211 59.5012 21.3633 59.9903C21.2615 60.3042 21.1568 60.6193 21.0525 60.9311Z" fill="#F2B705"/>
<path d="M22.9857 59.734C23.2264 59.2618 23.7258 58.4296 23.9681 57.9367C25.0747 57.0555 26.3477 55.9764 27.5709 54.6957C27.2902 55.0536 26.9028 55.5445 26.6227 55.8878C25.2897 57.4011 24.0215 58.7116 22.9857 59.734V59.734Z" fill="#F2B705"/>
<path d="M26.6227 55.8878C26.7627 55.7161 26.9296 55.5076 27.0966 55.2973C27.1706 55.2163 27.2447 55.1346 27.3187 55.0523C27.157 55.2527 26.9954 55.4512 26.8551 55.6221C26.7774 55.7113 26.6999 55.7998 26.6227 55.8878V55.8878Z" fill="#F2B705"/>
<path d="M26.8552 55.622C26.933 55.5329 27.011 55.4431 27.089 55.3526C27.1595 55.2679 27.2335 55.1782 27.3094 55.086C27.2325 55.174 27.1556 55.2614 27.0789 55.3482C27.0008 55.4443 26.9253 55.5365 26.8552 55.622V55.622Z" fill="#F2B705"/>
<path d="M27.0789 55.3483C27.1556 55.2614 27.2324 55.1741 27.3093 55.0861C27.3852 54.9939 27.463 54.899 27.5407 54.8036C27.4667 54.8872 27.3927 54.9701 27.3187 55.0523C27.2379 55.1525 27.157 55.2523 27.0789 55.3483V55.3483Z" fill="#F2B705"/>
<path d="M27.0967 55.2973C27.2447 55.1353 27.3928 54.9707 27.5408 54.8036C27.6964 54.6129 27.852 54.4204 27.993 54.2435C27.8532 54.3969 27.7125 54.5476 27.5711 54.6957C27.4307 54.8747 27.2636 55.0869 27.0967 55.2973Z" fill="#F2B705"/>
<path d="M27.089 55.3526C27.1671 55.2621 27.2454 55.1709 27.3237 55.0791C27.3943 54.9951 27.4668 54.9083 27.5402 54.8199C27.4633 54.9093 27.3862 54.998 27.3093 55.086C27.2334 55.1782 27.1594 55.2678 27.089 55.3526V55.3526Z" fill="#F2B705"/>
<path d="M27.3093 55.0861C27.3862 54.9981 27.4632 54.9093 27.5402 54.82C27.6136 54.7315 27.688 54.6414 27.7625 54.5509C27.6887 54.6358 27.6148 54.7201 27.5407 54.8036C27.463 54.899 27.3852 54.9939 27.3093 55.0861V55.0861Z" fill="#F2B705"/>
<path d="M27.3237 55.0792C27.402 54.9874 27.4805 54.8949 27.559 54.8019C27.6296 54.7183 27.7005 54.6341 27.7713 54.5494C27.6943 54.6404 27.6172 54.7305 27.5403 54.82C27.4668 54.9084 27.3943 54.9951 27.3237 55.0792Z" fill="#F2B705"/>
<path d="M27.5402 54.8199C27.6171 54.7305 27.6941 54.6404 27.7712 54.5494C27.842 54.4648 27.9128 54.3797 27.9837 54.2941C27.9101 54.3804 27.8363 54.4659 27.7624 54.5509C27.688 54.6414 27.6136 54.7315 27.5402 54.8199V54.8199Z" fill="#F2B705"/>
<path d="M27.5408 54.8036C27.6964 54.6129 27.8519 54.4204 27.9929 54.2435C28.0628 54.1668 28.1324 54.0894 28.2017 54.0114C28.0603 54.1868 27.9114 54.3698 27.7625 54.5509C27.6887 54.6358 27.6148 54.7201 27.5408 54.8036Z" fill="#F2B705"/>
<path d="M27.7625 54.5508C27.8363 54.4659 27.9101 54.3803 27.9837 54.294C28.0545 54.2085 28.1253 54.1224 28.1962 54.0359C28.126 54.1176 28.0555 54.1985 27.9848 54.279C27.9113 54.3693 27.8369 54.4603 27.7625 54.5508V54.5508Z" fill="#F2B705"/>
<path d="M27.9847 54.279C28.0555 54.1985 28.1259 54.1176 28.1961 54.036C28.2669 53.9495 28.3378 53.8625 28.4086 53.7751C28.3399 53.8545 28.2709 53.9333 28.2016 54.0113C28.1308 54.0991 28.0583 54.1886 27.9847 54.279Z" fill="#F2B705"/>
<path d="M12.5059 53.7751C10.1684 50.8893 7.85846 47.5123 6.43152 44.0794C6.64937 44.301 7.21419 44.6029 7.72457 44.8494C9.01464 48.7186 12.3507 52.5904 14.3996 55.729C13.7674 55.1279 13.1151 54.4826 12.5059 53.7751Z" fill="#F2B705"/>
<path d="M14.3997 55.7291C15.0318 56.3302 15.644 56.887 16.1729 57.4175C15.2928 55.7219 13.7105 53.7657 12.2042 51.6951C11.9397 51.4298 11.3773 51.0214 10.7776 50.5632C12.029 52.4072 13.3752 54.1598 14.3997 55.7291V55.7291Z" fill="#F2B705"/>
<path d="M10.7774 50.5632C11.3772 51.0214 11.9396 51.4298 12.2041 51.6951C10.6978 49.6246 9.26738 47.4397 8.69078 45.2871C8.69078 45.2871 8.23487 45.0959 7.72449 44.8494C8.36952 46.784 9.52606 48.7192 10.7774 50.5632V50.5632Z" fill="#F2B705"/>
<path d="M16.1728 57.4175C15.2927 55.7219 13.7104 53.7657 12.2041 51.6951C12.0068 51.7343 12.3246 51.9109 12.932 52.1471C14.5067 54.3052 16.1486 56.3514 16.9089 58.1079C16.529 57.7613 16.2509 57.4961 16.1728 57.4175V57.4175Z" fill="#F2B705"/>
<path d="M16.909 58.1079C16.1486 56.3514 14.5068 54.3052 12.932 52.1471C13.5394 52.3833 14.4364 52.679 15.3975 52.9567C16.5543 55.23 17.7586 57.3961 18.2553 59.2865C17.7704 58.8825 17.2888 58.4545 16.909 58.1079V58.1079Z" fill="#F2B705"/>
<path d="M12.2041 51.6951C11.8096 51.7736 13.4752 52.4014 15.3975 52.9567C14.2408 50.6834 13.1315 48.3029 12.8249 45.9837C10.0351 45.66 7.74556 45.2871 8.69085 45.2871C9.26745 47.4398 10.6979 49.6246 12.2041 51.6951V51.6951Z" fill="#F2B705"/>
<path d="M18.2553 59.2866C19.2251 60.0947 20.2083 60.8072 20.418 60.5817C20.3048 58.4964 20.2089 56.19 20.132 53.7835C19.4992 53.9949 17.3199 53.512 15.3975 52.9567C16.5542 55.23 17.7586 57.3961 18.2553 59.2866Z" fill="#F2B705"/>
<path d="M15.3976 52.9567C17.32 53.512 19.4993 53.9948 20.1321 53.7835C20.0937 52.5802 20.0601 51.3519 20.0315 50.1137C19.1077 50.3153 16.238 49.9296 13.7925 49.4874C14.2527 50.6566 14.8192 51.8201 15.3976 52.9567Z" fill="#F2B705"/>
<path d="M13.7924 49.4874C16.2379 49.9296 19.1077 50.3153 20.0314 50.1137C20.0028 48.8755 19.9793 47.6274 19.961 46.3845C18.905 46.5817 15.6148 46.3073 12.825 45.9837C12.9782 47.1433 13.3322 48.3182 13.7924 49.4874Z" fill="#F2B705"/>
<path d="M20.4181 60.5817C20.5112 60.4817 21.0017 60.3071 21.3633 59.9903C21.3895 57.9532 21.4261 55.6963 21.4644 53.3393C21.0143 53.5468 20.4475 53.6833 20.1321 53.7835C20.209 56.19 20.3049 58.4964 20.4181 60.5817V60.5817Z" fill="#F2B705"/>
<path d="M20.132 53.7835C20.4475 53.6833 21.0143 53.5468 21.4644 53.3393C21.4835 52.1607 21.5032 50.9571 21.5221 49.7433C21.0111 49.8757 20.4997 50.0135 20.0314 50.1137C20.06 51.3519 20.0936 52.5802 20.132 53.7835Z" fill="#F2B705"/>
<path d="M20.0314 50.1137C20.4997 50.0135 21.0111 49.8757 21.5221 49.7433C21.5411 48.5296 21.5594 47.3057 21.576 46.0866C21.0372 46.1848 20.4988 46.2842 19.9609 46.3845C19.9792 47.6274 20.0028 48.8755 20.0314 50.1137Z" fill="#F2B705"/>
<path d="M21.3633 59.9903C21.9211 59.5012 22.8614 58.8178 23.9681 57.9366C24.259 57.0613 24.5769 56.0898 24.9005 55.0576C23.471 55.7686 22.1826 56.317 21.4093 56.7848C21.3921 57.8983 21.3763 58.9718 21.3633 59.9903Z" fill="#F2B705"/>
<path d="M21.4093 56.7848C22.1827 56.317 23.4711 55.7686 24.9005 55.0576C25.2242 54.0255 25.5537 52.9327 25.8681 51.8147C24.2474 52.4089 22.7119 52.9183 21.4644 53.3393C21.4453 54.5178 21.4265 55.6713 21.4093 56.7848V56.7848Z" fill="#F2B705"/>
<path d="M21.4644 53.3392C22.7119 52.9183 24.2473 52.4089 25.8681 51.8147C26.1824 50.6967 26.4815 49.5535 26.7444 48.4204C24.9795 48.8983 23.2438 49.369 21.5221 49.7433C21.5032 50.9571 21.4835 52.1607 21.4644 53.3392V53.3392Z" fill="#F2B705"/>
<path d="M21.5222 49.7433C23.2439 49.3691 24.9796 48.8983 26.7445 48.4204C27.0073 47.2874 27.234 46.1645 27.4033 45.0874C25.4562 45.3964 23.5133 45.7337 21.5761 46.0866C21.5595 47.3057 21.5412 48.5296 21.5222 49.7433V49.7433Z" fill="#F2B705"/>
<path d="M23.9681 57.9366C25.0748 57.0554 26.3478 55.9764 27.571 54.6957C28.1397 53.9635 28.6988 53.1788 29.2378 52.3552C27.9004 53.4733 26.3299 54.3468 24.9006 55.0576C24.5769 56.0898 24.2591 57.0613 23.9681 57.9366Z" fill="#F2B705"/>
<path d="M24.9005 55.0576C26.3298 54.3469 27.9004 53.4733 29.2377 52.3552C29.7765 51.5317 30.2952 50.6691 30.783 49.7812C29.1946 50.5415 27.4887 51.2205 25.868 51.8147C25.5537 52.9327 25.2242 54.0256 24.9005 55.0576V55.0576Z" fill="#F2B705"/>
<path d="M25.8682 51.8147C26.6785 51.5176 27.5101 51.1993 28.3378 50.8603C28.7238 49.822 29.0839 48.7584 29.4161 47.7094C28.5169 47.9407 27.627 48.1815 26.7445 48.4205C26.4816 49.5535 26.1825 50.6968 25.8682 51.8147V51.8147Z" fill="#F2B705"/>
<path d="M26.7445 48.4205C27.627 48.1815 28.5169 47.9407 29.4161 47.7094C29.7483 46.6605 30.0524 45.6262 30.3266 44.6467C29.3513 44.7855 28.3768 44.9329 27.4033 45.0875C27.234 46.1646 27.0074 47.2874 26.7445 48.4205V48.4205Z" fill="#F2B705"/>
<path d="M28.3376 50.8603C29.1652 50.5212 29.9888 50.1613 30.783 49.7812C31.2708 48.8932 31.7277 47.9799 32.1433 47.0547C31.2235 47.2561 30.315 47.478 29.416 47.7094C29.0838 48.7584 28.7237 49.822 28.3376 50.8603V50.8603Z" fill="#F2B705"/>
<path d="M29.416 47.7094C30.3151 47.478 31.2236 47.2561 32.1434 47.0547C32.5589 46.1296 32.933 45.1926 33.2549 44.2575C32.2782 44.3776 31.302 44.5078 30.3266 44.6467C30.0523 45.6262 29.7482 46.6605 29.416 47.7094V47.7094Z" fill="#F2B705"/>
<path d="M27.571 54.6957C27.7125 54.5476 27.8532 54.3968 27.993 54.2434C28.5695 53.5166 29.1408 52.747 29.6947 51.9454C29.5426 52.0862 29.3891 52.2251 29.2378 52.3552C28.6989 53.1788 28.1397 53.9635 27.571 54.6957V54.6957Z" fill="#F2B705"/>
<path d="M29.2378 52.3552C29.3892 52.2251 29.5426 52.0862 29.6947 51.9454C30.2486 51.1438 30.785 50.3102 31.2917 49.4554C31.1251 49.5727 30.9564 49.6905 30.7831 49.7811C30.2952 50.669 29.7766 51.5316 29.2378 52.3552Z" fill="#F2B705"/>
<path d="M30.783 49.7811C30.9563 49.6905 31.125 49.5728 31.2916 49.4555C32.305 47.7458 33.2 45.9512 33.8788 44.1578C33.6709 44.1893 33.4599 44.2243 33.2549 44.2575C32.6109 46.1278 31.7586 48.0052 30.783 49.7811V49.7811Z" fill="#F2B705"/>
<path d="M27.9929 54.2434C28.1327 54.09 28.2713 53.934 28.4086 53.7751C28.9931 53.0536 29.5758 52.3015 30.1433 51.5255C29.9974 51.6624 29.8467 51.8048 29.6947 51.9454C29.1408 52.747 28.5695 53.5166 27.9929 54.2434Z" fill="#F2B705"/>
<path d="M29.6946 51.9454C29.8466 51.8048 29.9973 51.6624 30.1433 51.5254C30.7108 50.7494 31.2633 49.9495 31.7874 49.1324C31.6226 49.2213 31.4581 49.3382 31.2915 49.4554C30.7848 50.3102 30.2485 51.1438 29.6946 51.9454Z" fill="#F2B705"/>
<path d="M31.2916 49.4554C32.3051 47.7458 33.2 45.9512 33.8788 44.1578C33.9828 44.142 34.0859 44.1272 34.1871 44.114C33.4843 45.8545 32.5699 47.6057 31.5402 49.2833C31.4577 49.3383 31.3749 49.3968 31.2916 49.4554V49.4554Z" fill="#F2B705"/>
<path d="M31.5403 49.2833C32.57 47.6057 33.4843 45.8545 34.1871 44.1139C34.2883 44.1007 34.3875 44.0889 34.4835 44.0794C33.7699 45.7959 32.8356 47.4983 31.7875 49.1324C31.7052 49.1769 31.6228 49.2284 31.5403 49.2833V49.2833Z" fill="#F2B705"/>
<path d="M6.4315 44.0794C5.65031 42.2003 5.13388 40.3042 5.02258 38.4626C5.1782 38.4211 5.59297 38.4509 5.97961 38.4541C6.16507 40.4008 6.97643 42.5743 7.72456 44.8494C7.21417 44.6029 6.64935 44.301 6.4315 44.0794Z" fill="#F2B705"/>
<path d="M7.72456 44.8494C6.97643 42.5743 6.16508 40.4008 5.97961 38.4541C6.36625 38.4574 6.72476 38.4341 6.76789 38.2863C7.02756 40.3381 7.97575 42.6158 8.69086 45.2871C8.69086 45.2871 8.23495 45.0959 7.72456 44.8494Z" fill="#F2B705"/>
<path d="M5.02256 38.4627C5.00764 38.2155 5 37.9692 5 37.7242C5.15088 37.6768 5.5491 37.6995 5.92273 37.6996C5.93045 37.9486 5.95663 38.2079 5.97959 38.4542C5.59295 38.4509 5.17818 38.4211 5.02256 38.4627V38.4627Z" fill="#F2B705"/>
<path d="M5.97959 38.4541C5.95663 38.2079 5.93045 37.9486 5.92273 37.6996C6.29636 37.6996 6.64539 37.6771 6.69796 37.5389C6.71343 37.7919 6.73687 38.0411 6.76787 38.2863C6.72473 38.4341 6.36623 38.4574 5.97959 38.4541V38.4541Z" fill="#F2B705"/>
<path d="M5 37.7242C5.15088 37.6768 5.5491 37.6995 5.92273 37.6996C5.86782 35.8499 6.14193 33.9052 6.82477 31.9921C6.54186 32.0193 6.25951 32.0513 5.94342 32.3021C5.33316 33.9923 5 35.8187 5 37.7242Z" fill="#F2B705"/>
<path d="M5.94348 32.3021C6.55378 30.612 7.44117 29.058 8.54964 27.6973C8.79029 27.4702 9.05096 27.2564 9.32483 27.0533C8.06898 28.5274 7.07367 30.2436 6.39661 32.0632C6.25114 32.106 6.10153 32.1767 5.94348 32.3021Z" fill="#F2B705"/>
<path d="M6.39661 32.0632C7.07367 30.2436 8.06898 28.5274 9.32483 27.0532C9.5987 26.8501 9.88578 26.6576 10.1793 26.4732C8.59922 28.1971 7.50766 30.0788 6.82483 31.9921C6.68337 32.0057 6.54208 32.0205 6.39661 32.0632Z" fill="#F2B705"/>
<path d="M5.92284 37.6996C5.86793 35.8499 6.14205 33.9052 6.82488 31.9921C6.96633 31.9784 7.10791 31.966 7.25389 31.928C6.54647 33.9142 6.33825 35.8598 6.43088 37.6711C6.29034 37.694 6.10966 37.6996 5.92284 37.6996Z" fill="#F2B705"/>
<path d="M6.43087 37.6711C6.33824 35.8598 6.54646 33.9142 7.25389 31.928C7.39984 31.8901 7.5502 31.8266 7.70924 31.7108C6.87859 33.7646 6.58828 35.7451 6.69806 37.5389C6.67176 37.608 6.57137 37.6481 6.43087 37.6711V37.6711Z" fill="#F2B705"/>
<path d="M6.82483 31.9921C7.50766 30.0789 8.59922 28.1971 10.1793 26.4733C10.4728 26.2889 10.7726 26.1126 11.0721 25.9417C9.1679 27.9152 7.96123 29.9419 7.25384 31.9281C7.10785 31.966 6.96628 31.9784 6.82483 31.9921Z" fill="#F2B705"/>
<path d="M7.25378 31.928C7.96117 29.9419 9.16784 27.9152 11.072 25.9417C11.3715 25.7708 11.6705 25.6055 11.9624 25.4429C9.9108 27.5299 8.5398 29.657 7.70914 31.7108C7.5501 31.8266 7.39973 31.8901 7.25378 31.928V31.928Z" fill="#F2B705"/>
<path d="M8.69091 45.2871C7.97581 42.6158 7.02761 40.3381 6.76794 38.2863C6.89038 38.215 7.56621 38.2216 8.56287 38.2693C8.7804 40.3766 8.74797 42.8556 9.35731 45.514C8.55435 45.3803 8.21829 45.2871 8.69091 45.2871V45.2871Z" fill="#F2B705"/>
<path d="M9.35731 45.514C8.74797 42.8556 8.7804 40.3766 8.56287 38.2693C9.55956 38.3171 10.8771 38.4061 12.283 38.4996C12.4078 40.729 12.4484 43.3535 12.825 45.9837C11.4301 45.8219 10.1603 45.6478 9.35731 45.514V45.514Z" fill="#F2B705"/>
<path d="M12.825 45.9837C12.4484 43.3534 12.4077 40.729 12.283 38.4995C13.6889 38.593 15.1831 38.6911 16.5331 38.757C16.5651 41.1086 16.8993 43.7774 17.0432 46.3794C15.7399 46.295 14.2199 46.1455 12.825 45.9837Z" fill="#F2B705"/>
<path d="M17.0431 46.3794C16.8992 43.7774 16.5651 41.1087 16.5331 38.757C17.8831 38.823 19.0889 38.8568 19.918 38.8217C19.9079 41.2289 19.9228 43.7953 19.9609 46.3845C19.4329 46.4831 18.3464 46.4638 17.0431 46.3794V46.3794Z" fill="#F2B705"/>
<path d="M6.76786 38.2863C6.73277 38.0086 6.70738 37.7257 6.69226 37.4381C6.88815 37.3432 7.59859 37.3239 8.60775 37.3459C8.62008 37.6445 8.53346 37.9778 8.56278 38.2693C7.56613 38.2215 6.8903 38.215 6.76786 38.2863V38.2863Z" fill="#F2B705"/>
<path d="M8.56274 38.2693C8.53341 37.9778 8.62004 37.6445 8.6077 37.3459C9.61685 37.3678 10.9247 37.4311 12.3152 37.5015C12.3214 37.8244 12.2661 38.1777 12.2829 38.4995C10.877 38.406 9.55944 38.3171 8.56274 38.2693V38.2693Z" fill="#F2B705"/>
<path d="M12.2829 38.4996C12.2662 38.1778 12.3215 37.8244 12.3153 37.5015C13.7058 37.5719 15.1792 37.6494 16.5193 37.6998C16.5194 38.0469 16.529 38.4049 16.5331 38.757C15.1831 38.6911 13.6888 38.5931 12.2829 38.4996V38.4996Z" fill="#F2B705"/>
<path d="M16.5331 38.757C16.5289 38.4049 16.5194 38.0469 16.5193 37.6997C17.8595 37.7501 19.0664 37.7734 19.9244 37.7353C19.9217 38.0934 19.9196 38.4557 19.918 38.8217C19.0889 38.8568 17.8831 38.8229 16.5331 38.757H16.5331Z" fill="#F2B705"/>
<path d="M6.69228 37.4381C6.59842 35.6542 6.89974 33.6891 7.73263 31.6532C8.11974 31.4454 8.87699 31.2634 9.84328 31.1057C8.96158 33.3017 8.53117 35.4563 8.60777 37.3459C7.59861 37.3239 6.88817 37.3433 6.69228 37.4381V37.4381Z" fill="#F2B705"/>
<path d="M8.6077 37.3459C8.53111 35.4563 8.96151 33.3017 9.84322 31.1057C10.8095 30.948 11.9849 30.8147 13.2085 30.7044C12.6052 33.0304 12.2766 35.3797 12.3152 37.5015C10.9247 37.4311 9.61685 37.3678 8.6077 37.3459Z" fill="#F2B705"/>
<path d="M7.73267 31.6532C8.56555 29.6173 9.93003 27.5105 11.9624 25.4429C12.5407 25.1223 13.1521 24.8482 13.7866 24.6168C12.058 26.6722 10.725 28.9097 9.84332 31.1057C8.87702 31.2634 8.11978 31.4454 7.73267 31.6532V31.6532Z" fill="#F2B705"/>
<path d="M9.84326 31.1057C10.7249 28.9096 12.0579 26.6721 13.7865 24.6168C14.421 24.3853 15.0789 24.1967 15.7501 24.0469C14.6898 26.0756 13.8118 28.3783 13.2085 30.7044C11.985 30.8147 10.8096 30.948 9.84326 31.1057Z" fill="#F2B705"/>
<path d="M12.3153 37.5014C12.238 33.2579 13.6296 28.1043 15.7502 24.0468C16.4214 23.897 17.1061 23.7862 17.7945 23.7104C17.0106 27.7145 16.518 32.9916 16.5194 37.6997C15.1792 37.6494 13.7059 37.5718 12.3153 37.5014V37.5014Z" fill="#F2B705"/>
<path d="M16.5193 37.6997C16.518 32.9916 17.0105 27.7145 17.7944 23.7104C18.4828 23.6346 19.1749 23.5939 19.8609 23.5844C19.6845 27.5643 19.9576 32.816 19.9244 37.7353C19.0664 37.7734 17.8595 37.7501 16.5193 37.6997V37.6997Z" fill="#F2B705"/>
<path d="M19.9609 46.3845C19.917 43.4016 19.9039 40.449 19.9244 37.7353C22.3652 37.4458 24.8502 37.2541 27.3041 37.204C27.2567 39.725 26.9291 42.6803 26.591 45.2179C24.3746 45.5786 22.1638 45.9736 19.9609 46.3845Z" fill="#F2B705"/>
<path d="M26.5911 45.218C26.9291 42.6804 27.2567 39.725 27.3041 37.2041C28.5311 37.1791 29.7502 37.1894 30.9522 37.2407C30.8863 39.6292 30.5204 42.4736 29.9197 44.705C28.809 44.8659 27.6993 45.0377 26.5911 45.218V45.218Z" fill="#F2B705"/>
<path d="M29.9197 44.7051C30.5203 42.4736 30.8863 39.6292 30.9521 37.2407C32.154 37.292 33.3387 37.3842 34.4967 37.5229C34.4225 39.851 33.9749 42.1652 33.2549 44.2575C32.1422 44.3943 31.0304 44.5442 29.9197 44.7051Z" fill="#F2B705"/>
<path d="M19.9245 37.7353C19.9576 32.8161 19.6846 27.5643 19.861 23.5844C21.8396 23.5572 23.922 23.7618 25.913 24.2837C26.9861 27.7608 27.3815 32.8385 27.3041 37.2041C24.8503 37.2541 22.3653 37.4458 19.9245 37.7353V37.7353Z" fill="#F2B705"/>
<path d="M27.3041 37.204C27.3814 32.8385 26.9861 27.7608 25.913 24.2837C26.9084 24.5446 27.8811 24.8849 28.8066 25.3153C30.7386 28.4468 31.0599 33.2558 30.9522 37.2407C29.7502 37.1894 28.5311 37.179 27.3041 37.204V37.204Z" fill="#F2B705"/>
<path d="M30.9523 37.2407C31.0599 33.2558 30.7387 28.4468 28.8066 25.3153C29.732 25.7456 30.6101 26.2661 31.4165 26.8872C33.7392 29.8616 34.6184 33.7109 34.4968 37.5228C33.3389 37.3842 32.1542 37.292 30.9523 37.2407V37.2407Z" fill="#F2B705"/>
<path d="M33.2549 44.2575C33.9638 42.1975 34.4086 39.9224 34.493 37.6308C34.6128 37.6359 34.7332 37.641 34.8535 37.6468C34.7823 39.9039 34.3023 42.1358 33.5657 44.207C33.4614 44.2238 33.3574 44.2409 33.2549 44.2575Z" fill="#F2B705"/>
<path d="M33.5658 44.207C34.3024 42.1358 34.7824 39.9039 34.8536 37.6468C34.974 37.6525 35.0942 37.6588 35.2137 37.666C35.1716 39.8471 34.6764 42.0622 33.8789 44.1578C33.7749 44.1736 33.6702 44.1901 33.5658 44.207V44.207Z" fill="#F2B705"/>
<path d="M33.8788 44.1578C34.0866 44.1263 34.2913 44.0985 34.4834 44.0794C34.9265 43.0137 35.2843 41.9426 35.5315 40.879C35.3221 40.8758 35.0774 40.9081 34.8294 40.9439C34.6007 42.0323 34.2776 43.11 33.8788 44.1578V44.1578Z" fill="#F2B705"/>
<path d="M34.8296 40.9439C35.0776 40.908 35.3223 40.8758 35.5316 40.879C35.7788 39.8155 35.9152 38.7595 35.9152 37.7242C35.6886 37.6987 35.4528 37.6804 35.2138 37.666C35.1927 38.7565 35.0584 39.8556 34.8296 40.9439Z" fill="#F2B705"/>
<path d="M34.4931 37.6307C34.7326 37.6409 34.9747 37.6516 35.2137 37.666C35.2492 35.7515 34.9911 33.8703 34.4389 32.11C34.2656 32.0583 34.0892 32.0106 33.8872 31.9422C34.381 33.7719 34.564 35.7072 34.4931 37.6307V37.6307Z" fill="#F2B705"/>
<path d="M33.8872 31.9422C34.0892 32.0106 34.2656 32.0583 34.4389 32.1101C33.8868 30.3498 33.0408 28.7103 31.9004 27.2793C31.7423 27.1444 31.581 27.0138 31.4165 26.8872C32.5888 28.3885 33.3934 30.1126 33.8872 31.9422V31.9422Z" fill="#F2B705"/>
<path d="M35.2138 37.666C35.4527 37.6804 35.6885 37.6987 35.9152 37.7242C35.9152 35.8187 35.5819 33.9924 34.9715 32.3023C34.7824 32.2176 34.6123 32.1618 34.439 32.11C34.9911 33.8703 35.2492 35.7515 35.2138 37.666Z" fill="#F2B705"/>
<path d="M34.439 32.11C34.6123 32.1618 34.7824 32.2176 34.9715 32.3023C34.6664 31.4572 34.2919 30.6462 33.8552 29.8763C33.6917 29.751 33.5427 29.659 33.3903 29.5712C33.8133 30.3799 34.1629 31.2299 34.439 32.11V32.11Z" fill="#F2B705"/>
<path d="M33.3902 29.5712C33.5426 29.6589 33.6916 29.751 33.8551 29.8763C33.4184 29.1065 32.9194 28.3777 32.3652 27.6973C32.2135 27.5535 32.0585 27.4142 31.9004 27.2793C32.4706 27.9948 32.9672 28.7624 33.3902 29.5712V29.5712Z" fill="#F2B705"/>
<path d="M8.54956 27.6973C8.70414 27.5076 8.86295 27.3216 9.02592 27.1395C9.26256 26.9077 9.51598 26.6879 9.78102 26.4782C9.63105 26.6704 9.48263 26.8652 9.32475 27.0532C9.05087 27.2564 8.79021 27.4702 8.54956 27.6973V27.6973Z" fill="#F2B705"/>
<path d="M9.32483 27.0533C9.5987 26.8501 9.88579 26.6576 10.1793 26.4733C10.2619 26.3811 10.3364 26.2836 10.4064 26.1835C10.1142 26.3691 9.82845 26.5628 9.55593 26.7673C9.48033 26.8635 9.40377 26.9592 9.32483 27.0533V27.0533Z" fill="#F2B705"/>
<path d="M9.55591 26.7673C9.82843 26.5628 10.1142 26.3691 10.4063 26.1835C10.4763 26.0833 10.5417 25.9804 10.606 25.8774C10.3228 26.0689 10.0461 26.2685 9.78108 26.4782C9.70608 26.5743 9.63151 26.671 9.55591 26.7673V26.7673Z" fill="#F2B705"/>
<path d="M9.026 27.1395C9.49926 26.6758 10.0397 26.2603 10.6061 25.8774C10.7348 25.6715 10.8596 25.465 11.0087 25.2785C10.4874 25.6887 9.99266 26.1319 9.52743 26.6051C9.35618 26.7792 9.18902 26.9575 9.026 27.1395V27.1395Z" fill="#F2B705"/>
<path d="M10.1793 26.4733C10.4728 26.2889 10.7727 26.1126 11.0721 25.9417C11.1584 25.8514 11.231 25.7522 11.2954 25.6483C10.9972 25.8203 10.6986 25.9979 10.4064 26.1835C10.3365 26.2836 10.2619 26.3811 10.1793 26.4733V26.4733Z" fill="#F2B705"/>
<path d="M10.4062 26.1835C10.6984 25.9979 10.997 25.8203 11.2953 25.6483C11.3597 25.5443 11.4161 25.4355 11.47 25.3258C11.1789 25.5028 10.8892 25.6861 10.606 25.8775C10.5416 25.9804 10.4762 26.0833 10.4062 26.1835Z" fill="#F2B705"/>
<path d="M11.0721 25.9417C11.3716 25.7708 11.6707 25.6054 11.9625 25.4429C12.0504 25.3534 12.1214 25.2527 12.1824 25.1458C11.8917 25.3096 11.5937 25.4762 11.2954 25.6483C11.231 25.7522 11.1584 25.8513 11.0721 25.9417Z" fill="#F2B705"/>
<path d="M11.2954 25.6483C11.5937 25.4762 11.8916 25.3096 12.1824 25.1458C12.2434 25.039 12.2945 24.9259 12.3424 24.8116C12.0537 24.978 11.7613 25.1488 11.4702 25.3258C11.4162 25.4355 11.3599 25.5443 11.2954 25.6483Z" fill="#F2B705"/>
<path d="M10.6061 25.8775C10.7348 25.6715 10.8596 25.465 11.0087 25.2786C11.2693 25.0735 11.5365 24.8767 11.81 24.6886C11.6762 24.8836 11.578 25.1065 11.4702 25.3258C11.1791 25.5028 10.8893 25.6861 10.6061 25.8775V25.8775Z" fill="#F2B705"/>
<path d="M11.4702 25.3259C11.7613 25.1489 12.0538 24.9781 12.3425 24.8116C12.3904 24.6973 12.4353 24.5818 12.4841 24.47C12.1975 24.6391 11.912 24.8149 11.6304 24.9981C11.5757 25.1056 11.5241 25.2162 11.4702 25.3259V25.3259Z" fill="#F2B705"/>
<path d="M11.6304 24.9981C11.912 24.8148 12.1975 24.6391 12.484 24.47C12.5328 24.3582 12.5854 24.2501 12.6489 24.1507C12.3633 24.321 12.0836 24.5005 11.8101 24.6886C11.7431 24.7861 11.6851 24.8906 11.6304 24.9981V24.9981Z" fill="#F2B705"/>
<path d="M11.9624 25.4429C12.5407 25.1222 13.152 24.8481 13.7866 24.6167C13.8618 24.5197 13.9194 24.4137 13.9671 24.3029C13.3514 24.5443 12.7547 24.825 12.1824 25.1459C12.1214 25.2527 12.0503 25.3534 11.9624 25.4429V25.4429Z" fill="#F2B705"/>
<path d="M12.1824 25.1459C12.7547 24.825 13.3514 24.5443 13.9671 24.3029C14.0148 24.1921 14.0525 24.0764 14.0877 23.96C13.4849 24.2062 12.9015 24.4902 12.3424 24.8116C12.2944 24.9259 12.2434 25.039 12.1824 25.1459V25.1459Z" fill="#F2B705"/>
<path d="M13.7865 24.6168C13.9369 24.4226 14.0172 24.1929 14.0876 23.96C14.6904 23.7137 15.3126 23.5053 15.9495 23.3351C15.8994 23.5769 15.8443 23.8194 15.7501 24.0469C15.0788 24.1967 14.421 24.3854 13.7865 24.6168Z" fill="#F2B705"/>
<path d="M12.3424 24.8116C12.9015 24.4902 13.4849 24.2062 14.0877 23.96C14.1228 23.8435 14.1555 23.7262 14.1932 23.6122C13.6013 23.8618 13.0299 24.1481 12.484 24.47C12.4352 24.5818 12.3904 24.6973 12.3424 24.8116V24.8116Z" fill="#F2B705"/>
<path d="M12.484 24.47C13.03 24.1481 13.6013 23.8618 14.1932 23.6122C14.2309 23.4982 14.2736 23.3875 14.3288 23.2841C13.7496 23.5388 13.1888 23.8286 12.6489 24.1507C12.5854 24.2501 12.5328 24.3582 12.484 24.47Z" fill="#F2B705"/>
<path d="M14.0876 23.96C14.158 23.727 14.2184 23.4909 14.3288 23.2841C14.908 23.0293 15.5054 22.8096 16.1188 22.6275C16.0447 22.8521 15.9996 23.0932 15.9496 23.3351C15.3127 23.5053 14.6905 23.7137 14.0876 23.96Z" fill="#F2B705"/>
<path d="M15.7501 24.0469C15.8443 23.8194 15.8995 23.5769 15.9495 23.3351C16.5864 23.1649 17.2379 23.0329 17.8991 22.9398C17.8659 23.1924 17.8325 23.4497 17.7944 23.7104C17.1061 23.7862 16.4214 23.897 15.7501 24.0469Z" fill="#F2B705"/>
<path d="M17.7944 23.7104C17.8325 23.4497 17.8659 23.1924 17.8991 22.9398C18.5604 22.8466 19.2315 22.7921 19.9075 22.7769C19.8894 23.0395 19.8734 23.3086 19.8609 23.5844C19.1749 23.5939 18.4828 23.6346 17.7944 23.7104Z" fill="#F2B705"/>
<path d="M15.9496 23.3351C15.9996 23.0932 16.0447 22.8521 16.1188 22.6275C16.7321 22.4454 17.3611 22.301 18.0034 22.1968C17.9656 22.4391 17.9324 22.6871 17.8992 22.9398C17.2379 23.033 16.5864 23.1649 15.9496 23.3351V23.3351Z" fill="#F2B705"/>
<path d="M17.8992 22.9399C17.9324 22.6872 17.9656 22.4392 18.0034 22.1969C18.6457 22.0927 19.3012 22.0287 19.9673 22.0077C19.9461 22.2581 19.9258 22.5144 19.9076 22.777C19.2315 22.7923 18.5604 22.8467 17.8992 22.9399V22.9399Z" fill="#F2B705"/>
<path d="M19.8608 23.5844C20.0261 23.5822 20.1921 23.5815 20.3587 23.5825C20.3811 23.0288 20.4193 22.5034 20.4569 22C20.2933 22 20.1297 22.0022 19.9672 22.0076C19.9247 22.5084 19.8859 23.0327 19.8608 23.5844V23.5844Z" fill="#F2B705"/>
<path d="M20.3588 23.5825C24.1813 23.6057 28.3255 24.5063 31.4165 26.8872C31.116 26.5032 30.8844 26.1679 30.5521 25.8159C27.8435 23.4377 24.3152 22 20.457 22C20.4194 22.5034 20.3811 23.0288 20.3588 23.5825V23.5825Z" fill="#F2B705"/>
<path d="M31.4164 26.8872C31.7454 27.1403 32.0616 27.4097 32.3652 27.6973C32.0559 27.3179 31.7298 26.9534 31.3874 26.6051C31.1183 26.3319 30.8396 26.0688 30.552 25.8159C30.8843 26.1679 31.1159 26.5032 31.4164 26.8872Z" fill="#F2B705"/>
<g opacity="0.98">
<g opacity="0.98">
<g opacity="0.98">
<g opacity="0.98">
<path opacity="0.98" d="M7.17212 37.6865C7.17212 45.1504 13.12 51.2008 20.457 51.2008C27.7944 51.2008 33.7421 45.1504 33.7421 37.6865C33.7421 30.2224 27.7944 24.1718 20.457 24.1718C13.12 24.1718 7.17212 30.2224 7.17212 37.6865Z" fill="#F28705"/>
</g>
</g>
</g>
</g>
<path d="M8.14087 37.6865C8.14087 44.6064 13.6546 50.2158 20.457 50.2158C27.2591 50.2158 32.7737 44.6064 32.7737 37.6865C32.7737 30.7669 27.2591 25.1572 20.457 25.1572C13.6546 25.1572 8.14087 30.7669 8.14087 37.6865" fill="#F28705"/>
<path d="M8.64001 37.6865C8.64001 44.3258 13.9306 49.7078 20.4571 49.7078C26.9839 49.7078 32.2749 44.3258 32.2749 37.6865C32.2749 31.0471 26.9839 25.6647 20.4571 25.6647C13.9306 25.6647 8.64001 31.0471 8.64001 37.6865" fill="url(#paint0_radial)"/>
<g opacity="0.0546112">
<g opacity="0.0546112">
<path opacity="0.0546112" d="M17.196 23.6097C17.1725 23.8065 15.4458 24.3841 14.6834 24.7472C13.1571 25.4739 11.7483 26.4642 10.5752 27.6576C9.24075 29.0151 8.19662 30.6566 7.45409 32.4381C7.19691 33.056 6.70357 34.3787 6.59633 34.3922C6.41469 34.415 6.4626 32.7002 6.63096 32.0123C7.11346 30.0414 8.27232 28.1863 9.68381 26.7504C11.095 25.3144 12.9186 24.136 14.8563 23.6451C15.5325 23.4739 17.2115 23.4802 17.196 23.6097Z" fill="white"/>
</g>
</g>
<g opacity="0.109238">
<g opacity="0.109238">
<path opacity="0.109238" d="M17.0483 23.6306C17.0237 23.823 15.3323 24.3991 14.5847 24.759C13.0876 25.4797 11.704 26.4571 10.5495 27.6315C9.23628 28.9674 8.20503 30.5793 7.46771 32.3259C7.2124 32.9317 6.72159 34.2282 6.61671 34.242C6.43899 34.2656 6.49676 32.5887 6.66569 31.9151C7.1499 29.9848 8.29467 28.1635 9.68374 26.7504C11.0725 25.3373 12.8631 24.173 14.7605 23.6805C15.4227 23.5086 17.064 23.5038 17.0483 23.6306Z" fill="white"/>
</g>
</g>
<g opacity="0.163849">
<g opacity="0.163849">
<path opacity="0.163849" d="M16.9006 23.6515C16.8753 23.8397 15.2187 24.4142 14.4858 24.7711C13.0182 25.4854 11.6598 26.45 10.5239 27.6055C9.23179 28.92 8.21341 30.502 7.48139 32.2137C7.22796 32.8075 6.73975 34.0778 6.63708 34.0919C6.46326 34.1161 6.53082 32.4772 6.70039 31.8178C7.18632 29.9284 8.31699 28.1408 9.68373 26.7506C11.0501 25.3601 12.8074 24.2103 14.6649 23.7159C15.313 23.5434 16.9168 23.5274 16.9006 23.6515Z" fill="white"/>
</g>
</g>
<g opacity="0.21846">
<g opacity="0.21846">
<path opacity="0.21846" d="M16.7529 23.6723C16.7269 23.8563 15.1051 24.4292 14.387 24.7829C12.9487 25.4912 11.6156 26.4429 10.4983 27.5794C9.22728 28.8724 8.22178 30.4246 7.49513 32.1015C7.24349 32.6832 6.7579 33.9272 6.65758 33.9418C6.48752 33.9667 6.56501 32.3656 6.73516 31.7205C7.2228 29.8718 8.33937 28.118 9.6837 26.7505C11.0277 25.3829 12.7518 24.2474 14.5692 23.7513C15.2033 23.5781 16.7697 23.5511 16.7529 23.6723Z" fill="white"/>
</g>
</g>
<g opacity="0.273071">
<g opacity="0.273071">
<path opacity="0.273071" d="M16.6054 23.6932C16.5785 23.8729 14.9916 24.4443 14.2883 24.7949C12.8794 25.497 11.5714 26.4358 10.4726 27.5535C9.2228 28.8249 8.23018 30.3473 7.50891 31.9894C7.25907 32.559 6.77608 33.7767 6.67805 33.7917C6.51197 33.8172 6.59916 32.2541 6.76997 31.6233C7.25931 29.8154 8.3617 28.0954 9.68379 26.7506C11.0054 25.4058 12.6962 24.2846 14.4734 23.7867C15.0936 23.6129 16.6226 23.5747 16.6054 23.6932Z" fill="white"/>
</g>
</g>
<g opacity="0.327698">
<g opacity="0.327698">
<path opacity="0.327698" d="M16.4577 23.714C16.4303 23.8895 14.8781 24.4594 14.1896 24.8068C12.81 25.5026 11.5272 26.4287 10.4471 27.5273C9.21844 28.7773 8.23861 30.2698 7.52265 31.8771C7.27467 32.4347 6.79429 33.6261 6.69846 33.6415C6.5363 33.6678 6.63335 32.1426 6.80472 31.5259C7.29578 29.7588 8.38415 28.0726 9.68375 26.7507C10.983 25.4286 12.6407 24.3218 14.3778 23.8221C14.984 23.6476 16.4755 23.5983 16.4577 23.714Z" fill="white"/>
</g>
</g>
<g opacity="0.382309">
<g opacity="0.382309">
<path opacity="0.382309" d="M16.3101 23.7349C16.2819 23.9062 14.7646 24.4744 14.0907 24.8188C12.7406 25.5084 11.4829 26.4215 10.4214 27.5014C9.21394 28.7298 8.24698 30.1926 7.53631 31.7649C7.29013 32.3104 6.81236 33.4756 6.71881 33.4914C6.56056 33.5183 6.66747 32.0312 6.83941 31.4287C7.33218 29.7023 8.40646 28.0499 9.68373 26.7507C10.9606 25.4515 12.5851 24.3589 14.282 23.8575C14.8743 23.6824 16.3283 23.622 16.3101 23.7349Z" fill="white"/>
</g>
</g>
<g opacity="0.43692">
<g opacity="0.43692">
<path opacity="0.43692" d="M16.1624 23.7558C16.1335 23.9229 14.651 24.4895 13.9918 24.8308C12.6712 25.5142 11.4386 26.4145 10.3957 27.4754C9.20942 28.6822 8.25533 30.1153 7.54996 31.6527C7.30565 32.1862 6.83049 33.3251 6.73922 33.3413C6.58488 33.3689 6.70157 31.9196 6.87425 31.3314C7.36865 29.6459 8.42883 28.0271 9.68368 26.7508C10.9382 25.4743 12.5295 24.3961 14.1863 23.8928C14.7646 23.7172 16.1811 23.6456 16.1624 23.7558Z" fill="white"/>
</g>
</g>
<g opacity="0.491531">
<g opacity="0.491531">
<path opacity="0.491531" d="M16.0146 23.7767C15.985 23.9394 14.5374 24.5046 13.893 24.8426C12.6016 25.5199 11.3944 26.4073 10.37 27.4493C9.20491 28.6345 8.26363 30.0378 7.56355 31.5404C7.32112 32.0619 6.84856 33.1745 6.75957 33.1911C6.60906 33.2194 6.7357 31.808 6.90886 31.2341C7.40505 29.5893 8.45114 28.0044 9.68358 26.7509C10.9157 25.497 12.4738 24.4331 14.0905 23.9282C14.6548 23.7519 16.0339 23.6692 16.0146 23.7767Z" fill="white"/>
</g>
</g>
<g opacity="0.546158">
<g opacity="0.546158">
<path opacity="0.546158" d="M15.8669 23.7975C15.8366 23.9561 14.4239 24.5196 13.7941 24.8546C12.5322 25.5257 11.3501 26.4002 10.3443 27.4232C9.20036 28.587 8.27194 29.9606 7.57725 31.4283C7.33661 31.9377 6.86666 33.024 6.77995 33.041C6.63335 33.07 6.76968 31.6966 6.94358 31.1369C7.4414 29.5329 8.47347 27.9817 9.68351 26.7509C10.8933 25.5199 12.4181 24.4704 13.9948 23.9636C14.545 23.7867 15.8867 23.6929 15.8669 23.7975Z" fill="white"/>
</g>
</g>
<g opacity="0.600769">
<g opacity="0.600769">
<path opacity="0.600769" d="M15.7193 23.8183C15.6883 23.9726 14.3104 24.5347 13.6954 24.8665C12.4629 25.5314 11.3059 26.3931 10.3187 27.3971C9.19594 28.5395 8.28041 29.8832 7.59101 31.316C7.35224 31.8133 6.88482 32.8734 6.80048 32.8908C6.65771 32.9204 6.80398 31.585 6.97837 31.0395C7.4779 29.4762 8.49578 27.9589 9.68358 26.7509C10.8709 25.5427 12.3626 24.5075 13.8992 23.999C14.4354 23.8214 15.7396 23.7165 15.7193 23.8183Z" fill="white"/>
</g>
</g>
<g opacity="0.65538">
<g opacity="0.65538">
<path opacity="0.65538" d="M15.5717 23.8392C15.54 23.9893 14.1968 24.5497 13.5966 24.8785C12.3934 25.5371 11.2616 26.386 10.2931 27.3711C9.19143 28.4919 8.28877 29.806 7.60475 31.2039C7.36769 31.6891 6.90304 32.723 6.82082 32.7408C6.68204 32.771 6.83809 31.4735 7.01313 30.9422C7.51437 29.4197 8.51816 27.9362 9.68355 26.751C10.8486 25.5656 12.307 24.5447 13.8035 24.0344C14.3257 23.8562 15.5924 23.7402 15.5717 23.8392Z" fill="white"/>
</g>
</g>
<g opacity="0.710007">
<g opacity="0.710007">
<path opacity="0.710007" d="M15.424 23.8601C15.3915 24.0059 14.0833 24.5648 13.4977 24.8904C12.3239 25.5429 11.2173 26.379 10.2674 27.3451C9.18692 28.4444 8.29714 29.7286 7.61841 31.0917C7.38323 31.5649 6.9211 32.5724 6.84124 32.5907C6.7063 32.6216 6.87221 31.362 7.04782 30.845C7.55077 29.3633 8.54055 27.9135 9.68352 26.7511C10.8261 25.5884 12.2514 24.5818 13.7077 24.0698C14.216 23.8909 15.4452 23.7638 15.424 23.8601Z" fill="white"/>
</g>
</g>
<g opacity="0.0569305">
<g opacity="0.0569305">
<path opacity="0.0569305" d="M24.4678 49.5442C24.4879 49.4039 25.7239 48.9639 26.2716 48.6929C27.3681 48.1505 28.3851 47.4226 29.2382 46.5549C30.2091 45.5675 30.9779 44.3836 31.5348 43.1049C31.7281 42.6617 32.1006 41.7135 32.1766 41.7021C32.3067 41.6828 32.2438 42.902 32.1125 43.3938C31.737 44.8021 30.883 46.1397 29.8565 47.1839C28.8302 48.2284 27.5151 49.0966 26.1306 49.4785C25.6473 49.6121 24.4546 49.6363 24.4678 49.5442Z" fill="white"/>
</g>
</g>
<g opacity="0.113846">
<g opacity="0.113846">
<path opacity="0.113846" d="M24.6931 49.4441C24.7133 49.3105 25.8909 48.8825 26.4133 48.6206C27.4592 48.0963 28.4311 47.3965 29.2484 46.5651C30.1785 45.6192 30.9183 44.4883 31.4574 43.2691C31.6446 42.8465 32.0061 41.9427 32.0782 41.9313C32.202 41.9119 32.1325 43.0705 32.0038 43.5387C31.6359 44.8795 30.8141 46.1573 29.8307 47.1577C28.8474 48.1581 27.5913 48.9938 26.2732 49.368C25.8129 49.4989 24.6798 49.5318 24.6931 49.4441Z" fill="white"/>
</g>
</g>
<g opacity="0.170776">
<g opacity="0.170776">
<path opacity="0.170776" d="M24.9183 49.344C24.939 49.2173 26.0579 48.8011 26.5549 48.5481C27.5502 48.0421 28.4771 47.3703 29.2585 46.5753C30.1478 45.6708 30.8585 44.5928 31.3799 43.4332C31.561 43.0312 31.9113 42.1718 31.9797 42.1603C32.0972 42.1408 32.0211 43.2389 31.8951 43.6835C31.5347 44.9569 30.7451 46.1748 29.8048 47.1313C28.8646 48.0879 27.6674 48.8908 26.4155 49.2574C25.9786 49.3855 24.9051 49.427 24.9183 49.344Z" fill="white"/>
</g>
</g>
<g opacity="0.227692">
<g opacity="0.227692">
<path opacity="0.227692" d="M25.1437 49.2439C25.1641 49.1239 26.2251 48.7197 26.6967 48.4758C27.6414 47.9879 28.5231 47.3441 29.2688 46.5856C30.1173 45.7226 30.7988 44.6977 31.3027 43.5974C31.4775 43.216 31.8169 42.4011 31.8816 42.3895C31.9925 42.3699 31.9099 43.4074 31.7866 43.8284C31.4337 45.0345 30.6763 46.1922 29.7791 47.1048C28.8819 48.0176 27.7437 48.788 26.5582 49.1469C26.1444 49.2723 25.1303 49.3224 25.1437 49.2439Z" fill="white"/>
</g>
</g>
<g opacity="0.284622">
<g opacity="0.284622">
<path opacity="0.284622" d="M25.369 49.1437C25.3897 49.0306 26.3921 48.6382 26.8385 48.4033C27.7326 47.9335 28.5691 47.3179 29.2789 46.5958C30.0868 45.7743 30.7391 44.8022 31.2252 43.7615C31.3941 43.4007 31.7223 42.6302 31.7833 42.6185C31.8878 42.5989 31.7986 43.5758 31.678 43.9733C31.3328 45.1119 30.6074 46.2097 29.7532 47.0785C28.8991 47.9473 27.82 48.6852 26.7008 49.0362C26.3101 49.159 25.3556 49.2178 25.369 49.1437Z" fill="white"/>
</g>
</g>
<g opacity="0.341537">
<g opacity="0.341537">
<path opacity="0.341537" d="M25.5945 49.0437C25.6152 48.9374 26.5593 48.5568 26.9803 48.331C27.8238 47.8793 28.6152 47.2918 29.2892 46.6061C30.0563 45.8261 30.6795 44.907 31.148 43.9257C31.3107 43.5855 31.6278 42.8595 31.685 42.8478C31.7832 42.8279 31.6875 43.7443 31.5694 44.1182C31.2319 45.1893 30.5386 46.2272 29.7275 47.0522C28.9166 47.8771 27.8963 48.5823 26.8434 48.9257C26.4758 49.0457 25.581 49.1131 25.5945 49.0437Z" fill="white"/>
</g>
</g>
<g opacity="0.398468">
<g opacity="0.398468">
<path opacity="0.398468" d="M25.8199 48.9435C25.8407 48.8441 26.7263 48.4754 27.122 48.2586C27.915 47.825 28.6612 47.2656 29.2994 46.6163C30.0257 45.8778 30.6199 45.0116 31.0707 44.0899C31.2272 43.7703 31.5332 43.0887 31.5867 43.0768C31.6785 43.0569 31.5762 43.9127 31.4609 44.2631C31.1308 45.2668 30.4697 46.2447 29.7017 47.0258C28.9337 47.8068 27.9726 48.4794 26.9861 48.8152C26.6415 48.9324 25.8062 49.0085 25.8199 48.9435Z" fill="white"/>
</g>
</g>
<g opacity="0.455383">
<g opacity="0.455383">
<path opacity="0.455383" d="M26.0452 48.8434C26.0662 48.7509 26.8933 48.3939 27.2637 48.1862C28.0061 47.7708 28.7072 47.2394 29.3096 46.6265C29.9952 45.9295 30.5603 45.1164 30.9934 44.254C31.1437 43.9551 31.4386 43.3178 31.4884 43.306C31.5737 43.286 31.4649 44.0812 31.3522 44.408C31.0298 45.3442 30.4007 46.2622 29.6758 46.9994C28.9511 47.7366 28.0488 48.3765 27.1285 48.7046C26.8072 48.8192 26.0315 48.9039 26.0452 48.8434Z" fill="white"/>
</g>
</g>
<g opacity="0.512314">
<g opacity="0.512314">
<path opacity="0.512314" d="M26.2706 48.7432C26.2918 48.6576 27.0603 48.3125 27.4055 48.1139C28.0973 47.7165 28.7532 47.2133 29.3198 46.6367C29.9646 45.9812 30.5006 45.2211 30.9161 44.4181C31.0602 44.1398 31.344 43.547 31.3901 43.5351C31.469 43.515 31.3537 44.2496 31.2436 44.5529C30.9287 45.4217 30.3319 46.2797 29.65 46.973C28.9682 47.6664 28.125 48.2736 27.2711 48.594C26.9729 48.7059 26.2569 48.7993 26.2706 48.7432Z" fill="white"/>
</g>
</g>
<g opacity="0.569229">
<g opacity="0.569229">
<path opacity="0.569229" d="M26.4958 48.6431C26.517 48.5643 27.2274 48.2311 27.5471 48.0414C28.1884 47.6623 28.7992 47.1871 29.3299 46.647C29.934 46.0329 30.441 45.3257 30.8386 44.5824C30.9767 44.3245 31.2494 43.7763 31.2918 43.7642C31.3643 43.744 31.2423 44.4181 31.135 44.6978C30.8276 45.499 30.2629 46.2972 29.6242 46.9467C28.9855 47.5962 28.2013 48.1708 27.4136 48.4834C27.1386 48.5927 26.482 48.6946 26.4958 48.6431Z" fill="white"/>
</g>
</g>
<g opacity="0.62616">
<g opacity="0.62616">
<path opacity="0.62616" d="M26.7212 48.543C26.7427 48.471 27.3944 48.1497 27.6889 47.969C28.2796 47.608 28.8451 47.1609 29.3402 46.6573C29.9034 46.0846 30.3813 45.4304 30.7613 44.7465C30.8932 44.5093 31.1548 44.0054 31.1934 43.9933C31.2594 43.9729 31.131 44.5864 31.0264 44.8426C30.7266 45.5765 30.1939 46.3147 29.5983 46.9204C29.0027 47.5259 28.2776 48.0679 27.5562 48.3729C27.3042 48.4794 26.7073 48.5899 26.7212 48.543Z" fill="white"/>
</g>
</g>
<g opacity="0.683075">
<g opacity="0.683075">
<path opacity="0.683075" d="M26.9466 48.4429C26.9681 48.3777 27.5615 48.0682 27.8306 47.8966C28.3707 47.5536 28.8911 47.1346 29.3503 46.6674C29.8728 46.1362 30.3216 45.5351 30.6839 44.9106C30.8097 44.6941 31.0602 44.2346 31.0951 44.2224C31.1549 44.202 31.0197 44.7549 30.9177 44.9875C30.6257 45.6538 30.1251 46.3322 29.5726 46.8939C29.02 47.4556 28.3539 47.9649 27.6987 48.2623C27.47 48.366 26.9326 48.4853 26.9466 48.4429Z" fill="white"/>
</g>
</g>
<g opacity="0.740005">
<g opacity="0.740005">
<path opacity="0.740005" d="M27.1719 48.3427C27.1936 48.2845 27.7285 47.9868 27.9723 47.8243C28.4619 47.4994 28.9372 47.1085 29.3605 46.6777C29.8423 46.188 30.262 45.6398 30.6066 45.0747C30.7263 44.8788 30.9657 44.4638 30.9969 44.4517C31.0502 44.4309 30.9086 44.9234 30.8092 45.1324C30.5247 45.7314 30.0563 46.3497 29.5468 46.8676C29.0373 47.3854 28.4301 47.8621 27.8414 48.1517C27.6357 48.2528 27.1579 48.3807 27.1719 48.3427Z" fill="white"/>
</g>
</g>
<path d="M26.2812 31.9394C22.1861 31.9394 20.8133 32.9356 20.3705 33.4736C19.9277 32.9356 18.5548 31.9394 14.4597 31.9394H14.2489V32.5928C14.0599 32.5878 13.8708 32.5861 13.67 32.5861H13.1923V42.0357H13.67C18.7222 42.0357 19.7533 43.2144 19.9002 43.4331H20.8485C21.0084 43.2041 22.0596 42.0357 27.0716 42.0357H27.5492V32.5861H27.0713C26.8701 32.5861 26.6811 32.5881 26.4921 32.5931V31.9394H26.2812ZM14.776 40.4254V32.4797C19.1083 32.5365 19.9451 33.7436 20.0543 33.9401V41.6096C19.349 41.0801 17.8692 40.4662 14.776 40.4254V40.4254ZM20.687 33.9426C20.8066 33.7274 21.6669 32.5365 25.9655 32.4799V40.4254C22.8722 40.4662 21.3926 41.0798 20.687 41.6096V33.9426Z" fill="url(#paint1_linear)"/>
<path d="M25.9655 40.4254C22.8722 40.4662 21.3926 41.0798 20.6871 41.6095V33.9426C20.8065 33.7274 21.6669 32.5364 25.9655 32.48V40.4254ZM20.0543 41.6095C19.349 41.0801 17.8692 40.4662 14.776 40.4254V32.4797C19.1083 32.5364 19.9451 33.7436 20.0543 33.9401V41.6095ZM27.0713 32.5861C26.8701 32.5861 26.681 32.5881 26.4921 32.5931V31.9394H26.2812C22.1861 31.9394 20.8132 32.9356 20.3705 33.4735C19.9277 32.9356 18.5548 31.9394 14.4598 31.9394H14.2489V32.5928C14.0599 32.5878 13.8709 32.5861 13.67 32.5861H13.1923V42.0357H13.67C18.7221 42.0357 19.7533 43.2143 19.9002 43.4331H20.8485C21.0084 43.2041 22.0596 42.0357 27.0716 42.0357H27.5492V32.5861H27.0713Z" stroke="white" stroke-miterlimit="10" stroke-linecap="round" stroke-linejoin="round"/>
<path d="M12.8246 4.986L7.56861 18H5.38161L0.125609 4.986H2.06961C2.27961 4.986 2.45061 5.037 2.58261 5.139C2.71461 5.241 2.81361 5.373 2.87961 5.535L5.94861 13.473C6.05061 13.731 6.14661 14.016 6.23661 14.328C6.33261 14.634 6.42261 14.955 6.50661 15.291C6.57861 14.955 6.65661 14.634 6.74061 14.328C6.82461 14.016 6.91761 13.731 7.01961 13.473L10.0706 5.535C10.1186 5.397 10.2116 5.271 10.3496 5.157C10.4936 5.043 10.6676 4.986 10.8716 4.986H12.8246ZM16.4828 8.622C17.1668 8.622 17.7878 8.733 18.3458 8.955C18.9098 9.177 19.3898 9.492 19.7858 9.9C20.1878 10.308 20.4968 10.806 20.7128 11.394C20.9288 11.982 21.0368 12.639 21.0368 13.365C21.0368 14.097 20.9288 14.757 20.7128 15.345C20.4968 15.933 20.1878 16.434 19.7858 16.848C19.3898 17.262 18.9098 17.58 18.3458 17.802C17.7878 18.024 17.1668 18.135 16.4828 18.135C15.7928 18.135 15.1658 18.024 14.6018 17.802C14.0378 17.58 13.5548 17.262 13.1528 16.848C12.7568 16.434 12.4478 15.933 12.2258 15.345C12.0098 14.757 11.9018 14.097 11.9018 13.365C11.9018 12.639 12.0098 11.982 12.2258 11.394C12.4478 10.806 12.7568 10.308 13.1528 9.9C13.5548 9.492 14.0378 9.177 14.6018 8.955C15.1658 8.733 15.7928 8.622 16.4828 8.622ZM16.4828 16.425C17.2508 16.425 17.8178 16.167 18.1838 15.651C18.5558 15.135 18.7418 14.379 18.7418 13.383C18.7418 12.387 18.5558 11.628 18.1838 11.106C17.8178 10.584 17.2508 10.323 16.4828 10.323C15.7028 10.323 15.1238 10.587 14.7458 11.115C14.3738 11.637 14.1878 12.393 14.1878 13.383C14.1878 14.373 14.3738 15.129 14.7458 15.651C15.1238 16.167 15.7028 16.425 16.4828 16.425ZM29.3478 10.719C29.2818 10.803 29.2158 10.869 29.1498 10.917C29.0898 10.965 28.9998 10.989 28.8798 10.989C28.7658 10.989 28.6548 10.956 28.5468 10.89C28.4388 10.818 28.3098 10.74 28.1598 10.656C28.0098 10.566 27.8298 10.488 27.6198 10.422C27.4158 10.35 27.1608 10.314 26.8548 10.314C26.4648 10.314 26.1228 10.386 25.8288 10.53C25.5348 10.668 25.2888 10.869 25.0908 11.133C24.8988 11.397 24.7548 11.718 24.6588 12.096C24.5628 12.468 24.5148 12.891 24.5148 13.365C24.5148 13.857 24.5658 14.295 24.6678 14.679C24.7758 15.063 24.9288 15.387 25.1268 15.651C25.3248 15.909 25.5648 16.107 25.8468 16.245C26.1288 16.377 26.4468 16.443 26.8008 16.443C27.1548 16.443 27.4398 16.401 27.6558 16.317C27.8778 16.227 28.0638 16.131 28.2138 16.029C28.3638 15.921 28.4928 15.825 28.6008 15.741C28.7148 15.651 28.8408 15.606 28.9788 15.606C29.1588 15.606 29.2938 15.675 29.3838 15.813L30.0228 16.623C29.7768 16.911 29.5098 17.154 29.2218 17.352C28.9338 17.544 28.6338 17.7 28.3218 17.82C28.0158 17.934 27.6978 18.015 27.3678 18.063C27.0438 18.111 26.7198 18.135 26.3958 18.135C25.8258 18.135 25.2888 18.03 24.7848 17.82C24.2808 17.604 23.8398 17.292 23.4618 16.884C23.0838 16.476 22.7838 15.978 22.5618 15.39C22.3458 14.796 22.2378 14.121 22.2378 13.365C22.2378 12.687 22.3338 12.06 22.5258 11.484C22.7238 10.902 23.0118 10.401 23.3898 9.981C23.7678 9.555 24.2358 9.222 24.7938 8.982C25.3518 8.742 25.9938 8.622 26.7198 8.622C27.4098 8.622 28.0128 8.733 28.5288 8.955C29.0508 9.177 29.5188 9.495 29.9328 9.909L29.3478 10.719ZM37.2072 12.321C37.2072 12.033 37.1652 11.763 37.0812 11.511C37.0032 11.253 36.8832 11.028 36.7212 10.836C36.5592 10.644 36.3522 10.494 36.1002 10.386C35.8542 10.272 35.5662 10.215 35.2362 10.215C34.5942 10.215 34.0872 10.398 33.7152 10.764C33.3492 11.13 33.1152 11.649 33.0132 12.321H37.2072ZM32.9682 13.662C33.0042 14.136 33.0882 14.547 33.2202 14.895C33.3522 15.237 33.5262 15.522 33.7422 15.75C33.9582 15.972 34.2132 16.14 34.5072 16.254C34.8072 16.362 35.1372 16.416 35.4972 16.416C35.8572 16.416 36.1662 16.374 36.4242 16.29C36.6882 16.206 36.9162 16.113 37.1082 16.011C37.3062 15.909 37.4772 15.816 37.6212 15.732C37.7712 15.648 37.9152 15.606 38.0532 15.606C38.2392 15.606 38.3772 15.675 38.4672 15.813L39.1062 16.623C38.8602 16.911 38.5842 17.154 38.2782 17.352C37.9722 17.544 37.6512 17.7 37.3152 17.82C36.9852 17.934 36.6462 18.015 36.2982 18.063C35.9562 18.111 35.6232 18.135 35.2992 18.135C34.6572 18.135 34.0602 18.03 33.5082 17.82C32.9562 17.604 32.4762 17.289 32.0682 16.875C31.6602 16.455 31.3392 15.939 31.1052 15.327C30.8712 14.709 30.7542 13.995 30.7542 13.185C30.7542 12.555 30.8562 11.964 31.0602 11.412C31.2642 10.854 31.5552 10.371 31.9332 9.963C32.3172 9.549 32.7822 9.222 33.3282 8.982C33.8802 8.742 34.5012 8.622 35.1912 8.622C35.7732 8.622 36.3102 8.715 36.8022 8.901C37.2942 9.087 37.7172 9.36 38.0712 9.72C38.4252 10.074 38.7012 10.512 38.8992 11.034C39.1032 11.55 39.2052 12.141 39.2052 12.807C39.2052 13.143 39.1692 13.371 39.0972 13.491C39.0252 13.605 38.8872 13.662 38.6832 13.662H32.9682ZM38.3502 7.488H36.8652C36.7812 7.488 36.6942 7.473 36.6042 7.443C36.5202 7.407 36.4362 7.347 36.3522 7.263L35.4702 6.327C35.4042 6.267 35.3412 6.195 35.2812 6.111C35.2152 6.195 35.1522 6.267 35.0922 6.327L34.1922 7.263C34.1202 7.341 34.0392 7.398 33.9492 7.434C33.8592 7.47 33.7692 7.488 33.6792 7.488H32.1402L34.2012 4.986H36.2892L38.3502 7.488Z" fill="#2F082C"/>
<defs>
<radialGradient id="paint0_radial" cx="0" cy="0" r="1" gradientUnits="userSpaceOnUse" gradientTransform="translate(14.5837 30.2574) scale(25.4544 25.8942)">
<stop stop-color="white"/>
<stop offset="0.187919" stop-color="white"/>
<stop offset="0.443571" stop-color="white"/>
<stop offset="1" stop-color="#B6B6B7"/>
</radialGradient>
<linearGradient id="paint1_linear" x1="26.6768" y1="41.6683" x2="9.12971" y2="29.9519" gradientUnits="userSpaceOnUse">
<stop stop-color="#515151"/>
<stop offset="0.162071" stop-color="#515151"/>
<stop offset="0.534422" stop-color="#797979"/>
<stop offset="0.668329" stop-color="#797979"/>
<stop offset="0.811518" stop-color="#A8A8A8"/>
<stop offset="0.984293" stop-color="#AFAFAF"/>
<stop offset="1" stop-color="#AFAFAF"/>
</linearGradient>
</defs>
</svg>
